<svg width="500" height="500" viewBox="0 0 500 500" fill="none" xmlns="http://www.w3.org/2000/svg">
<path d="M414.221 100.557C405.328 85.43 392.888 73.047 377.162 62.949C324.786 29.318 253.607 17.209 192.418 26.347C148.707 32.875 119.566 62.591 100.923 101.308C78.895 147.057 58.898 192.572 33.822 237C5.03601 288 -7.86798 341 54.667 385C108.786 423.078 176.648 413.2 238.682 411.98C259.24 411.575 279.945 412.257 300.177 416.235C340.375 424.141 379.423 452.24 418.958 425.999C449.009 406.053 466.71 368.364 475.286 334.224C480.398 313.875 484.416 291.425 482.524 269.828C480.451 246.168 469.538 228.353 458.311 208.202C444.188 182.854 433.154 155.761 425.534 127.723C422.838 117.809 419.053 108.778 414.221 100.557Z" fill="#92E3A9"/>
<path opacity="0.7" d="M414.221 100.557C405.328 85.43 392.888 73.047 377.162 62.949C324.786 29.318 253.607 17.209 192.418 26.347C148.707 32.875 119.566 62.591 100.923 101.308C78.895 147.057 58.898 192.572 33.822 237C5.03601 288 -7.86798 341 54.667 385C108.786 423.078 176.648 413.2 238.682 411.98C259.24 411.575 279.945 412.257 300.177 416.235C340.375 424.141 379.423 452.24 418.958 425.999C449.009 406.053 466.71 368.364 475.286 334.224C480.398 313.875 484.416 291.425 482.524 269.828C480.451 246.168 469.538 228.353 458.311 208.202C444.188 182.854 433.154 155.761 425.534 127.723C422.838 117.809 419.053 108.778 414.221 100.557Z" fill="white"/>
<path d="M469 453.323H476" stroke="#263238" stroke-miterlimit="10" stroke-linecap="round"/>
<path d="M23 453.323H461" stroke="#263238" stroke-miterlimit="10" stroke-linecap="round"/>
<path d="M140.885 51.637H41.885V184.362H140.885V51.637Z" stroke="#263238" stroke-miterlimit="10" stroke-linecap="round"/>
<path d="M136.885 57H45.885V179H136.885V57Z" stroke="#263238" stroke-miterlimit="10" stroke-linecap="round"/>
<path d="M116 85H66.771V151H116V85Z" stroke="#263238" stroke-miterlimit="10" stroke-linecap="round"/>
<path d="M434.959 149H398.885V197.363H434.959V149Z" stroke="#263238" stroke-miterlimit="10" stroke-linecap="round"/>
<path d="M433.502 150.954H400.343V195.409H433.502V150.954Z" stroke="#263238" stroke-miterlimit="10" stroke-linecap="round"/>
<path d="M425.891 161.157H407.953V185.206H425.891V161.157Z" stroke="#263238" stroke-miterlimit="10" stroke-linecap="round"/>
<path d="M475.458 117.046H439.384V165.409H475.458V117.046Z" stroke="#263238" stroke-miterlimit="10" stroke-linecap="round"/>
<path d="M474 119H440.841V163.454H474V119Z" stroke="#263238" stroke-miterlimit="10" stroke-linecap="round"/>
<path d="M466.389 129.203H448.451V153.252H466.389V129.203Z" stroke="#263238" stroke-miterlimit="10" stroke-linecap="round"/>
<path d="M370.627 51H153.627V453H370.627V51Z" fill="white"/>
<path d="M356.925 372H171.32C169.832 372 168.625 370.793 168.625 369.305V121.695C168.625 120.207 169.832 119 171.32 119H356.925C358.413 119 359.62 120.207 359.62 121.695V369.305C359.62 370.793 358.413 372 356.925 372Z" fill="#92E3A9" stroke="#263238" stroke-miterlimit="10" stroke-linecap="round"/>
<path d="M346.055 225.524H179.388C178.836 225.524 178.388 225.076 178.388 224.524V205.857C178.388 205.305 178.836 204.857 179.388 204.857H346.055C346.607 204.857 347.055 205.305 347.055 205.857V224.524C347.055 225.076 346.607 225.524 346.055 225.524Z" fill="white" stroke="#263238" stroke-miterlimit="10" stroke-linecap="round"/>
<path d="M346.055 192.244H179.388C178.836 192.244 178.388 191.796 178.388 191.244V172.577C178.388 172.025 178.836 171.577 179.388 171.577H346.055C346.607 171.577 347.055 172.025 347.055 172.577V191.244C347.055 191.796 346.607 192.244 346.055 192.244Z" fill="white" stroke="#263238" stroke-miterlimit="10" stroke-linecap="round"/>
<path opacity="0.3" d="M348.677 194.021H200.021V221.874H348.677V194.021Z" fill="black"/>
<path d="M346.908 192H198V219.853H346.908V192Z" fill="white" stroke="#263238" stroke-miterlimit="10" stroke-linecap="round"/>
<path d="M202.158 203.593C202.314 203.605 202.482 203.605 202.626 203.605C203.238 203.569 203.609 203.281 203.609 202.429V196.049H204.533V202.37C204.533 203.941 203.753 204.433 202.746 204.457C202.53 204.457 202.362 204.469 202.158 204.445V203.593Z" fill="#263238"/>
<path d="M205.386 198.076C205.386 196.793 206.022 195.965 207.305 195.965C208.6 195.965 209.236 196.793 209.236 198.076V202.418C209.236 203.689 208.6 204.529 207.305 204.529C206.022 204.529 205.386 203.69 205.386 202.418V198.076ZM206.31 202.465C206.31 203.233 206.634 203.677 207.306 203.677C207.99 203.677 208.302 203.233 208.302 202.465V198.027C208.302 197.272 207.99 196.816 207.306 196.816C206.635 196.816 206.31 197.272 206.31 198.027V202.465Z" fill="#263238"/>
<path d="M211.061 200.667V204.445H210.125V196.049H211.061V199.827H213.124V196.049H214.06V204.445H213.124V200.667H211.061Z" fill="#263238"/>
<path d="M215.849 204.444H215.01V196.048H216.198L218.141 202.117V196.048H218.969V204.444H217.997L215.85 197.656V204.444H215.849Z" fill="#263238"/>
<path d="M225.424 198.064V198.292H224.536V198.017C224.536 197.261 224.248 196.817 223.577 196.817C222.906 196.817 222.617 197.261 222.617 198.005C222.617 199.888 225.436 200.068 225.436 202.43C225.436 203.701 224.824 204.529 223.541 204.529C222.257 204.529 221.658 203.701 221.658 202.43V201.951H222.533V202.479C222.533 203.234 222.845 203.678 223.517 203.678C224.188 203.678 224.5 203.234 224.5 202.479C224.5 200.608 221.693 200.428 221.693 198.066C221.693 196.771 222.293 195.967 223.552 195.967C224.824 195.965 225.424 196.792 225.424 198.064Z" fill="#263238"/>
<path d="M229.348 204.432H228.448L227.057 197.752V204.444H226.242V196.048H227.549L228.928 202.753L230.259 196.048H231.567V204.444H230.679V197.692L229.348 204.432Z" fill="#263238"/>
<path d="M233.465 196.049V204.445H232.53V196.049H233.465Z" fill="#263238"/>
<path d="M235.637 204.444V196.9H234.09V196.048H238.108V196.9H236.561V204.444H235.637Z" fill="#263238"/>
<path d="M239.681 200.667V204.445H238.746V196.049H239.681V199.827H241.744V196.049H242.68V204.445H241.744V200.667H239.681Z" fill="#263238"/>
<path d="M346.055 257.524H179.388C178.836 257.524 178.388 257.076 178.388 256.524V237.857C178.388 237.305 178.836 236.857 179.388 236.857H346.055C346.607 236.857 347.055 237.305 347.055 237.857V256.524C347.055 257.076 346.607 257.524 346.055 257.524Z" fill="white" stroke="#263238" stroke-miterlimit="10" stroke-linecap="round"/>
<path d="M203.028 250.951H202.189V242.556H203.377L205.32 248.625V242.556H206.148V250.951H205.176L203.029 244.163V250.951H203.028Z" fill="#E5E5E5"/>
<path d="M210.095 246.274V247.113H208.044V250.099H210.563V250.951H207.109V242.556H210.563V243.408H208.044V246.275L210.095 246.274Z" fill="#E5E5E5"/>
<path d="M213.659 250.951H212.376L211.225 242.556H212.137L213.12 249.704L214.056 242.568H214.979L215.902 249.716L216.85 242.556H217.665L216.526 250.951H215.291L214.487 245.254L213.659 250.951Z" fill="#E5E5E5"/>
<path d="M222.119 242.556C223.438 242.556 224.002 243.336 224.002 244.607V245.615C224.002 246.946 223.378 247.642 222.047 247.642H221.219V250.952H220.283V242.557H222.119V242.556ZM222.047 246.801C222.743 246.801 223.079 246.477 223.079 245.674V244.559C223.079 243.791 222.803 243.408 222.12 243.408H221.22V246.802H222.047V246.801Z" fill="#E5E5E5"/>
<path d="M225.528 249.26L225.204 250.951H224.34L225.947 242.556H227.302L228.909 250.951H227.973L227.649 249.26H225.528ZM225.648 248.457H227.519L226.572 243.612L225.648 248.457Z" fill="#E5E5E5"/>
<path d="M233.279 244.571V244.798H232.391V244.522C232.391 243.767 232.103 243.323 231.431 243.323C230.76 243.323 230.471 243.767 230.471 244.511C230.471 246.394 233.29 246.574 233.29 248.937C233.29 250.208 232.678 251.036 231.395 251.036C230.111 251.036 229.512 250.208 229.512 248.937V248.457H230.388V248.985C230.388 249.74 230.7 250.184 231.372 250.184C232.043 250.184 232.355 249.74 232.355 248.985C232.355 247.114 229.548 246.934 229.548 244.572C229.548 243.277 230.148 242.473 231.407 242.473C232.679 242.472 233.279 243.299 233.279 244.571Z" fill="#E5E5E5"/>
<path d="M237.742 244.571V244.798H236.854V244.522C236.854 243.767 236.566 243.323 235.894 243.323C235.223 243.323 234.934 243.767 234.934 244.511C234.934 246.394 237.753 246.574 237.753 248.937C237.753 250.208 237.141 251.036 235.858 251.036C234.574 251.036 233.975 250.208 233.975 248.937V248.457H234.851V248.985C234.851 249.74 235.163 250.184 235.835 250.184C236.506 250.184 236.818 249.74 236.818 248.985C236.818 247.114 234.011 246.934 234.011 244.572C234.011 243.277 234.611 242.473 235.87 242.473C237.143 242.472 237.742 243.299 237.742 244.571Z" fill="#E5E5E5"/>
<path d="M240.803 250.951H239.52L238.369 242.556H239.281L240.264 249.704L241.2 242.568H242.123L243.046 249.716L243.993 242.556H244.809L243.67 250.951H242.435L241.631 245.254L240.803 250.951Z" fill="#E5E5E5"/>
<path d="M245.497 244.583C245.497 243.3 246.132 242.472 247.416 242.472C248.711 242.472 249.347 243.3 249.347 244.583V248.925C249.347 250.196 248.711 251.036 247.416 251.036C246.132 251.036 245.497 250.197 245.497 248.925V244.583ZM246.42 248.972C246.42 249.74 246.744 250.184 247.416 250.184C248.1 250.184 248.411 249.74 248.411 248.972V244.534C248.411 243.779 248.1 243.323 247.416 243.323C246.744 243.323 246.42 243.779 246.42 244.534V248.972Z" fill="#E5E5E5"/>
<path d="M252.107 242.556C253.426 242.556 253.978 243.228 253.978 244.475V245.159C253.978 246.083 253.654 246.658 252.935 246.886C253.703 247.114 253.99 247.738 253.99 248.637V249.945C253.99 250.317 254.003 250.664 254.158 250.952H253.211C253.103 250.712 253.055 250.497 253.055 249.932V248.613C253.055 247.666 252.612 247.366 251.832 247.366H251.172V250.952H250.236V242.557H252.107V242.556ZM251.867 246.514C252.611 246.514 253.054 246.274 253.054 245.363V244.559C253.054 243.804 252.779 243.408 252.083 243.408H251.171V246.514H251.867Z" fill="#E5E5E5"/>
<path d="M256.93 242.556C258.238 242.556 258.837 243.348 258.837 244.643V248.877C258.837 250.16 258.237 250.952 256.93 250.952H254.963V242.557H256.93V242.556ZM256.919 250.1C257.591 250.1 257.914 249.68 257.914 248.912V244.595C257.914 243.827 257.591 243.407 256.907 243.407H255.899V250.099H256.919V250.1Z" fill="#E5E5E5"/>
<path d="M203.85 185.671H203.01V177.275H204.198L206.14 183.344V177.275H206.968V185.671H205.996L203.85 178.883V185.671Z" fill="#E5E5E5"/>
<path d="M208.877 183.98L208.554 185.671H207.691L209.297 177.275H210.652L212.259 185.671H211.323L211 183.98H208.877ZM208.997 183.177H210.868L209.921 178.332L208.997 183.177Z" fill="#E5E5E5"/>
<path d="M216.088 185.659H215.189L213.797 178.979V185.671H212.982V177.275H214.29L215.669 183.98L217 177.275H218.308V185.671H217.42V178.918L216.088 185.659Z" fill="#E5E5E5"/>
<path d="M222.256 180.994V181.833H220.205V184.819H222.724V185.671H219.27V177.275H222.724V178.127H220.205V180.994H222.256Z" fill="#E5E5E5"/>
<path d="M227.175 145.095V145.851H226.287V145.047C226.287 144.292 225.987 143.836 225.304 143.836C224.632 143.836 224.32 144.292 224.32 145.047V149.485C224.32 150.241 224.632 150.696 225.304 150.696C225.988 150.696 226.287 150.24 226.287 149.485V148.394H227.175V149.438C227.175 150.709 226.575 151.549 225.28 151.549C223.997 151.549 223.397 150.71 223.397 149.438V145.096C223.397 143.825 223.997 142.985 225.28 142.985C226.575 142.984 227.175 143.824 227.175 145.095Z" fill="#263238"/>
<path d="M229.899 143.068C231.218 143.068 231.77 143.74 231.77 144.987V145.671C231.77 146.595 231.446 147.17 230.727 147.398C231.495 147.626 231.782 148.25 231.782 149.149V150.457C231.782 150.829 231.794 151.176 231.95 151.464H231.003C230.896 151.224 230.847 151.009 230.847 150.444V149.125C230.847 148.178 230.404 147.878 229.624 147.878H228.964V151.464H228.028V143.069H229.899V143.068ZM229.659 147.026C230.403 147.026 230.847 146.786 230.847 145.875V145.071C230.847 144.316 230.572 143.92 229.876 143.92H228.964V147.026H229.659Z" fill="#263238"/>
<path d="M235.743 146.786V147.625H233.691V150.611H236.21V151.463H232.756V143.068H236.21V143.92H233.691V146.787H235.743V146.786Z" fill="#263238"/>
<path d="M238.024 149.772L237.7 151.463H236.837L238.444 143.068H239.799L241.406 151.463H240.47L240.146 149.772H238.024ZM238.143 148.969H240.014L239.067 144.124L238.143 148.969Z" fill="#263238"/>
<path d="M242.895 151.463V143.919H241.348V143.067H245.366V143.919H243.819V151.463H242.895Z" fill="#263238"/>
<path d="M248.991 146.786V147.625H246.939V150.611H249.458V151.463H246.004V143.068H249.458V143.92H246.939V146.787H248.991V146.786Z" fill="#263238"/>
<path d="M253.671 148.453L251.896 143.068H252.869L254.176 147.194L255.495 143.068H256.383L254.596 148.453V151.463H253.672L253.671 148.453Z" fill="#263238"/>
<path d="M256.803 145.095C256.803 143.812 257.439 142.984 258.722 142.984C260.018 142.984 260.653 143.812 260.653 145.095V149.437C260.653 150.708 260.018 151.548 258.722 151.548C257.439 151.548 256.803 150.709 256.803 149.437V145.095ZM257.727 149.484C257.727 150.252 258.051 150.695 258.722 150.695C259.406 150.695 259.717 150.251 259.717 149.484V145.046C259.717 144.291 259.406 143.835 258.722 143.835C258.051 143.835 257.727 144.291 257.727 145.046V149.484Z" fill="#263238"/>
<path d="M262.43 149.484C262.43 150.24 262.731 150.695 263.414 150.695C264.086 150.695 264.385 150.239 264.385 149.484V143.067H265.261V149.436C265.261 150.707 264.673 151.558 263.378 151.558C262.094 151.558 261.507 150.707 261.507 149.436V143.067H262.43V149.484Z" fill="#263238"/>
<path d="M268.058 143.068C269.377 143.068 269.929 143.74 269.929 144.987V145.671C269.929 146.595 269.606 147.17 268.885 147.398C269.653 147.626 269.942 148.25 269.942 149.149V150.457C269.942 150.829 269.954 151.176 270.109 151.464H269.162C269.054 151.224 269.007 151.009 269.007 150.444V149.125C269.007 148.178 268.563 147.878 267.782 147.878H267.123V151.464H266.187V143.069H268.058V143.068ZM267.819 147.026C268.562 147.026 269.007 146.786 269.007 145.875V145.071C269.007 144.316 268.731 143.92 268.034 143.92H267.123V147.026H267.819Z" fill="#263238"/>
<path d="M273.723 149.772L273.399 151.463H272.536L274.143 143.068H275.498L277.105 151.463H276.17L275.846 149.772H273.723ZM273.842 148.969H275.713L274.766 144.124L273.842 148.969Z" fill="#263238"/>
<path d="M281.533 145.095V145.851H280.645V145.047C280.645 144.292 280.346 143.836 279.663 143.836C278.991 143.836 278.679 144.292 278.679 145.047V149.485C278.679 150.241 278.992 150.696 279.663 150.696C280.347 150.696 280.645 150.24 280.645 149.485V148.394H281.533V149.438C281.533 150.709 280.933 151.549 279.637 151.549C278.354 151.549 277.754 150.71 277.754 149.438V145.096C277.754 143.825 278.354 142.985 279.637 142.985C280.933 142.984 281.533 143.824 281.533 145.095Z" fill="#263238"/>
<path d="M286.092 145.095V145.851H285.205V145.047C285.205 144.292 284.905 143.836 284.222 143.836C283.55 143.836 283.239 144.292 283.239 145.047V149.485C283.239 150.241 283.551 150.696 284.222 150.696C284.906 150.696 285.205 150.24 285.205 149.485V148.394H286.092V149.438C286.092 150.709 285.492 151.549 284.197 151.549C282.914 151.549 282.314 150.71 282.314 149.438V145.096C282.314 143.825 282.914 142.985 284.197 142.985C285.493 142.984 286.092 143.824 286.092 145.095Z" fill="#263238"/>
<path d="M286.876 145.095C286.876 143.812 287.511 142.984 288.794 142.984C290.09 142.984 290.726 143.812 290.726 145.095V149.437C290.726 150.708 290.09 151.548 288.794 151.548C287.511 151.548 286.876 150.709 286.876 149.437V145.095ZM287.799 149.484C287.799 150.252 288.123 150.695 288.794 150.695C289.478 150.695 289.79 150.251 289.79 149.484V145.046C289.79 144.291 289.477 143.835 288.794 143.835C288.123 143.835 287.799 144.291 287.799 145.046V149.484Z" fill="#263238"/>
<path d="M292.503 149.484C292.503 150.24 292.803 150.695 293.486 150.695C294.158 150.695 294.458 150.239 294.458 149.484V143.067H295.333V149.436C295.333 150.707 294.745 151.558 293.45 151.558C292.167 151.558 291.579 150.707 291.579 149.436V143.067H292.503V149.484Z" fill="#263238"/>
<path d="M297.087 151.463H296.247V143.068H297.435L299.378 149.137V143.068H300.205V151.463H299.233L297.087 144.675V151.463Z" fill="#263238"/>
<path d="M302.378 151.463V143.919H300.831V143.067H304.849V143.919H303.302V151.463H302.378Z" fill="#263238"/>
<path d="M285.705 322.601H242.54C241.228 322.601 240.164 321.537 240.164 320.225V304.78C240.164 303.468 241.228 302.404 242.54 302.404H285.705C287.017 302.404 288.081 303.468 288.081 304.78V320.224C288.081 321.537 287.017 322.601 285.705 322.601Z" fill="#263238" stroke="#263238" stroke-miterlimit="10" stroke-linecap="round"/>
<path d="M259.325 310.676V310.904H258.437V310.628C258.437 309.873 258.15 309.429 257.478 309.429C256.806 309.429 256.518 309.873 256.518 310.617C256.518 312.5 259.337 312.68 259.337 315.043C259.337 316.315 258.725 317.142 257.441 317.142C256.157 317.142 255.558 316.315 255.558 315.043V314.564H256.433V315.091C256.433 315.847 256.746 316.29 257.417 316.29C258.088 316.29 258.4 315.847 258.4 315.091C258.4 313.22 255.593 313.04 255.593 310.678C255.593 309.382 256.193 308.578 257.451 308.578C258.726 308.576 259.325 309.405 259.325 310.676Z" fill="white"/>
<path d="M261.103 315.366L260.78 317.056H259.916L261.523 308.66H262.878L264.485 317.056H263.549L263.225 315.366H261.103ZM261.223 314.562H263.094L262.147 309.716L261.223 314.562Z" fill="white"/>
<path d="M265.627 308.66L266.994 315.965L268.349 308.66H269.212L267.641 317.056H266.262L264.679 308.66H265.627Z" fill="white"/>
<path d="M272.922 312.379V313.218H270.871V316.204H273.39V317.056H269.936V308.66H273.39V309.512H270.871V312.379H272.922Z" fill="white"/>
<path d="M266.628 133.51C266.628 131.883 265.31 130.565 263.683 130.565C262.056 130.565 260.738 131.884 260.738 133.51C260.738 135.136 262.057 136.455 263.683 136.455C265.309 136.456 266.628 135.137 266.628 133.51Z" fill="#263238"/>
<path d="M198 171.667V192" stroke="#263238" stroke-miterlimit="10" stroke-linecap="round"/>
<path d="M198 204.667V225" stroke="#263238" stroke-miterlimit="10" stroke-linecap="round"/>
<path d="M198 237V257.333" stroke="#263238" stroke-miterlimit="10" stroke-linecap="round"/>
<path d="M182.469 186.005H192.825L189.763 183.082C189.427 182.761 189.042 182.526 188.633 182.372C189.685 181.935 190.425 180.9 190.425 179.69C190.425 178.086 189.124 176.785 187.52 176.785C185.916 176.785 184.615 178.086 184.615 179.69C184.615 180.881 185.333 181.901 186.358 182.35C185.837 182.528 185.349 182.821 184.953 183.259L182.469 186.005Z" fill="white" stroke="#E5E5E5" stroke-miterlimit="10"/>
<path d="M191.814 246.88H183.984V253.448H191.814V246.88Z" fill="white" stroke="#E5E5E5" stroke-miterlimit="10"/>
<path d="M183.984 246.88V245.238C183.984 243.076 185.737 241.323 187.899 241.323C190.061 241.323 191.814 243.076 191.814 245.238V246.88" stroke="#E5E5E5" stroke-miterlimit="10"/>
<path d="M193.33 212.275H183.226V219.095H193.33V212.275Z" fill="white" stroke="#E5E5E5" stroke-miterlimit="10"/>
<path d="M183.226 212.275L188.278 215.685L193.33 212.275" stroke="#E5E5E5" stroke-miterlimit="10"/>
<path d="M192.501 275.866H184.311V284.056H192.501V275.866Z" stroke="#263238" stroke-miterlimit="10" stroke-linecap="round"/>
<path d="M198.936 276.744H345.483" stroke="#263238" stroke-miterlimit="10" stroke-linecap="round"/>
<path d="M198.936 283.179H306.287" stroke="#263238" stroke-miterlimit="10" stroke-linecap="round"/>
<path opacity="0.15" d="M371.788 454.228V259.623L201.285 454.228H371.788Z" fill="#080808"/>
<path d="M213.273 83H166.294V96.333H213.273V83Z" fill="#263238"/>
<path d="M262.724 83H215.745V96.333H262.724V83Z" fill="#263238"/>
<path d="M312.176 83H265.197V96.333H312.176V83Z" fill="#263238"/>
<path d="M361.627 83H314.648V96.333H361.627V83Z" fill="#263238"/>
<path d="M176.399 90.188H201.732" stroke="white" stroke-miterlimit="10" stroke-linecap="round"/>
<path d="M225.94 90.188H251.273" stroke="white" stroke-miterlimit="10" stroke-linecap="round"/>
<path d="M275.21 90.188H300.544" stroke="white" stroke-miterlimit="10" stroke-linecap="round"/>
<path d="M325.481 90.188H350.814" stroke="white" stroke-miterlimit="10" stroke-linecap="round"/>
<path d="M359.357 30.558H168.888C159.343 30.558 151.605 38.296 151.605 47.84V452.425C151.605 461.97 159.343 469.707 168.888 469.707H359.357C368.902 469.707 376.64 461.969 376.64 452.425V47.84C376.639 38.295 368.902 30.558 359.357 30.558ZM366.631 443.642H161.613V60.381H366.631V443.642Z" fill="#263238"/>
<path d="M359.657 64.3561H342.658V73.6781H359.657V64.3561Z" stroke="#263238" stroke-width="0.8211" stroke-miterlimit="10" stroke-linecap="round" stroke-linejoin="round"/>
<path d="M355.915 64.3561H342.658V73.6781H355.915V64.3561Z" fill="#263238" stroke="#263238" stroke-width="0.7251" stroke-miterlimit="10" stroke-linecap="round" stroke-linejoin="round"/>
<path d="M362.015 66.9641H359.62V71.0701H362.015V66.9641Z" fill="#263238" stroke="#263238" stroke-width="0.7251" stroke-miterlimit="10" stroke-linecap="round" stroke-linejoin="round"/>
<path d="M169.345 67.248H166.229V72.591H169.345V67.248Z" fill="#263238" stroke="#263238" stroke-width="0.8831" stroke-miterlimit="10" stroke-linecap="round" stroke-linejoin="round"/>
<path d="M174.244 65.3721H171.127V72.5911H174.244V65.3721Z" fill="#263238" stroke="#263238" stroke-width="0.8831" stroke-miterlimit="10" stroke-linecap="round" stroke-linejoin="round"/>
<path d="M179.141 63.155H176.024V72.591H179.141V63.155Z" fill="#263238" stroke="#263238" stroke-width="0.8831" stroke-miterlimit="10" stroke-linecap="round" stroke-linejoin="round"/>
<path d="M441.447 279.065C441.447 279.065 427.368 271.244 426.326 288.972C425.283 306.701 422.676 421.936 422.676 421.936" stroke="#263238" stroke-width="2" stroke-miterlimit="10" stroke-linecap="round"/>
<path d="M419.014 290.535C419.014 290.535 430.497 316.087 425.283 420.372" stroke="#263238" stroke-width="2" stroke-miterlimit="10" stroke-linecap="round"/>
<path d="M430.295 282.634C430.295 282.634 424.91 286.085 421.845 282.135C418.781 278.186 423.918 270.952 419.39 267.858C414.862 264.764 407.046 269.485 407.046 269.485C407.046 269.485 413.065 271.253 412.872 274.539C412.678 277.825 409.778 279.067 409.392 277.631C409.006 276.195 406.135 268.96 401.247 271.969C396.359 274.978 395.613 279.645 395.613 279.645C395.613 279.645 406.99 278.432 407.68 282.712C408.37 286.992 403.013 281.966 398.319 281.689C393.625 281.412 389.345 282.102 389.648 284.946C389.951 287.79 389.205 292.457 389.205 292.457C389.205 292.457 393.182 288.923 398.346 289.228C403.51 289.533 403.316 292.819 398.622 292.542C393.928 292.265 389.895 296.738 389.895 296.738C389.895 296.738 394.174 304.056 399.613 307.675C405.052 311.293 407.013 309.996 407.649 307.207C408.285 304.418 406.822 297.266 410.108 297.46C413.394 297.654 404.666 309.857 408.863 310.576C413.06 311.295 416.429 310.08 417.534 307.319C418.639 304.558 418.639 304.558 418.639 304.558C418.639 304.558 417.177 297.406 417.812 294.617C418.448 291.828 419.22 294.7 419.965 298.041C420.71 301.382 421.178 309.418 422.614 309.032C424.05 308.646 428.635 302.792 429.712 300.501C430.789 298.209 423.666 291.194 423.749 289.786C423.832 288.378 429.327 291.057 430.183 292.521C431.039 293.985 431.867 295.918 431.867 295.918C431.867 295.918 435.291 293.765 435.21 287.165C435.128 280.564 430.295 282.634 430.295 282.634Z" fill="#92E3A9"/>
<path opacity="0.3" d="M430.295 282.634C430.295 282.634 424.91 286.085 421.845 282.135C418.781 278.186 423.918 270.952 419.39 267.858C414.862 264.764 407.046 269.485 407.046 269.485C407.046 269.485 413.065 271.253 412.872 274.539C412.678 277.825 409.778 279.067 409.392 277.631C409.006 276.195 406.135 268.96 401.247 271.969C396.359 274.978 395.613 279.645 395.613 279.645C395.613 279.645 406.99 278.432 407.68 282.712C408.37 286.992 403.013 281.966 398.319 281.689C393.625 281.412 389.345 282.102 389.648 284.946C389.951 287.79 389.205 292.457 389.205 292.457C389.205 292.457 393.182 288.923 398.346 289.228C403.51 289.533 403.316 292.819 398.622 292.542C393.928 292.265 389.895 296.738 389.895 296.738C389.895 296.738 394.174 304.056 399.613 307.675C405.052 311.293 407.013 309.996 407.649 307.207C408.285 304.418 406.822 297.266 410.108 297.46C413.394 297.654 404.666 309.857 408.863 310.576C413.06 311.295 416.429 310.08 417.534 307.319C418.639 304.558 418.639 304.558 418.639 304.558C418.639 304.558 417.177 297.406 417.812 294.617C418.448 291.828 419.22 294.7 419.965 298.041C420.71 301.382 421.178 309.418 422.614 309.032C424.05 308.646 428.635 302.792 429.712 300.501C430.789 298.209 423.666 291.194 423.749 289.786C423.832 288.378 429.327 291.057 430.183 292.521C431.039 293.985 431.867 295.918 431.867 295.918C431.867 295.918 435.291 293.765 435.21 287.165C435.128 280.564 430.295 282.634 430.295 282.634Z" fill="#263238"/>
<path d="M402.994 298.109C406.506 293.767 411.681 287.893 416.019 285.089" stroke="#263238" stroke-miterlimit="10" stroke-linecap="round"/>
<path d="M398.923 303.394C398.923 303.394 399.825 302.14 401.286 300.262" stroke="#263238" stroke-miterlimit="10" stroke-linecap="round"/>
<path d="M418.31 286.166C418.31 286.166 423.528 293.54 424.493 301.133" stroke="#263238" stroke-miterlimit="10" stroke-linecap="round"/>
<path d="M412.4 290.528C412.4 290.528 413.864 289.672 413.31 299.061" stroke="#263238" stroke-miterlimit="10" stroke-linecap="round"/>
<path d="M416.213 281.803C416.213 281.803 419.196 279.153 417.623 273.878" stroke="#263238" stroke-miterlimit="10" stroke-linecap="round"/>
<path d="M412.18 286.276L410.055 282.382" stroke="#263238" stroke-miterlimit="10" stroke-linecap="round"/>
<path d="M407.706 290.251C407.706 290.251 400.942 285.141 396.717 284.892" stroke="#263238" stroke-miterlimit="10" stroke-linecap="round"/>
<path d="M449.49 268.721C449.49 268.721 449.274 276.465 443.232 276.841C437.189 277.217 433.448 267.143 427.265 269.568C421.081 271.993 420.48 283.035 420.48 283.035C420.48 283.035 426.353 278.214 429.511 280.647C432.669 283.08 431.936 286.831 430.235 286.239C428.534 285.647 419.333 283.589 419.014 290.534C418.695 297.479 422.858 301.407 422.858 301.407C422.858 301.407 429.398 289.19 434.154 291.417C438.909 293.644 430.226 295.58 426.749 300.091C423.272 304.602 421.045 309.358 424.099 310.993C427.153 312.628 431.317 316.556 431.317 316.556C431.317 316.556 430.49 310.166 434.314 305.203C438.139 300.241 441.296 302.675 437.819 307.186C434.342 311.697 436.072 318.783 436.072 318.783C436.072 318.783 446.316 319.487 453.646 316.508C460.976 313.529 461.014 310.681 458.655 308.144C456.296 305.607 448.139 302.196 450.572 299.038C453.006 295.88 459.275 312.937 462.855 309.224C466.436 305.512 467.516 301.311 465.505 298.323C463.494 295.335 463.494 295.335 463.494 295.335C463.494 295.335 455.336 291.924 452.977 289.387C450.618 286.85 454.02 288.034 457.873 289.565C461.726 291.097 470.091 296.105 470.683 294.404C471.275 292.703 468.54 284.123 466.98 281.482C465.42 278.841 453.541 281.191 452.188 280.148C450.835 279.105 457.263 275.43 459.311 275.571C461.36 275.712 463.86 276.2 463.86 276.2C463.86 276.2 464.038 271.304 457.375 266.887C450.712 262.47 449.49 268.721 449.49 268.721Z" fill="#92E3A9"/>
<path opacity="0.2" d="M449.49 268.721C449.49 268.721 449.274 276.465 443.232 276.841C437.189 277.217 433.448 267.143 427.265 269.568C421.081 271.993 420.48 283.035 420.48 283.035C420.48 283.035 426.353 278.214 429.511 280.647C432.669 283.08 431.936 286.831 430.235 286.239C428.534 285.647 419.333 283.589 419.014 290.534C418.695 297.479 422.858 301.407 422.858 301.407C422.858 301.407 429.398 289.19 434.154 291.417C438.909 293.644 430.226 295.58 426.749 300.091C423.272 304.602 421.045 309.358 424.099 310.993C427.153 312.628 431.317 316.556 431.317 316.556C431.317 316.556 430.49 310.166 434.314 305.203C438.139 300.241 441.296 302.675 437.819 307.186C434.342 311.697 436.072 318.783 436.072 318.783C436.072 318.783 446.316 319.487 453.646 316.508C460.976 313.529 461.014 310.681 458.655 308.144C456.296 305.607 448.139 302.196 450.572 299.038C453.006 295.88 459.275 312.937 462.855 309.224C466.436 305.512 467.516 301.311 465.505 298.323C463.494 295.335 463.494 295.335 463.494 295.335C463.494 295.335 455.336 291.924 452.977 289.387C450.618 286.85 454.02 288.034 457.873 289.565C461.726 291.097 470.091 296.105 470.683 294.404C471.275 292.703 468.54 284.123 466.98 281.482C465.42 278.841 453.541 281.191 452.188 280.148C450.835 279.105 457.263 275.43 459.311 275.571C461.36 275.712 463.86 276.2 463.86 276.2C463.86 276.2 464.038 271.304 457.375 266.887C450.712 262.47 449.49 268.721 449.49 268.721Z" fill="#263238"/>
<path d="M446.374 306.603C444.421 300.128 442.067 290.942 442.216 284.688" stroke="#263238" stroke-miterlimit="10" stroke-linecap="round"/>
<path d="M448.891 314.282C448.891 314.282 448.25 312.525 447.366 309.781" stroke="#263238" stroke-miterlimit="10" stroke-linecap="round"/>
<path d="M444.857 283.128C444.857 283.128 455.796 282.93 464.057 287.14" stroke="#263238" stroke-miterlimit="10" stroke-linecap="round"/>
<path d="M445.196 292.018C445.196 292.018 445.337 289.969 454.359 296.923" stroke="#263238" stroke-miterlimit="10" stroke-linecap="round"/>
<path d="M439.059 282.254C439.059 282.254 438.438 277.461 432.085 275.441" stroke="#263238" stroke-miterlimit="10" stroke-linecap="round"/>
<path d="M440.788 289.34L435.441 288.814" stroke="#263238" stroke-miterlimit="10" stroke-linecap="round"/>
<path d="M441.719 296.53C441.719 296.53 431.992 299.82 428.863 303.88" stroke="#263238" stroke-miterlimit="10" stroke-linecap="round"/>
<path d="M384.611 320.258C384.611 320.258 415.375 340.594 414.854 419.329" stroke="#263238" stroke-width="2" stroke-miterlimit="10" stroke-linecap="round"/>
<path d="M422.542 314.886C422.542 314.886 421.562 323.801 414.554 323.665C407.546 323.529 404.18 311.551 396.816 313.765C389.452 315.98 387.716 328.665 387.716 328.665C387.716 328.665 394.949 323.656 398.363 326.762C401.777 329.869 400.578 334.126 398.671 333.283C396.764 332.439 386.341 329.197 385.318 337.18C384.294 345.164 388.728 350.09 388.728 350.09C388.728 350.09 397.428 336.609 402.705 339.628C407.982 342.647 397.779 344.062 393.341 348.939C388.903 353.816 385.885 359.094 389.255 361.268C392.625 363.443 397.059 368.369 397.059 368.369C397.059 368.369 396.707 360.917 401.589 355.552C406.471 350.187 409.885 353.293 405.447 358.171C401.009 363.048 402.336 371.388 402.336 371.388C402.336 371.388 414.09 373.167 422.829 370.421C431.569 367.675 431.881 364.392 429.398 361.242C426.915 358.092 417.824 353.385 420.931 349.971C424.038 346.557 429.662 366.831 434.144 362.885C438.626 358.939 440.269 354.194 438.23 350.556C436.191 346.918 436.191 346.918 436.191 346.918C436.191 346.918 427.1 342.212 424.617 339.062C422.134 335.912 425.948 337.599 430.25 339.73C434.552 341.861 443.731 348.43 444.574 346.523C445.418 344.616 443.071 334.457 441.52 331.263C439.969 328.069 426.04 329.659 424.577 328.328C423.114 326.997 430.878 323.363 433.229 323.719C435.58 324.075 438.418 324.875 438.418 324.875C438.418 324.875 439.086 319.242 431.814 313.517C424.542 307.79 422.542 314.886 422.542 314.886Z" fill="#92E3A9"/>
<path opacity="0.3" d="M422.542 314.886C422.542 314.886 421.562 323.801 414.554 323.665C407.546 323.529 404.18 311.551 396.816 313.765C389.452 315.98 387.716 328.665 387.716 328.665C387.716 328.665 394.949 323.656 398.363 326.762C401.777 329.869 400.578 334.126 398.671 333.283C396.764 332.439 386.341 329.197 385.318 337.18C384.294 345.164 388.728 350.09 388.728 350.09C388.728 350.09 397.428 336.609 402.705 339.628C407.982 342.647 397.779 344.062 393.341 348.939C388.903 353.816 385.885 359.094 389.255 361.268C392.625 363.443 397.059 368.369 397.059 368.369C397.059 368.369 396.707 360.917 401.589 355.552C406.471 350.187 409.885 353.293 405.447 358.171C401.009 363.048 402.336 371.388 402.336 371.388C402.336 371.388 414.09 373.167 422.829 370.421C431.569 367.675 431.881 364.392 429.398 361.242C426.915 358.092 417.824 353.385 420.931 349.971C424.038 346.557 429.662 366.831 434.144 362.885C438.626 358.939 440.269 354.194 438.23 350.556C436.191 346.918 436.191 346.918 436.191 346.918C436.191 346.918 427.1 342.212 424.617 339.062C422.134 335.912 425.948 337.599 430.25 339.73C434.552 341.861 443.731 348.43 444.574 346.523C445.418 344.616 443.071 334.457 441.52 331.263C439.969 328.069 426.04 329.659 424.577 328.328C423.114 326.997 430.878 323.363 433.229 323.719C435.58 324.075 438.418 324.875 438.418 324.875C438.418 324.875 439.086 319.242 431.814 313.517C424.542 307.79 422.542 314.886 422.542 314.886Z" fill="#263238"/>
<path d="M415.372 358.305C413.729 350.649 411.88 339.827 412.643 332.625" stroke="#263238" stroke-miterlimit="10" stroke-linecap="round"/>
<path d="M417.551 367.403C417.551 367.403 416.978 365.315 416.216 362.065" stroke="#263238" stroke-miterlimit="10" stroke-linecap="round"/>
<path d="M415.837 331.073C415.837 331.073 428.478 331.877 437.613 337.515" stroke="#263238" stroke-miterlimit="10" stroke-linecap="round"/>
<path d="M415.389 341.364C415.389 341.364 415.745 339.013 425.5 347.889" stroke="#263238" stroke-miterlimit="10" stroke-linecap="round"/>
<path d="M409.229 329.518C409.229 329.518 408.965 323.929 401.825 320.998" stroke="#263238" stroke-miterlimit="10" stroke-linecap="round"/>
<path d="M410.556 337.858L404.435 336.746" stroke="#263238" stroke-miterlimit="10" stroke-linecap="round"/>
<path d="M410.951 346.241C410.951 346.241 399.417 349.119 395.423 353.509" stroke="#263238" stroke-miterlimit="10" stroke-linecap="round"/>
<path d="M396.604 382.308C396.604 382.308 416.418 397.429 418.504 419.851L414.333 344.765" stroke="#263238" stroke-width="2" stroke-miterlimit="10" stroke-linecap="round"/>
<path d="M444.576 371.358C418.505 366.665 418.505 419.851 418.505 419.851" stroke="#263238" stroke-width="2" stroke-miterlimit="10" stroke-linecap="round"/>
<path d="M421.633 419.329C421.633 419.329 406.512 309.308 450.312 309.308" stroke="#263238" stroke-width="2" stroke-miterlimit="10" stroke-linecap="round"/>
<path d="M434.641 368.195C431.08 364.189 423.512 364.189 419.061 374.427C414.609 384.666 418.616 382.885 418.616 382.885C418.616 382.885 427.074 380.214 432.416 378.433C437.758 376.652 444.88 372.201 445.326 374.872C445.771 377.543 441.765 380.214 436.868 381.104C431.971 381.994 419.062 385.556 420.397 388.226C421.732 390.897 424.849 398.91 424.849 398.91C424.849 398.91 431.081 393.568 436.868 390.007C442.655 386.446 446.216 387.781 443.1 391.788C439.984 395.795 431.081 400.246 432.861 405.588C434.642 410.93 445.325 417.607 445.325 417.607C445.325 417.607 446.66 406.478 449.777 402.917C452.893 399.356 452.893 403.362 452.003 409.594C451.113 415.826 451.113 417.607 451.113 417.607L463.577 422.059C463.577 422.059 468.029 415.382 470.254 413.156C472.48 410.93 472.48 410.93 472.48 410.93C472.48 410.93 462.686 402.472 462.241 397.13C461.796 391.788 468.918 397.13 471.144 398.02C473.37 398.91 476.931 405.142 476.931 405.142C476.931 405.142 479.157 394.903 479.602 391.342C480.047 387.781 480.047 387.781 480.047 387.781C480.047 387.781 470.699 384.22 467.137 384.22C463.576 384.22 461.795 386.891 461.795 383.33C461.795 379.769 465.356 377.543 469.363 377.988C473.369 378.433 480.047 380.659 480.047 380.659C480.047 380.659 482.718 378.433 481.828 371.756C480.938 365.079 478.712 365.079 473.37 366.859C468.028 368.64 464.467 372.646 460.46 372.646C456.454 372.646 458.679 367.749 461.35 366.414C464.021 365.078 470.698 362.408 472.034 361.962C473.369 361.517 464.911 355.285 460.46 354.394C456.008 353.504 450.245 356.64 450.667 361.071C451.557 370.421 438.202 372.202 434.641 368.195Z" fill="#92E3A9"/>
<path d="M463.297 414.03C463.43 415.371 463.525 416.713 463.576 418.053" stroke="#263238" stroke-miterlimit="10" stroke-linecap="round"/>
<path d="M454.354 382.073C457.48 389.298 461.096 399.261 462.733 409.657" stroke="#263238" stroke-miterlimit="10" stroke-linecap="round"/>
<path d="M452.751 378.5C450.546 373.758 448.886 370.867 448.886 370.867C448.886 370.867 452.892 369.086 454.673 365.525C456.454 361.964 459.125 360.183 459.125 360.183" stroke="#263238" stroke-miterlimit="10" stroke-linecap="round"/>
<path d="M433.306 386.002C433.306 386.002 449.332 379.325 449.332 380.66" stroke="#263238" stroke-miterlimit="10" stroke-linecap="round"/>
<path d="M458.234 377.544C458.234 377.544 465.357 373.983 471.589 373.983" stroke="#263238" stroke-miterlimit="10" stroke-linecap="round"/>
<path d="M455.563 388.227C455.563 388.227 451.557 391.343 447.105 396.685C442.653 402.027 440.873 406.924 440.873 406.924" stroke="#263238" stroke-miterlimit="10" stroke-linecap="round"/>
<path d="M460.46 390.008C460.46 390.008 469.808 387.337 474.705 391.789" stroke="#263238" stroke-miterlimit="10" stroke-linecap="round"/>
<path d="M477.393 329.858C472.547 326.992 467.187 326.929 464.56 323.904C461.934 320.879 467.09 319.349 469.85 320.491C472.609 321.632 479.004 324.924 480.215 325.64C481.427 326.357 480.588 315.884 478.342 311.939C476.096 307.994 469.949 305.697 466.879 308.921C460.404 315.722 450.304 306.804 450.995 301.489C451.686 296.173 446.725 290.459 436.075 293.809C425.425 297.16 429.396 299.018 429.396 299.018C429.396 299.018 436.958 303.654 441.804 306.521C446.651 309.388 454.682 311.848 452.956 313.935C451.231 316.022 446.588 314.748 442.705 311.634C438.822 308.52 427.67 301.106 426.529 303.866C425.387 306.625 421.38 314.231 421.38 314.231C421.38 314.231 429.499 315.435 435.982 317.471C442.465 319.506 443.791 323.071 438.723 323.344C433.655 323.617 424.457 319.813 421.59 324.659C418.724 329.505 420.685 341.951 420.685 341.951C420.685 341.951 429.964 335.664 434.696 335.682C439.428 335.7 436.403 338.327 431.113 341.74C425.823 345.153 424.479 346.321 424.479 346.321L429.289 358.652C429.289 358.652 437.25 357.636 440.39 357.858C443.53 358.08 443.53 358.08 443.53 358.08C443.53 358.08 443.497 345.14 447.239 341.302C450.981 337.464 451.617 346.344 452.403 348.609C453.189 350.874 450.818 357.648 450.818 357.648C450.818 357.648 460.009 352.617 462.99 350.618C465.971 348.619 465.971 348.619 465.971 348.619C465.971 348.619 462.532 339.225 460.197 336.536C457.862 333.847 454.678 334.253 457.367 331.919C460.056 329.585 464.072 330.815 466.362 334.132C468.652 337.449 471.349 343.951 471.349 343.951C471.349 343.951 474.781 344.509 479.239 339.459C483.699 334.405 482.24 332.725 477.393 329.858ZM435.265 344.107C431.704 342.326 440.162 338.765 440.162 338.765C443.278 338.32 438.826 345.888 435.265 344.107ZM441.262 327.488C439.744 326.729 444.298 325.211 444.298 325.211C450.877 326.476 442.78 328.247 441.262 327.488Z" fill="#92E3A9"/>
<path d="M435.171 353.175C434.245 354.154 433.294 355.106 432.316 356.023" stroke="#263238" stroke-miterlimit="10" stroke-linecap="round"/>
<path d="M453.44 325.472C450.033 332.569 444.881 341.83 438.103 349.883" stroke="#263238" stroke-miterlimit="10" stroke-linecap="round"/>
<path d="M455.087 321.919C457.222 317.145 458.317 313.996 458.317 313.996C458.317 313.996 462.288 315.854 466.145 314.864C470.002 313.874 473.097 314.724 473.097 314.724" stroke="#263238" stroke-miterlimit="10" stroke-linecap="round"/>
<path d="M436.674 312.153C436.674 312.153 452.222 319.877 451.214 320.752" stroke="#263238" stroke-miterlimit="10" stroke-linecap="round"/>
<path d="M459.404 325.433C459.404 325.433 466.762 328.477 470.848 333.183" stroke="#263238" stroke-miterlimit="10" stroke-linecap="round"/>
<path d="M449.585 330.42C449.585 330.42 444.605 329.437 437.653 329.578C430.701 329.718 425.836 331.584 425.836 331.584" stroke="#263238" stroke-miterlimit="10" stroke-linecap="round"/>
<path d="M451.451 335.285C451.451 335.285 459.596 340.593 459.445 347.209" stroke="#263238" stroke-miterlimit="10" stroke-linecap="round"/>
<path d="M408.221 391.541C404.321 389.234 400.007 389.184 397.894 386.749C395.78 384.314 399.93 383.084 402.151 384.002C404.371 384.92 409.517 387.569 410.493 388.146C411.468 388.723 410.793 380.295 408.986 377.12C407.179 373.945 402.232 372.097 399.762 374.691C394.551 380.164 386.423 372.988 386.979 368.71C387.535 364.432 383.543 359.833 374.972 362.53C366.402 365.226 369.597 366.722 369.597 366.722C369.597 366.722 375.682 370.453 379.583 372.76C383.483 375.067 389.946 377.047 388.558 378.726C387.17 380.406 383.433 379.38 380.309 376.874C377.185 374.368 368.21 368.402 367.291 370.622C366.372 372.843 363.147 378.964 363.147 378.964C363.147 378.964 369.681 379.933 374.898 381.571C380.115 383.209 381.182 386.078 377.104 386.298C373.025 386.518 365.623 383.456 363.316 387.356C361.009 391.256 362.588 401.272 362.588 401.272C362.588 401.272 370.055 396.212 373.864 396.227C377.672 396.242 375.237 398.355 370.98 401.102C366.723 403.849 365.641 404.788 365.641 404.788L369.512 414.711C369.512 414.711 375.918 413.893 378.445 414.072C380.972 414.25 380.972 414.25 380.972 414.25C380.972 414.25 380.945 403.836 383.956 400.748C386.967 397.659 387.479 404.806 388.112 406.628C388.745 408.45 386.837 413.902 386.837 413.902C386.837 413.902 394.233 409.853 396.632 408.245C399.031 406.637 399.031 406.637 399.031 406.637C399.031 406.637 396.263 399.077 394.384 396.913C392.505 394.749 389.943 395.076 392.107 393.197C394.271 391.318 397.503 392.308 399.346 394.978C401.189 397.648 403.359 402.88 403.359 402.88C403.359 402.88 406.121 403.329 409.709 399.265C413.296 395.2 412.121 393.847 408.221 391.541ZM374.318 403.007C371.452 401.574 378.259 398.708 378.259 398.708C380.767 398.35 377.184 404.44 374.318 403.007ZM379.144 389.633C377.922 389.022 381.587 387.801 381.587 387.801C386.882 388.819 380.366 390.244 379.144 389.633Z" fill="#92E3A9"/>
<path d="M374.242 410.305C373.497 411.093 372.731 411.859 371.944 412.597" stroke="#263238" stroke-miterlimit="10" stroke-linecap="round"/>
<path d="M388.944 388.011C386.202 393.722 382.056 401.175 376.602 407.656" stroke="#263238" stroke-miterlimit="10" stroke-linecap="round"/>
<path d="M390.27 385.152C391.989 381.31 392.87 378.776 392.87 378.776C392.87 378.776 396.066 380.271 399.169 379.475C402.273 378.678 404.764 379.362 404.764 379.362" stroke="#263238" stroke-miterlimit="10" stroke-linecap="round"/>
<path d="M375.452 377.292C375.452 377.292 387.964 383.508 387.153 384.213" stroke="#263238" stroke-miterlimit="10" stroke-linecap="round"/>
<path d="M393.744 387.979C393.744 387.979 399.666 390.428 402.954 394.216" stroke="#263238" stroke-miterlimit="10" stroke-linecap="round"/>
<path d="M385.842 391.993C385.842 391.993 381.835 391.202 376.24 391.315C370.645 391.428 366.73 392.929 366.73 392.929" stroke="#263238" stroke-miterlimit="10" stroke-linecap="round"/>
<path d="M387.343 395.908C387.343 395.908 393.898 400.18 393.776 405.504" stroke="#263238" stroke-miterlimit="10" stroke-linecap="round"/>
<path d="M392.317 318.031C392.317 318.031 387.42 321.592 384.304 318.031C381.188 314.47 385.64 307.347 381.188 304.676C376.736 302.005 369.614 306.902 369.614 306.902C369.614 306.902 375.401 308.237 375.401 311.354C375.401 314.47 372.73 315.806 372.285 314.47C371.84 313.134 368.724 306.457 364.272 309.573C359.82 312.689 359.375 317.141 359.375 317.141C359.375 317.141 370.059 315.36 370.949 319.367C371.839 323.374 366.497 318.922 362.046 318.922C357.594 318.922 353.588 319.812 354.033 322.483C354.478 325.154 354.033 329.606 354.033 329.606C354.033 329.606 357.594 326.045 362.491 326.045C367.388 326.045 367.388 329.161 362.936 329.161C358.484 329.161 354.923 333.613 354.923 333.613C354.923 333.613 359.375 340.29 364.716 343.406C370.058 346.522 371.838 345.187 372.284 342.516C372.729 339.845 370.948 333.168 374.065 333.168C377.181 333.168 369.613 345.187 373.62 345.632C377.626 346.077 380.742 344.742 381.633 342.071C382.523 339.4 382.523 339.4 382.523 339.4C382.523 339.4 380.742 332.723 381.188 330.052C381.633 327.381 382.523 330.052 383.414 333.168C384.304 336.284 385.195 343.852 386.53 343.406C387.865 342.961 391.872 337.174 392.762 334.948C393.652 332.722 386.53 326.49 386.53 325.154C386.53 323.819 391.872 326.044 392.762 327.38C393.652 328.716 394.543 330.496 394.543 330.496C394.543 330.496 397.659 328.27 397.214 322.038C396.769 315.806 392.317 318.031 392.317 318.031Z" fill="#92E3A9"/>
<path d="M367.38 334.177C370.457 329.879 375.02 324.038 378.963 321.147" stroke="#263238" stroke-miterlimit="10" stroke-linecap="round"/>
<path d="M363.827 339.399C363.827 339.399 364.609 338.164 365.886 336.307" stroke="#263238" stroke-miterlimit="10" stroke-linecap="round"/>
<path d="M381.188 322.038C381.188 322.038 386.53 328.715 387.865 335.838" stroke="#263238" stroke-miterlimit="10" stroke-linecap="round"/>
<path d="M375.846 326.489C375.846 326.489 377.182 325.599 377.182 334.502" stroke="#263238" stroke-miterlimit="10" stroke-linecap="round"/>
<path d="M378.963 318.031C378.963 318.031 381.634 315.36 379.853 310.463" stroke="#263238" stroke-miterlimit="10" stroke-linecap="round"/>
<path d="M375.401 322.483L373.176 318.922" stroke="#263238" stroke-miterlimit="10" stroke-linecap="round"/>
<path d="M371.395 326.489C371.395 326.489 364.718 322.037 360.711 322.037" stroke="#263238" stroke-miterlimit="10" stroke-linecap="round"/>
<path d="M437.275 417.765H402.861V467.3H437.275V417.765Z" fill="#263238" stroke="#263238" stroke-width="2" stroke-miterlimit="10" stroke-linecap="round"/>
<path d="M128.969 449.737H75.66V454.501H128.969V449.737Z" fill="white" stroke="#263238" stroke-miterlimit="10" stroke-linecap="round"/>
<path d="M128.969 426.145H75.66V430.909H128.969V426.145Z" fill="white" stroke="#263238" stroke-miterlimit="10" stroke-linecap="round"/>
<path d="M75.2059 470.204C73.5489 470.204 72.2059 468.861 72.2059 467.204V425.476C72.2059 408.624 82.8829 393.949 98.7739 388.955C100.878 388.294 102.224 388.054 102.37 388.028C103.999 387.743 105.555 388.841 105.836 390.473C106.118 392.104 105.026 393.654 103.398 393.939C103.387 393.941 102.295 394.137 100.572 394.679C87.1939 398.882 78.2059 411.258 78.2059 425.475V467.203C78.2059 468.861 76.8629 470.204 75.2059 470.204Z" fill="white" stroke="#263238" stroke-miterlimit="10" stroke-linecap="round"/>
<path d="M130.783 470.204C129.126 470.204 127.783 468.861 127.783 467.204V425.476C127.783 411.259 118.795 398.883 105.416 394.68C103.693 394.138 102.601 393.942 102.59 393.94C100.961 393.651 99.8709 392.097 100.156 390.468C100.441 388.839 101.991 387.744 103.617 388.029C103.764 388.054 105.109 388.295 107.213 388.956C123.105 393.949 133.781 408.625 133.781 425.477V467.205C133.783 468.861 132.44 470.204 130.783 470.204Z" fill="white" stroke="#263238" stroke-miterlimit="10" stroke-linecap="round"/>
<path d="M104.863 430.14H103.098C101.388 430.14 100.001 428.753 100.001 427.043V361.655H107.96V427.043C107.96 428.753 106.574 430.14 104.863 430.14Z" fill="white" stroke="#263238" stroke-miterlimit="10" stroke-linecap="round"/>
<path d="M123.917 358.508C118.14 357.745 111.443 357.307 104.294 357.307C97.145 357.307 90.448 357.746 84.671 358.508H64.96V366.307C64.96 371.278 82.57 375.307 104.293 375.307C126.016 375.307 143.626 371.278 143.626 366.307V358.508H123.917Z" fill="#878787" stroke="#263238" stroke-miterlimit="10" stroke-linecap="round"/>
<path d="M104.294 367.508C126.017 367.508 143.627 363.479 143.627 358.508C143.627 353.537 126.017 349.508 104.294 349.508C82.5709 349.508 64.9609 353.537 64.9609 358.508C64.9609 363.479 82.5709 367.508 104.294 367.508Z" fill="#263238" stroke="#263238" stroke-miterlimit="10" stroke-linecap="round"/>
<path d="M88.296 364.256C88.296 364.256 96.657 361.655 100.001 361.655C103.345 361.655 111.892 361.283 115.794 361.469C119.696 361.655 120.253 361.841 125.642 361.841C131.03 361.841 135.861 358.682 140.692 353.294C145.523 347.906 146.638 337.687 144.78 332.484C142.922 327.282 141.807 322.822 138.463 320.407C135.119 317.992 117.653 316.319 104.833 317.063C92.013 317.806 81.422 320.036 74.548 322.823C67.673 325.61 66.001 329.326 66.373 331.927C66.745 334.528 70.461 350.321 72.876 355.71C75.291 361.098 79.379 363.142 80.308 363.142C81.235 363.141 88.296 364.256 88.296 364.256Z" fill="white" stroke="#263238" stroke-miterlimit="10" stroke-linecap="round"/>
<path d="M112.078 350.878C112.078 350.878 115.422 337.129 124.155 332.855" stroke="#263238" stroke-miterlimit="10" stroke-linecap="round"/>
<path d="M86.252 330.812C86.252 330.812 93.498 334.528 94.799 342.703" stroke="#263238" stroke-miterlimit="10" stroke-linecap="round"/>
<path d="M100.744 320.035L101.674 326.724" stroke="#263238" stroke-miterlimit="10" stroke-linecap="round"/>
<path d="M106.318 325.795L105.204 319.664" stroke="#263238" stroke-miterlimit="10" stroke-linecap="round"/>
<path d="M95.62 209.309C95.62 209.309 97.125 215.999 95.453 218.006C93.78 220.013 82.742 225.198 75.049 229.212C67.356 233.226 55.314 237.24 52.136 245.1C48.958 252.961 49.962 273.699 49.962 279.218C49.962 284.737 54.31 310.66 56.986 311.998C59.662 313.336 66.519 312.5 66.519 312.5C66.519 312.5 66.352 315.51 64.847 321.364C63.342 327.218 63.174 328.89 64.68 329.225C66.185 329.559 65.851 328.89 76.554 325.88C87.258 322.87 100.805 318.688 112.345 320.194C123.885 321.699 134.589 324.208 137.432 324.208C140.275 324.208 142.449 325.044 142.449 319.358C142.449 313.672 139.773 305.477 141.278 300.961C142.783 296.445 150.978 268.013 150.978 268.013C161.005 254.835 154.481 293.697 157.668 248.445C158.504 236.57 153.654 231.219 146.295 228.375C138.936 225.532 126.225 222.521 122.379 220.013C118.532 217.504 119.87 211.149 119.87 211.149L95.62 209.309Z" fill="#92E3A9" stroke="#263238" stroke-miterlimit="10" stroke-linecap="round"/>
<path d="M115.511 315.009C114.106 315.155 113.349 315.01 113.349 315.01" stroke="#263238" stroke-miterlimit="10" stroke-linecap="round"/>
<path d="M139.606 288.919C139.606 288.919 132.08 307.149 124.888 311.497C122.226 313.107 119.953 314.006 118.146 314.5" stroke="#263238" stroke-miterlimit="10" stroke-linecap="round"/>
<path d="M68.937 286.893C68.937 286.893 68.254 260.415 62.958 246.407" stroke="#263238" stroke-miterlimit="10" stroke-linecap="round"/>
<path d="M58.591 252.606C60.656 259.029 63.689 267.339 66.374 270.323" stroke="#263238" stroke-miterlimit="10" stroke-linecap="round"/>
<path d="M56.125 244.357C56.125 244.357 56.534 245.869 57.222 248.179" stroke="#263238" stroke-miterlimit="10" stroke-linecap="round"/>
<path d="M56.133 269.971C59.331 274.121 64.018 278.962 68.424 278.864" stroke="#263238" stroke-miterlimit="10" stroke-linecap="round"/>
<path d="M52.196 264.173C52.196 264.173 53.038 265.639 54.432 267.644" stroke="#263238" stroke-miterlimit="10" stroke-linecap="round"/>
<path d="M86.54 307.773C89.168 305.941 91.376 304.256 92.169 303.463" stroke="#263238" stroke-miterlimit="10" stroke-linecap="round"/>
<path d="M72.3529 312.859C72.3529 312.859 71.4989 314.567 74.0609 314.738C75.4669 314.832 80.112 312.097 84.386 309.243" stroke="#263238" stroke-miterlimit="10" stroke-linecap="round"/>
<path d="M126.79 222.009C124.905 221.319 123.355 220.65 122.379 220.013C118.532 217.504 119.87 211.149 119.87 211.149L95.619 209.309C95.619 209.309 97.124 215.999 95.452 218.006C94.952 218.606 93.606 219.492 91.774 220.543C93.548 225.043 102.136 245.846 108.999 245.1C115.044 244.443 123.458 228.723 126.79 222.009Z" fill="#D9D9D9" stroke="#263238" stroke-miterlimit="10" stroke-linecap="round"/>
<path d="M119.871 211.149L95.62 209.309C95.62 209.309 96.441 212.968 96.192 215.687C99.274 219.231 104.907 225.516 106.838 226.408C109.549 227.659 111.635 226.408 112.052 225.782C112.334 225.359 117.574 221.217 120.938 218.58C118.933 215.659 119.871 211.149 119.871 211.149Z" fill="#263238"/>
<path d="M90.6029 186.564C90.6029 186.564 89.098 184.39 87.927 186.564C86.756 188.738 87.927 193.421 89.432 196.264C90.937 199.107 91.941 200.445 91.941 200.445L91.439 186.898L90.6029 186.564Z" fill="#D9D9D9" stroke="#263238" stroke-miterlimit="10" stroke-linecap="round"/>
<path d="M128.066 187.4C128.066 187.4 128.568 184.39 130.742 186.229C132.916 188.069 129.906 195.093 129.404 196.431C128.902 197.769 127.063 199.441 127.063 199.441V189.406L128.066 187.4Z" fill="#D9D9D9" stroke="#263238" stroke-miterlimit="10" stroke-linecap="round"/>
<path d="M91.1049 189.407C91.1049 189.407 91.4399 205.63 92.1089 206.801C92.7779 207.972 101.475 219.177 103.649 221.352C105.823 223.526 109.503 223.359 112.011 222.69C114.52 222.021 124.722 210.314 125.558 207.805C126.394 205.296 127.398 187.903 127.398 187.903C127.398 187.903 128.234 172.015 127.398 169.673C126.562 167.332 98.7989 168.335 96.1229 169.004C93.4469 169.673 92.4439 172.684 92.7779 175.192C93.1129 177.701 90.1019 182.216 90.1019 182.216L91.1049 189.407Z" fill="#D9D9D9" stroke="#263238" stroke-miterlimit="10" stroke-linecap="round"/>
<path d="M96.1219 172.683C96.1219 172.683 95.9549 179.373 94.7839 182.216C93.6129 185.059 91.6059 184.892 91.6059 184.892L91.1039 191.247L89.0969 183.554C89.0969 183.554 88.7619 166.997 89.4309 163.317C90.0999 159.637 96.7899 158.969 96.7899 158.969C96.7899 158.969 90.9359 155.959 94.2809 153.952C97.6259 151.945 107.159 154.454 107.159 154.454C107.159 154.454 105.821 151.109 111.842 151.109C117.863 151.109 123.716 156.461 125.724 158.97C127.731 161.479 128.065 162.649 128.065 162.649C128.065 162.649 128.901 157.297 130.741 161.311C132.581 165.325 132.581 169.506 131.912 174.523C131.243 179.54 128.901 183.889 128.901 183.889L126.727 193.589L125.556 184.725C125.556 184.725 122.88 183.22 121.877 180.209C120.873 177.199 120.539 173.519 120.539 173.519C120.539 173.519 115.354 178.871 108.163 178.035C100.972 177.198 96.1219 172.683 96.1219 172.683Z" fill="#263238" stroke="#263238" stroke-miterlimit="10" stroke-linecap="round"/>
<path d="M112.847 190.912C112.847 190.912 113.349 205.128 111.676 206.131C110.003 207.134 107.16 203.455 107.16 203.455" stroke="#263238" stroke-miterlimit="10" stroke-linecap="round"/>
<path d="M102.979 208.808C102.979 208.808 108.833 212.153 116.192 208.808" stroke="#263238" stroke-miterlimit="10" stroke-linecap="round"/>
<path d="M114.519 195.895C114.519 195.895 117.037 198.283 121.878 196.329" stroke="#263238" stroke-miterlimit="10" stroke-linecap="round"/>
<path d="M114.017 190.578C114.017 190.578 117.362 187.066 123.885 189.407" stroke="#263238" stroke-width="2" stroke-miterlimit="10" stroke-linecap="round"/>
<path d="M104.317 195.094C104.317 195.094 101.307 197.77 96.9579 195.596" stroke="#263238" stroke-miterlimit="10" stroke-linecap="round"/>
<path d="M106.324 190.076C106.324 190.076 100.638 186.229 96.4559 188.403" stroke="#263238" stroke-width="2" stroke-miterlimit="10" stroke-linecap="round"/>
<path d="M83.442 256.461L87.926 286.739C88.021 287.404 88.61 287.885 89.28 287.846L103.761 286.994C104.512 286.95 105.066 286.276 104.965 285.531L100.637 254.968C100.545 254.29 99.94 253.801 99.257 253.854L84.62 254.991C83.877 255.048 83.337 255.722 83.442 256.461Z" fill="#263238" stroke="#263238" stroke-miterlimit="10" stroke-linecap="round"/>
<path d="M51.057 288.702C51.057 288.702 51.467 306.814 52.638 312.835C53.809 318.856 58.157 321.197 63.676 315.845C69.195 310.493 83.244 291.929 83.244 291.929C83.244 291.929 90.77 289.922 93.948 288.919C97.126 287.915 101.474 282.229 101.474 282.229C101.474 282.229 104.484 280.556 104.652 279.219C104.819 277.881 103.314 277.379 103.314 277.379C103.314 277.379 105.823 277.044 105.823 275.874C105.823 274.703 100.638 273.198 98.799 273.198C96.959 273.198 92.778 273.198 92.778 273.198C92.778 273.198 97.294 271.86 99.468 271.693C101.642 271.526 104.82 271.86 104.318 270.689C103.816 269.518 101.642 269.017 98.464 268.348C95.286 267.679 86.088 270.689 84.75 271.86C83.412 273.031 78.227 284.571 78.227 284.571L54.813 291.428" fill="#92E3A9"/>
<path d="M51.057 288.702C51.057 288.702 51.467 306.814 52.638 312.835C53.809 318.856 58.157 321.197 63.676 315.845C69.195 310.493 83.244 291.929 83.244 291.929C83.244 291.929 90.77 289.922 93.948 288.919C97.126 287.915 101.474 282.229 101.474 282.229C101.474 282.229 104.484 280.556 104.652 279.219C104.819 277.881 103.314 277.379 103.314 277.379C103.314 277.379 105.823 277.044 105.823 275.874C105.823 274.703 100.638 273.198 98.799 273.198C96.959 273.198 92.778 273.198 92.778 273.198C92.778 273.198 97.294 271.86 99.468 271.693C101.642 271.526 104.82 271.86 104.318 270.689C103.816 269.518 101.642 269.017 98.464 268.348C95.286 267.679 86.088 270.689 84.75 271.86C83.412 273.031 78.227 284.571 78.227 284.571L54.813 291.428" stroke="#263238" stroke-miterlimit="10" stroke-linecap="round"/>
<path d="M104.652 279.219C104.819 277.881 103.314 277.379 103.314 277.379C103.314 277.379 105.823 277.045 105.823 275.874C105.823 274.703 100.638 273.198 98.799 273.198C96.959 273.198 92.778 273.198 92.778 273.198C92.778 273.198 97.294 271.86 99.468 271.693C101.642 271.526 104.82 271.86 104.318 270.689C103.816 269.518 101.642 269.017 98.464 268.348C95.286 267.679 86.088 270.689 84.75 271.86C83.412 273.031 78.227 284.571 78.227 284.571L64.355 288.634C63.015 291.323 61.943 295.027 63.342 298.787C65.142 303.625 68.533 305.505 72.137 306.119C77.651 299.32 83.244 291.929 83.244 291.929C83.244 291.929 90.77 289.922 93.948 288.919C97.126 287.915 101.474 282.229 101.474 282.229C101.474 282.229 104.484 280.556 104.652 279.219Z" fill="#D9D9D9" stroke="#263238" stroke-miterlimit="10" stroke-linecap="round"/>
<path d="M89.934 278.55C89.934 278.55 94.951 276.71 103.314 277.379" stroke="#263238" stroke-miterlimit="10" stroke-linecap="round"/>
<path d="M91.439 283.567C91.439 283.567 92.108 283.065 101.474 282.229" stroke="#263238" stroke-miterlimit="10" stroke-linecap="round"/>
<path d="M61.468 450.945C61.468 450.945 59.585 457.851 55.347 462.246C51.109 466.641 44.36 472.291 44.988 477.628C45.616 482.965 53.15 484.848 59.271 483.435C65.392 482.022 67.59 477.784 70.258 473.547C72.926 469.309 75.281 465.542 79.362 461.932C83.443 458.322 82.815 456.909 81.245 452.671C79.675 448.433 79.047 446.864 79.047 446.864C79.047 446.864 65.706 453.3 61.468 450.945Z" fill="#92E3A9" stroke="#263238" stroke-miterlimit="10" stroke-linecap="round"/>
<path d="M79.361 461.932C82.859 458.837 82.894 457.353 81.845 454.323C77.617 457.118 74.355 464.296 71.356 469.152C68.06 474.489 64.45 481.395 55.817 482.18C49.953 482.713 46.556 479.483 44.978 477.354C44.984 477.445 44.976 477.537 44.987 477.628C45.615 482.965 53.149 484.848 59.27 483.435C65.391 482.022 67.589 477.784 70.257 473.547C72.926 469.309 75.28 465.542 79.361 461.932Z" fill="white" stroke="#263238" stroke-miterlimit="10" stroke-linecap="round"/>
<path d="M88.667 335.271C88.667 335.271 75.289 325.238 62.098 328.396C48.907 331.554 38.13 350.135 39.988 356.266C41.846 362.397 47.977 396.771 51.693 406.246C55.409 415.722 60.054 445.636 60.054 445.636C60.054 445.636 59.497 445.636 59.311 447.308C59.125 448.98 59.868 452.139 60.426 452.696C60.984 453.253 64.514 454.182 67.858 454.182C71.202 454.182 78.635 452.138 79.749 450.838C80.863 449.538 81.05 448.423 81.05 447.308C81.05 446.193 80.121 443.035 79.564 441.734C79.007 440.433 78.263 434.116 78.263 433.559C78.263 433.002 77.148 415.722 77.334 410.334C77.52 404.946 80.864 385.994 77.52 378.376C74.176 370.758 71.946 359.424 71.946 359.424C71.946 359.424 75.848 364.626 83.652 364.255C91.456 363.883 99.259 361.096 99.259 361.096L104.647 360.91" fill="white"/>
<path d="M88.667 335.271C88.667 335.271 75.289 325.238 62.098 328.396C48.907 331.554 38.13 350.135 39.988 356.266C41.846 362.397 47.977 396.771 51.693 406.246C55.409 415.722 60.054 445.636 60.054 445.636C60.054 445.636 59.497 445.636 59.311 447.308C59.125 448.98 59.868 452.139 60.426 452.696C60.984 453.253 64.514 454.182 67.858 454.182C71.202 454.182 78.635 452.138 79.749 450.838C80.863 449.538 81.05 448.423 81.05 447.308C81.05 446.193 80.121 443.035 79.564 441.734C79.007 440.433 78.263 434.116 78.263 433.559C78.263 433.002 77.148 415.722 77.334 410.334C77.52 404.946 80.864 385.994 77.52 378.376C74.176 370.758 71.946 359.424 71.946 359.424C71.946 359.424 75.848 364.626 83.652 364.255C91.456 363.883 99.259 361.096 99.259 361.096L104.647 360.91" stroke="#263238" stroke-miterlimit="10" stroke-linecap="round"/>
<path d="M136.715 446.707C136.715 446.707 138.598 453.613 142.836 458.008C147.074 462.403 153.823 468.053 153.195 473.39C152.567 478.727 145.033 480.61 138.912 479.198C132.791 477.785 130.593 473.547 127.925 469.31C125.257 465.072 122.902 461.305 118.821 457.695C114.74 454.085 115.368 452.672 116.938 448.434C118.507 444.196 119.135 442.627 119.135 442.627C119.135 442.627 132.478 449.062 136.715 446.707Z" fill="#92E3A9" stroke="#263238" stroke-miterlimit="10" stroke-linecap="round"/>
<path d="M118.822 457.694C115.324 454.599 115.289 453.115 116.338 450.086C120.566 452.881 123.828 460.059 126.827 464.915C130.123 470.252 133.733 477.158 142.366 477.943C148.23 478.476 151.627 475.246 153.206 473.117C153.199 473.208 153.207 473.3 153.197 473.391C152.569 478.728 145.035 480.611 138.914 479.199C132.793 477.786 130.595 473.548 127.927 469.31C125.257 465.071 122.903 461.305 118.822 457.694Z" fill="white" stroke="#263238" stroke-miterlimit="10" stroke-linecap="round"/>
<path d="M122.483 336.757C122.483 336.757 139.205 322.45 154.812 328.396C167.488 333.225 182.125 351.993 180.267 358.124C178.409 364.255 165.435 400.708 159.133 408.701C152.831 416.694 139.719 443.979 139.719 443.979C139.719 443.979 140.253 444.14 139.946 445.795C139.639 447.449 138.013 450.257 137.318 450.629C136.623 451.001 132.975 450.867 129.774 449.899C126.573 448.93 120.052 444.821 119.362 443.253C118.672 441.685 118.817 440.564 119.14 439.497C119.463 438.43 121.267 435.676 122.178 434.593C123.088 433.51 125.63 427.679 125.791 427.145C125.952 426.612 129.833 408.856 131.217 403.645C132.6 398.434 131.96 386.923 135.305 379.305C138.649 371.687 144.967 359.424 144.967 359.424C144.967 359.424 141.065 364.626 133.261 364.255C125.457 363.883 117.654 361.096 117.654 361.096L112.266 360.91" fill="white"/>
<path d="M122.483 336.757C122.483 336.757 139.205 322.45 154.812 328.396C167.488 333.225 182.125 351.993 180.267 358.124C178.409 364.255 165.435 400.708 159.133 408.701C152.831 416.694 139.719 443.979 139.719 443.979C139.719 443.979 140.253 444.14 139.946 445.795C139.639 447.449 138.013 450.257 137.318 450.629C136.623 451.001 132.975 450.867 129.774 449.899C126.573 448.93 120.052 444.821 119.362 443.253C118.672 441.685 118.817 440.564 119.14 439.497C119.463 438.43 121.267 435.676 122.178 434.593C123.088 433.51 125.63 427.679 125.791 427.145C125.952 426.612 129.833 408.856 131.217 403.645C132.6 398.434 131.96 386.923 135.305 379.305C138.649 371.687 144.967 359.424 144.967 359.424C144.967 359.424 141.065 364.626 133.261 364.255C125.457 363.883 117.654 361.096 117.654 361.096L112.266 360.91" stroke="#263238" stroke-miterlimit="10" stroke-linecap="round"/>
<path d="M148.805 265.672C148.805 265.672 162.117 278.728 163.622 279.731C165.127 280.735 163.12 281.404 164.458 282.741C165.796 284.079 167.803 285.919 167.803 285.919C167.803 285.919 167.134 287.424 167.803 288.762C168.472 290.1 171.817 290.602 171.817 290.602L155.997 320.863C155.997 320.863 143.788 321.866 140.945 321.866C138.102 321.866 135.593 326.883 135.593 328.054C135.593 329.225 133.586 336.584 134.255 336.584C134.924 336.584 134.422 337.922 135.091 338.256C135.76 338.591 137.098 338.089 137.098 338.089C137.098 338.089 138.101 338.089 138.603 338.089C139.105 338.089 139.774 338.089 139.774 338.089C139.774 338.089 141.112 338.424 141.948 337.587C142.784 336.751 146.631 330.228 146.631 330.228C146.631 330.228 154.993 331.399 157.669 331.399C160.345 331.399 162.686 325.044 162.686 324.542C162.686 324.04 187.37 302.643 190.381 297.124C193.391 291.605 194.729 283.744 191.719 278.058C188.709 272.372 176.902 257.476 175.564 254.967C174.226 252.458 164.693 236.57 156.832 232.389C148.971 228.208 143.118 227.873 143.118 227.873" fill="#92E3A9"/>
<path d="M148.805 265.672C148.805 265.672 162.117 278.728 163.622 279.731C165.127 280.735 163.12 281.404 164.458 282.741C165.796 284.079 167.803 285.919 167.803 285.919C167.803 285.919 167.134 287.424 167.803 288.762C168.472 290.1 171.817 290.602 171.817 290.602L155.997 320.863C155.997 320.863 143.788 321.866 140.945 321.866C138.102 321.866 135.593 326.883 135.593 328.054C135.593 329.225 133.586 336.584 134.255 336.584C134.924 336.584 134.422 337.922 135.091 338.256C135.76 338.591 137.098 338.089 137.098 338.089C137.098 338.089 138.101 338.089 138.603 338.089C139.105 338.089 139.774 338.089 139.774 338.089C139.774 338.089 141.112 338.424 141.948 337.587C142.784 336.751 146.631 330.228 146.631 330.228C146.631 330.228 154.993 331.399 157.669 331.399C160.345 331.399 162.686 325.044 162.686 324.542C162.686 324.04 187.37 302.643 190.381 297.124C193.391 291.605 194.729 283.744 191.719 278.058C188.709 272.372 176.902 257.476 175.564 254.967C174.226 252.458 164.693 236.57 156.832 232.389C148.971 228.208 143.118 227.873 143.118 227.873" stroke="#263238" stroke-miterlimit="10" stroke-linecap="round"/>
<path d="M171.817 289.933C171.817 289.933 175.496 282.407 183.19 280.902" stroke="#263238" stroke-miterlimit="10" stroke-linecap="round"/>
<path d="M178.297 278.189C175.963 279.572 173.134 281.638 171.482 284.247" stroke="#263238" stroke-miterlimit="10" stroke-linecap="round"/>
<path d="M182.186 276.219C182.186 276.219 181.431 276.521 180.299 277.093" stroke="#263238" stroke-miterlimit="10" stroke-linecap="round"/>
<path d="M171.482 278.895C171.482 278.895 168.472 282.073 168.472 285.25" stroke="#263238" stroke-miterlimit="10" stroke-linecap="round"/>
<path d="M168.969 295.51L155.996 320.863C155.996 320.863 143.787 321.866 140.944 321.866C138.101 321.866 135.592 326.883 135.592 328.054C135.592 329.225 133.585 336.584 134.254 336.584C134.923 336.584 134.421 337.922 135.09 338.256C135.759 338.591 137.097 338.089 137.097 338.089C137.097 338.089 138.1 338.089 138.602 338.089C139.104 338.089 139.773 338.089 139.773 338.089C139.773 338.089 141.111 338.424 141.947 337.587C142.783 336.751 146.63 330.228 146.63 330.228C146.63 330.228 154.992 331.399 157.668 331.399C160.344 331.399 162.685 325.044 162.685 324.542C162.685 324.118 181.903 308.198 188.42 299.157C181.328 290.437 172.425 293.94 168.969 295.51Z" fill="#D9D9D9" stroke="#263238" stroke-miterlimit="10" stroke-linecap="round"/>
<path d="M134.254 336.584C134.254 336.584 137.766 326.382 139.439 324.709" stroke="#263238" stroke-miterlimit="10" stroke-linecap="round"/>
<path d="M137.098 338.089C137.098 338.089 140.276 328.389 142.115 325.88" stroke="#263238" stroke-miterlimit="10" stroke-linecap="round"/>
<path d="M139.773 338.089C139.773 338.089 143.118 329.392 144.456 327.72" stroke="#263238" stroke-miterlimit="10" stroke-linecap="round"/>
</svg>
