<svg width="688" height="688" viewBox="0 0 688 688" fill="none" xmlns="http://www.w3.org/2000/svg">
<g clip-path="url(#clip0_55_10924)">
<path d="M627.371 330.359C624.03 385.144 602.768 449.828 554.788 481.709C482.295 529.889 492.401 597.097 347.707 634.766C325.148 640.641 303.601 643.796 283.159 644.574C272.17 644.993 261.495 644.71 251.161 643.782C157.372 635.468 91.1083 574.359 63.7183 497.611C27.677 396.675 84.2137 326.052 121.918 283.294C159.623 240.537 181.767 112.716 323.72 74.5668C345.365 68.7594 367.632 65.1605 390.057 64.4497C441.239 62.8061 497.94 76.4301 538.501 109.273C541.547 111.741 544.518 114.31 547.423 116.967C604.159 168.96 631.931 255.669 627.371 330.359Z" fill="#92E3A9"/>
<path opacity="0.7" d="M627.371 330.359C624.03 385.144 602.768 449.828 554.788 481.709C482.295 529.889 492.401 597.097 347.707 634.766C325.148 640.641 303.601 643.796 283.159 644.574C272.17 644.993 261.495 644.71 251.161 643.782C157.372 635.468 91.1083 574.359 63.7183 497.611C27.677 396.675 84.2137 326.052 121.918 283.294C159.623 240.537 181.767 112.716 323.72 74.5668C345.365 68.7594 367.632 65.1605 390.057 64.4497C441.239 62.8061 497.94 76.4301 538.501 109.273C541.547 111.741 544.518 114.31 547.423 116.967C604.159 168.96 631.931 255.669 627.371 330.359Z" fill="white"/>
<path d="M47.886 661.779L677.58 626.084" stroke="#263238" stroke-miterlimit="10"/>
<g opacity="0.15">
<path d="M287.172 332.932C282.323 338.276 267.42 344.568 267.407 344.573C267.253 344.638 266.242 333.49 266.26 332.78C266.454 324.554 271.672 308.775 280.507 306.16C286.872 304.276 292.906 308.784 294.089 315.042C295.296 321.435 291.301 328.379 287.172 332.932Z" fill="black"/>
<path d="M289.572 538.227C289.664 538.592 289.754 538.93 289.846 539.291L285.313 543.967C284.965 542.513 284.616 541.036 284.266 539.51C283.262 535.193 282.277 530.559 281.311 525.789C280.153 525.84 273.567 526.088 267.389 525.546C265.179 532.138 256.603 542.54 255.487 543.874C258.643 546.89 261.744 549.793 264.713 552.485C266.752 554.342 268.727 556.11 270.639 557.8L265.06 560.305C263.729 559.066 262.382 557.804 260.993 556.483C257.775 553.434 254.394 550.112 250.959 546.67C249.526 547.711 237.769 556.147 231.128 557.494C225.106 558.713 217.093 558.594 212.216 554.288C207.443 550.072 206.657 542.581 211.533 538.075C218.298 531.82 234.525 535.408 241.693 539.447C242.116 539.684 246.415 542.783 249.096 544.781C247.7 543.367 246.328 542.008 244.907 540.535C242.078 537.64 239.341 534.667 236.386 531.479C235.012 529.89 233.624 528.284 232.223 526.663C230.799 525.084 229.496 523.237 228.112 521.514C224.983 517.449 222.014 513.181 219.118 508.813C216.576 511.281 207.426 519.924 201.63 522.052C195.861 524.171 187.924 525.267 182.453 521.747C177.096 518.302 175.184 511.017 179.32 505.825C185.061 498.617 201.643 499.707 209.341 502.612C209.822 502.792 215.111 505.499 217.985 507.04C216.264 504.402 214.534 501.777 212.88 499.049C208.103 491.18 203.513 483.065 198.897 474.989C197.484 472.515 196.047 470.068 194.618 467.611C193.722 468.5 183.07 479.007 176.578 481.39C170.81 483.51 162.871 484.606 157.4 481.085C152.043 477.641 150.131 470.356 154.268 465.164C160.009 457.955 176.59 459.045 184.288 461.949C184.867 462.169 192.473 466.074 194.36 467.161C191.21 461.75 188.021 456.391 184.662 451.234C180.039 444.113 175.107 437.38 169.849 431.211C169.434 431.626 158.362 442.643 151.715 445.085C145.946 447.202 138.007 448.299 132.538 444.78C127.181 441.335 125.269 434.051 129.404 428.857C135.145 421.648 151.726 422.738 159.426 425.643C160.029 425.872 168.208 430.077 169.638 430.945C169.323 430.579 169.039 430.165 168.722 429.805C163.024 423.29 156.687 417.695 150.495 412.748C146.903 409.866 143.309 407.312 139.757 404.905C137.905 407.169 129.329 417.419 123.589 420.278C118.088 423.016 110.318 424.977 104.494 422.08C98.7906 419.245 96.0908 412.215 99.6306 406.599C104.546 398.804 121.147 398.066 129.117 400.108C129.549 400.219 133.831 401.836 136.932 403.058C135.312 401.995 133.66 400.87 132.088 399.886C126.193 396.169 120.568 393.129 115.563 390.477C112.706 388.992 110.092 387.706 107.633 386.528C104.659 387.801 92.6029 392.78 86.3068 392.675C80.1635 392.57 72.3625 390.732 68.5277 385.477C64.7735 380.33 65.6175 372.846 71.3468 369.496C79.2996 364.842 94.3739 371.836 100.507 377.321C101.037 377.797 108.474 386.163 108.319 386.23C108.319 386.23 108.175 386.293 108.139 386.308C110.528 387.393 113.075 388.586 115.833 389.943C120.907 392.491 126.614 395.416 132.611 399.02C138.614 402.605 145.036 406.669 151.414 411.559C157.813 416.453 164.293 421.928 170.241 428.432C170.308 428.505 170.369 428.591 170.437 428.664C169.288 426.221 166.302 419.283 166.136 418.724C163.758 410.847 163.791 394.229 171.373 388.988C176.832 385.215 183.97 387.614 187.046 393.193C190.185 398.89 188.556 406.734 186.052 412.347C183.227 418.677 171.97 428.633 171.073 429.423C176.682 435.668 181.928 442.535 186.857 449.773C189.678 453.911 192.392 458.165 195.059 462.465C194.134 460.32 193.321 458.396 193.237 458.114C190.859 450.236 190.894 433.621 198.475 428.379C203.936 424.603 211.074 427.006 214.147 432.583C217.289 438.28 215.658 446.124 213.155 451.737C210.614 457.432 201.187 466.114 198.662 468.377C199.667 470.037 200.691 471.685 201.689 473.349C206.485 481.331 211.235 489.319 216.137 497.01C217.862 499.722 219.66 502.328 221.451 504.941C220.632 503.037 219.958 501.425 219.879 501.169C217.502 493.291 217.536 476.674 225.115 471.434C230.577 467.66 237.715 470.059 240.791 475.638C243.931 481.332 242.301 489.179 239.795 494.791C237.372 500.225 228.742 508.318 225.754 511.022C227.668 513.645 229.582 516.274 231.555 518.73C232.941 520.375 234.16 522.055 235.644 523.631C237.079 525.22 238.501 526.797 239.908 528.356C242.731 531.259 245.622 534.274 248.446 537.037C250.396 538.975 252.289 540.784 254.19 542.613C252.442 539.934 249.128 534.618 248.901 534.142C246.547 529.208 244.678 520.307 245.643 513.026C245.291 512.299 245.003 511.547 244.792 510.765C243.138 504.614 246.615 497.934 253.167 496.863C262.26 495.379 273.815 507.324 277.564 514.646C277.786 515.079 279.663 520.034 280.796 523.18C280.412 521.228 280.015 519.34 279.645 517.327C278.884 513.353 278.242 509.362 277.532 505.073C277.263 502.991 276.993 500.886 276.718 498.76C276.402 496.659 276.334 494.398 276.13 492.197C275.764 487.084 275.642 481.882 275.635 476.642C272.151 477.301 259.752 479.461 253.744 478.037C247.764 476.623 240.539 473.155 237.916 467.205C235.35 461.375 237.771 454.245 244.086 452.195C252.85 449.35 266.08 459.405 270.899 466.075C271.2 466.492 274.117 471.666 275.667 474.54C275.687 471.39 275.691 468.245 275.816 465.059C276.173 455.859 276.82 446.56 277.426 437.278C277.612 434.436 277.765 431.601 277.928 428.764C276.691 429.011 262.007 431.897 255.279 430.305C249.299 428.89 242.075 425.425 239.451 419.471C236.885 413.644 239.307 406.512 245.622 404.464C254.387 401.619 267.617 411.675 272.434 418.345C272.797 418.848 276.985 426.299 277.957 428.247C278.314 422 278.611 415.769 278.657 409.613C278.729 401.122 278.33 392.788 277.347 384.742C276.77 384.859 261.46 387.939 254.568 386.309C248.588 384.894 241.363 381.429 238.742 375.475C236.173 369.647 238.597 362.516 244.912 360.467C253.676 357.622 266.907 367.679 271.723 374.349C272.102 374.872 276.604 382.893 277.315 384.403C277.257 383.926 277.249 383.424 277.184 382.948C276.023 374.37 273.824 366.208 271.391 358.664C269.986 354.28 268.396 350.168 266.761 346.202C263.968 347.068 251.16 350.885 244.796 350.103C238.695 349.353 231.134 346.702 227.875 341.075C224.682 335.563 226.308 328.208 232.359 325.479C240.758 321.688 255.012 330.231 260.533 336.331C260.834 336.664 263.512 340.373 265.424 343.104C264.658 341.325 263.902 339.474 263.134 337.784C260.268 331.433 257.254 325.793 254.543 320.821C252.978 318.005 251.507 315.49 250.106 313.153C246.923 312.572 234.12 310.075 228.928 306.513C223.86 303.036 218.371 297.2 218.071 290.703C217.778 284.34 222.61 278.563 229.237 278.927C238.438 279.433 247.151 293.583 249.243 301.541C249.422 302.229 251.008 313.31 250.842 313.283C250.842 313.283 250.686 313.254 250.651 313.247C252.045 315.469 253.512 317.87 255.061 320.524C257.887 325.447 261.034 331.035 264.048 337.35C267.077 343.651 270.192 350.584 272.812 358.182C275.448 365.793 277.834 373.934 279.207 382.641C279.222 382.74 279.225 382.844 279.24 382.943C279.629 380.27 280.97 372.838 281.136 372.278C283.498 364.396 292.696 350.557 301.907 350.366C308.544 350.232 313.175 356.17 312.661 362.52C312.136 369.004 306.45 374.646 301.266 377.945C295.418 381.668 280.536 383.762 279.352 383.924C280.582 392.229 281.172 400.849 281.288 409.607C281.362 414.613 281.277 419.658 281.13 424.715C281.54 422.417 281.925 420.364 282.009 420.082C284.371 412.199 293.569 398.36 302.781 398.173C309.418 398.036 314.047 403.976 313.534 410.324C313.014 416.807 307.323 422.453 302.139 425.751C296.879 429.1 284.227 431.139 280.87 431.635C280.793 433.575 280.739 435.513 280.653 437.451C280.249 446.756 279.807 456.039 279.651 465.157C279.595 468.371 279.658 471.537 279.708 474.707C280.076 472.664 280.402 470.949 280.478 470.691C282.841 462.811 292.038 448.969 301.251 448.781C307.888 448.645 312.517 454.585 312.004 460.933C311.48 467.418 305.793 473.061 300.608 476.36C295.587 479.556 283.927 481.544 279.942 482.151C280.092 485.395 280.237 488.643 280.528 491.779C280.776 493.916 280.864 495.991 281.234 498.122C281.553 500.242 281.871 502.339 282.185 504.417C282.936 508.395 283.686 512.504 284.517 516.366C285.075 519.057 285.655 521.611 286.233 524.185C286.251 520.987 286.42 514.724 286.494 514.201C287.632 506.053 294.628 490.98 303.706 489.397C310.246 488.257 315.722 493.427 316.175 499.78C316.64 506.267 311.874 512.709 307.25 516.755C302.156 521.21 288.349 525.43 286.619 525.945C287.596 530.214 288.58 534.344 289.572 538.227Z" fill="black"/>
<path d="M139.395 403.19C139.301 403.33 132.307 394.589 131.93 393.988C127.558 387.018 123.203 370.98 129.13 363.925C133.399 358.842 140.919 359.274 145.356 363.842C149.889 368.505 150.389 376.503 149.455 382.577C148.361 389.71 139.401 403.179 139.395 403.19Z" fill="black"/>
</g>
<g opacity="0.15">
<path d="M409.336 80.8152C413.839 84.7695 426.727 88.5633 426.738 88.5653C426.871 88.6048 426.659 79.3109 426.578 78.7264C425.645 71.9576 419.86 59.427 412.325 58.0987C406.896 57.1422 402.34 61.4271 401.951 66.7023C401.554 72.0902 405.501 77.4461 409.336 80.8152Z" fill="black"/>
<path d="M426.622 250.441C426.581 250.75 426.537 251.039 426.496 251.344L430.675 254.779C430.826 253.547 430.975 252.293 431.121 251.003C431.543 247.345 431.922 243.429 432.271 239.403C433.231 239.337 438.689 238.923 443.735 237.897C446.178 243.127 454.229 250.907 455.276 251.903C452.955 254.689 450.669 257.374 448.471 259.873C446.962 261.598 445.5 263.242 444.079 264.817L448.917 266.36C449.9 265.213 450.893 264.046 451.915 262.825C454.286 260.008 456.762 256.948 459.275 253.785C460.554 254.509 471.047 260.366 476.654 260.855C481.737 261.296 488.338 260.445 491.957 256.434C495.5 252.508 495.446 246.253 490.999 242.991C484.83 238.465 471.778 242.948 466.242 246.955C465.915 247.19 462.658 250.15 460.634 252.05C461.654 250.753 462.658 249.503 463.691 248.153C465.755 245.5 467.733 242.79 469.873 239.883C470.857 238.442 471.852 236.987 472.857 235.518C473.883 234.082 474.785 232.435 475.766 230.883C477.965 227.235 480.015 223.433 481.995 219.558C484.324 221.358 492.686 227.63 497.668 228.842C502.628 230.048 509.278 230.208 513.464 226.79C517.561 223.446 518.456 217.255 514.556 213.358C509.142 207.949 495.561 210.404 489.482 213.524C489.102 213.718 484.992 216.448 482.764 217.991C483.936 215.651 485.117 213.324 486.227 210.918C489.43 203.976 492.455 196.849 495.507 189.753C496.44 187.579 497.396 185.424 498.346 183.262C499.167 183.912 508.945 191.582 514.524 192.939C519.483 194.147 526.136 194.305 530.32 190.888C534.417 187.543 535.311 181.353 531.411 177.457C525.997 172.048 512.417 174.502 506.338 177.623C505.88 177.858 499.971 181.794 498.517 182.869C500.608 178.11 502.736 173.388 505.024 168.817C508.169 162.507 511.608 156.489 515.367 150.906C515.749 151.209 525.919 159.261 531.632 160.652C536.592 161.858 543.245 162.017 547.428 158.601C551.525 155.256 552.419 149.065 548.519 145.168C543.105 139.76 529.525 142.214 523.446 145.334C522.97 145.579 516.614 149.817 515.517 150.667C515.743 150.336 515.939 149.968 516.167 149.64C520.257 143.73 524.961 138.518 529.605 133.856C532.299 131.141 535.024 128.695 537.73 126.376C539.47 128.071 547.508 135.724 552.513 137.544C557.308 139.288 563.905 140.177 568.438 137.24C572.878 134.365 574.446 128.31 570.999 124.009C566.212 118.038 552.444 118.987 546.058 121.421C545.712 121.552 542.331 123.289 539.887 124.589C541.124 123.56 542.38 122.477 543.585 121.516C548.1 117.896 552.457 114.86 556.337 112.202C558.555 110.709 560.591 109.402 562.51 108.199C565.084 108.97 575.499 111.948 580.685 111.27C585.745 110.607 592.008 108.358 594.679 103.661C597.295 99.0619 595.896 92.9659 590.854 90.7388C583.856 87.6457 572.072 94.8298 567.527 99.933C567.136 100.374 561.783 107.976 561.917 108.017C561.917 108.017 562.042 108.056 562.073 108.064C560.203 109.184 558.214 110.407 556.066 111.786C552.118 114.365 547.683 117.314 543.073 120.85C538.456 124.372 533.538 128.328 528.734 132.961C523.914 137.599 519.081 142.725 514.783 148.652C514.734 148.719 514.693 148.794 514.643 148.862C515.362 146.738 517.174 140.733 517.26 140.257C518.483 133.534 516.894 119.825 510.147 116.211C505.288 113.611 499.623 116.261 497.608 121.151C495.552 126.147 497.633 132.466 500.227 136.863C503.15 141.821 513.374 148.979 514.188 149.548C510.146 155.227 506.462 161.385 503.075 167.822C501.135 171.501 499.295 175.265 497.498 179.064C498.06 177.208 498.549 175.544 498.592 175.304C499.815 168.58 498.227 154.873 491.479 151.259C486.62 148.656 480.955 151.307 478.941 156.199C476.884 161.194 478.965 167.514 481.559 171.911C484.19 176.371 492.784 182.65 495.079 184.281C494.406 185.745 493.715 187.2 493.048 188.667C489.839 195.705 486.668 202.741 483.346 209.548C482.177 211.948 480.937 214.266 479.706 216.591C480.203 214.944 480.608 213.551 480.648 213.331C481.871 206.608 480.283 192.899 473.537 189.287C468.676 186.685 463.01 189.335 460.996 194.227C458.94 199.221 461.023 205.543 463.615 209.939C466.125 214.195 474.005 220.062 476.724 222.013C475.39 224.358 474.058 226.706 472.661 228.918C471.671 230.406 470.823 231.906 469.747 233.346C468.712 234.792 467.687 236.227 466.672 237.645C464.615 240.306 462.512 243.064 460.443 245.609C459.015 247.39 457.623 249.061 456.227 250.748C457.418 248.373 459.654 243.676 459.796 243.263C461.276 238.971 461.983 231.451 460.502 225.533C460.725 224.9 460.891 224.252 460.991 223.587C461.779 218.357 458.284 213.17 452.777 212.903C445.133 212.531 436.72 223.471 434.314 229.865C434.172 230.243 433.087 234.507 432.448 237.209C432.581 235.563 432.732 233.969 432.849 232.272C433.104 228.92 433.259 225.568 433.443 221.962C433.469 220.218 433.495 218.457 433.52 216.676C433.585 214.913 433.428 213.041 433.391 211.205C433.212 206.951 432.825 202.648 432.339 198.323C435.276 198.539 445.71 199.158 450.533 197.419C455.334 195.691 460.97 192.152 462.576 186.996C464.147 181.945 461.479 176.288 456.076 175.19C448.577 173.665 438.603 183.204 435.253 189.161C435.045 189.533 433.122 194.077 432.114 196.593C431.801 193.996 431.503 191.401 431.101 188.783C429.944 181.225 428.538 173.611 427.165 166.011C426.744 163.682 426.353 161.359 425.952 159.032C426.996 159.119 439.383 160.122 444.786 158.177C449.587 156.449 455.223 152.911 456.829 147.752C458.4 142.703 455.732 137.046 450.329 135.948C442.83 134.423 432.857 143.961 429.508 149.917C429.256 150.367 426.499 156.908 425.879 158.606C424.999 153.485 424.168 148.372 423.554 143.297C422.698 136.298 422.244 129.383 422.3 122.653C422.787 122.694 435.71 123.799 441.244 121.807C446.047 120.077 451.682 116.541 453.287 111.382C454.859 106.333 452.19 100.677 446.786 99.5781C439.288 98.0532 429.314 107.593 425.966 113.549C425.703 114.017 422.74 121.058 422.296 122.371C422.299 121.971 422.259 121.556 422.268 121.158C422.421 113.971 423.469 107.028 424.77 100.577C425.517 96.8276 426.444 93.2852 427.421 89.8588C429.807 90.3113 440.734 92.2596 445.912 91.0166C450.877 89.8248 456.867 86.9279 459.027 81.9782C461.144 77.1301 459.112 71.2151 453.864 69.5299C446.578 67.1897 435.617 75.577 431.635 81.1277C431.418 81.43 429.555 84.7433 428.234 87.1757C428.699 85.6356 429.149 84.0375 429.624 82.5726C431.392 77.0638 433.351 72.1268 435.122 67.7685C436.148 65.298 437.127 63.0849 438.064 61.0256C440.636 60.2476 450.966 56.9846 454.916 53.5594C458.772 50.2154 462.753 44.8841 462.391 39.4949C462.035 34.2162 457.505 29.903 452.072 30.8261C444.528 32.108 438.665 44.6013 437.686 51.3649C437.603 51.9495 437.334 61.2407 437.468 61.203C437.468 61.203 437.594 61.1646 437.623 61.155C436.682 63.1192 435.697 65.2387 434.666 67.5737C432.796 71.9009 430.724 76.8079 428.829 82.3016C426.921 87.7856 425.001 93.798 423.552 100.314C422.091 106.841 420.886 113.785 420.57 121.097C420.567 121.18 420.573 121.267 420.571 121.349C419.999 119.181 418.196 113.173 418.006 112.728C415.317 106.445 406.429 95.8891 398.81 96.5966C393.321 97.1076 390.058 102.444 391.077 107.635C392.118 112.936 397.341 117.059 401.927 119.295C407.102 121.817 419.577 122.149 420.571 122.171C420.335 129.139 420.657 136.308 421.383 143.545C421.793 147.683 422.336 151.838 422.933 155.996C422.378 154.139 421.867 152.481 421.772 152.256C419.082 145.974 410.194 135.416 402.577 136.128C397.086 136.636 393.825 141.973 394.843 147.164C395.882 152.464 401.107 156.588 405.693 158.824C410.349 161.094 420.98 161.59 423.796 161.684C424.041 163.278 424.269 164.87 424.521 166.462C425.727 174.102 426.964 181.72 427.947 189.23C428.296 191.876 428.541 194.496 428.796 197.116C428.302 195.465 427.871 194.08 427.783 193.875C425.095 187.594 416.206 177.036 408.588 177.745C403.098 178.256 399.835 183.592 400.854 188.781C401.895 194.082 407.117 198.206 411.705 200.442C416.147 202.608 425.956 203.154 429.301 203.282C429.481 205.973 429.668 208.667 429.721 211.281C429.718 213.068 429.839 214.788 429.734 216.582C429.669 218.361 429.604 220.121 429.54 221.866C429.294 225.218 429.06 228.681 428.737 231.945C428.53 234.217 428.291 236.379 428.055 238.558C427.74 235.921 427.013 230.768 426.903 230.344C425.198 223.729 418.012 211.948 410.373 211.493C404.869 211.166 400.836 215.946 401.058 221.231C401.283 226.628 405.821 231.496 410.016 234.401C414.637 237.599 426.427 239.785 427.902 240.048C427.501 243.643 427.077 247.144 426.622 250.441Z" fill="black"/>
<path d="M537.868 124.92C537.959 125.027 542.908 117.157 543.164 116.627C546.118 110.466 548.205 96.8239 542.652 91.5578C538.652 87.7644 532.489 88.8269 529.256 93.0133C525.953 97.2873 526.291 103.933 527.632 108.857C529.204 114.639 537.862 124.911 537.868 124.92Z" fill="black"/>
</g>
<path d="M232.008 154.956L92.3652 153.598L91.0315 290.766L230.674 292.123L232.008 154.956Z" fill="white" stroke="#263238" stroke-miterlimit="10" stroke-linecap="round" stroke-linejoin="round"/>
<path d="M111.428 193.672L206.636 194.98" stroke="#263238" stroke-miterlimit="10"/>
<path d="M110.634 209.223L210.854 210.247" stroke="#263238" stroke-miterlimit="10"/>
<path d="M111.376 229.716L209.302 234.643" stroke="#263238" stroke-miterlimit="10"/>
<path d="M111.701 250.234L185.224 246.066" stroke="#263238" stroke-miterlimit="10"/>
<path d="M286.944 263.755L149.446 288.138L173.397 423.2L310.896 398.817L286.944 263.755Z" fill="white" stroke="#263238" stroke-miterlimit="10" stroke-linecap="round" stroke-linejoin="round"/>
<path d="M186.948 313.441L285.684 295.691" stroke="#263238" stroke-miterlimit="10"/>
<path d="M187.225 333.122L287.002 311.541" stroke="#263238" stroke-miterlimit="10"/>
<path d="M193.028 354.166L285.56 330.482" stroke="#263238" stroke-miterlimit="10"/>
<path d="M195.323 372.476L291.971 354.844" stroke="#263238" stroke-miterlimit="10"/>
<path d="M121.513 166.358L124.879 170.175" stroke="#263238" stroke-width="2" stroke-miterlimit="10" stroke-linecap="round" stroke-linejoin="round"/>
<path d="M123.932 166.921C127.874 162.506 127.49 155.731 123.074 151.789C118.658 147.847 111.883 148.231 107.942 152.647C104 157.062 104.384 163.837 108.799 167.779C113.215 171.721 119.99 171.337 123.932 166.921Z" fill="#92E3A9" stroke="#263238" stroke-miterlimit="10" stroke-linecap="round" stroke-linejoin="round"/>
<path d="M120.447 156.683C120.655 160.338 117.858 163.471 114.203 163.678C110.547 163.885 107.414 161.089 107.207 157.433C107 153.777 109.796 150.645 113.452 150.438C117.108 150.23 120.24 153.025 120.447 156.683Z" fill="#92E3A9" stroke="#263238" stroke-miterlimit="10" stroke-linecap="round" stroke-linejoin="round"/>
<path d="M119.414 152.159C119.704 157.28 115.789 161.665 110.669 161.956C105.548 162.246 101.162 158.331 100.872 153.21C100.582 148.09 104.497 143.704 109.618 143.414C114.738 143.124 119.124 147.039 119.414 152.159Z" fill="#92E3A9" stroke="#263238" stroke-miterlimit="10" stroke-linecap="round" stroke-linejoin="round"/>
<path d="M258.432 275.103L261.799 278.92" stroke="#263238" stroke-width="2" stroke-miterlimit="10" stroke-linecap="round" stroke-linejoin="round"/>
<path d="M263.429 270.404C264.465 264.576 260.581 259.011 254.753 257.974C248.926 256.937 243.361 260.821 242.324 266.649C241.287 272.477 245.171 278.042 250.999 279.079C256.827 280.116 262.392 276.232 263.429 270.404Z" fill="#92E3A9" stroke="#263238" stroke-miterlimit="10" stroke-linecap="round" stroke-linejoin="round"/>
<path d="M257.366 265.427C257.573 269.084 254.777 272.216 251.121 272.423C247.465 272.63 244.333 269.834 244.126 266.178C243.919 262.522 246.715 259.39 250.371 259.182C254.026 258.974 257.159 261.77 257.366 265.427Z" fill="#92E3A9" stroke="#263238" stroke-miterlimit="10" stroke-linecap="round" stroke-linejoin="round"/>
<path d="M256.333 260.904C256.623 266.025 252.708 270.41 247.587 270.701C242.467 270.991 238.081 267.076 237.791 261.955C237.501 256.835 241.416 252.449 246.536 252.159C251.657 251.867 256.042 255.784 256.333 260.904Z" fill="#92E3A9" stroke="#263238" stroke-miterlimit="10" stroke-linecap="round" stroke-linejoin="round"/>
<path d="M320.333 153.683L319.719 179.549C319.627 183.44 318.056 187.149 315.328 189.925L310.007 195.336C306.718 198.681 304.842 203.161 304.768 207.852L303.713 273.961C303.617 280.008 306.52 285.71 311.466 289.19C315.614 292.108 318.048 296.891 317.967 301.962L312.849 622.625L615.933 627.463L623.417 158.522L320.333 153.683Z" fill="#92E3A9" stroke="#263238" stroke-miterlimit="10" stroke-linecap="round" stroke-linejoin="round"/>
<path d="M384.835 159.554L281.277 166.183L309.266 603.426L412.824 596.796L384.835 159.554Z" fill="white" stroke="#263238" stroke-miterlimit="10" stroke-linecap="round" stroke-linejoin="round"/>
<path d="M406.911 164.098L303.354 170.727L331.343 607.97L434.9 601.341L406.911 164.098Z" fill="white" stroke="#263238" stroke-miterlimit="10" stroke-linecap="round" stroke-linejoin="round"/>
<path d="M326.113 153.775L325.498 179.64C325.405 183.531 323.836 187.241 321.108 190.017L315.786 195.428C312.498 198.772 310.622 203.253 310.547 207.943L309.492 274.054C309.396 280.101 312.298 285.804 317.245 289.283C321.392 292.202 323.826 296.985 323.746 302.055L318.628 622.716L621.712 627.553L629.197 158.613L326.113 153.775Z" fill="#92E3A9" stroke="#263238" stroke-miterlimit="10" stroke-linecap="round" stroke-linejoin="round"/>
<path d="M611.78 229.388L334.843 245.087L357.343 642.02L634.28 626.321L611.78 229.388Z" fill="white" stroke="#263238" stroke-width="5" stroke-miterlimit="10" stroke-linecap="round" stroke-linejoin="round"/>
<path d="M611.658 227.241L337.655 242.774L360.403 644.064L634.405 628.532L611.658 227.241Z" fill="white" stroke="#263238" stroke-miterlimit="10" stroke-linecap="round" stroke-linejoin="round"/>
<path d="M603.439 229.11L604.54 248.538" stroke="#263238" stroke-miterlimit="10" stroke-linecap="round" stroke-linejoin="round"/>
<path d="M607.023 240.333L611.997 328.093" stroke="#263238" stroke-miterlimit="10" stroke-linecap="round" stroke-linejoin="round"/>
<path d="M610.286 350.369L605.539 266.627" stroke="#263238" stroke-miterlimit="10" stroke-linecap="round" stroke-linejoin="round"/>
<path d="M615.15 383.698L623.808 536.443" stroke="#263238" stroke-miterlimit="10" stroke-linecap="round" stroke-linejoin="round"/>
<path d="M621.24 551.373L618.886 509.839" stroke="#263238" stroke-miterlimit="10" stroke-linecap="round" stroke-linejoin="round"/>
<path d="M600.314 227.885L326.312 243.417L349.059 644.707L623.062 629.175L600.314 227.885Z" fill="white" stroke="#263238" stroke-miterlimit="10" stroke-linecap="round" stroke-linejoin="round"/>
<path d="M373.721 259.414C376.693 259.246 378.966 256.699 378.798 253.727C378.629 250.755 376.083 248.481 373.111 248.65C370.138 248.818 367.865 251.365 368.034 254.337C368.202 257.31 370.748 259.583 373.721 259.414Z" fill="white" stroke="#263238" stroke-miterlimit="10" stroke-linecap="round" stroke-linejoin="round"/>
<path d="M420.889 256.74C423.861 256.572 426.134 254.026 425.966 251.053C425.797 248.081 423.251 245.808 420.279 245.976C417.306 246.145 415.033 248.691 415.202 251.663C415.37 254.636 417.917 256.909 420.889 256.74Z" fill="white" stroke="#263238" stroke-miterlimit="10" stroke-linecap="round" stroke-linejoin="round"/>
<path d="M468.057 254.067C471.03 253.898 473.303 251.352 473.134 248.379C472.966 245.407 470.419 243.134 467.447 243.302C464.475 243.471 462.202 246.017 462.37 248.99C462.539 251.962 465.085 254.235 468.057 254.067Z" fill="white" stroke="#263238" stroke-miterlimit="10" stroke-linecap="round" stroke-linejoin="round"/>
<path d="M515.225 251.393C518.198 251.224 520.471 248.678 520.302 245.706C520.134 242.733 517.588 240.46 514.615 240.629C511.643 240.797 509.37 243.343 509.538 246.316C509.707 249.288 512.253 251.561 515.225 251.393Z" fill="white" stroke="#263238" stroke-miterlimit="10" stroke-linecap="round" stroke-linejoin="round"/>
<path d="M562.394 248.719C565.366 248.551 567.639 246.004 567.471 243.032C567.302 240.059 564.756 237.786 561.783 237.955C558.811 238.123 556.538 240.67 556.706 243.642C556.875 246.615 559.421 248.888 562.394 248.719Z" fill="white" stroke="#263238" stroke-miterlimit="10" stroke-linecap="round" stroke-linejoin="round"/>
<path d="M367.559 223.206C375.295 222.767 381.946 228.704 382.384 236.44C382.438 237.393 382.396 238.35 382.259 239.285C382.216 239.579 382.262 239.864 382.365 240.12L385.401 239.948C385.42 239.883 385.441 239.821 385.45 239.752C385.619 238.602 385.67 237.427 385.604 236.258C385.065 226.746 376.889 219.447 367.377 219.986C357.865 220.526 350.567 228.701 351.106 238.213C351.645 247.725 359.821 255.024 369.332 254.484C370.222 254.434 370.902 253.673 370.852 252.784C370.801 251.895 370.041 251.216 369.15 251.266C361.414 251.705 354.764 245.768 354.325 238.032C353.888 230.295 359.825 223.644 367.559 223.206Z" fill="#263238"/>
<path d="M375.558 250.901C367.822 251.34 361.172 245.403 360.733 237.667C360.295 229.931 366.231 223.281 373.967 222.843C381.703 222.404 388.354 228.341 388.792 236.077C388.846 237.028 388.804 237.987 388.667 238.923C388.624 239.217 388.67 239.5 388.775 239.757L391.809 239.585C391.828 239.52 391.849 239.457 391.858 239.389C392.026 238.238 392.078 237.063 392.012 235.894C391.472 226.383 383.297 219.084 373.785 219.623C364.273 220.162 356.974 228.338 357.514 237.85C358.053 247.362 366.23 254.66 375.74 254.121C376.63 254.071 377.309 253.31 377.258 252.421C377.208 251.53 376.447 250.851 375.558 250.901Z" fill="#263238"/>
<path d="M414.29 220.557C422.026 220.118 428.676 226.055 429.115 233.791C429.169 234.743 429.126 235.701 428.99 236.638C428.947 236.931 428.993 237.215 429.097 237.471L432.132 237.299C432.151 237.234 432.172 237.172 432.181 237.103C432.348 235.952 432.401 234.778 432.334 233.609C431.795 224.097 423.619 216.798 414.108 217.337C404.596 217.876 397.297 226.052 397.836 235.564C398.376 245.076 406.551 252.374 416.063 251.835C416.952 251.785 417.633 251.024 417.582 250.135C417.532 249.246 416.771 248.566 415.881 248.617C408.145 249.055 401.495 243.119 401.056 235.383C400.618 227.646 406.554 220.995 414.29 220.557Z" fill="#263238"/>
<path d="M422.287 248.253C414.552 248.691 407.901 242.754 407.463 235.018C407.024 227.282 412.961 220.632 420.697 220.194C428.433 219.755 435.083 225.692 435.522 233.428C435.576 234.381 435.533 235.338 435.397 236.273C435.353 236.567 435.4 236.852 435.503 237.108L438.539 236.936C438.557 236.871 438.579 236.808 438.588 236.74C438.757 235.59 438.807 234.414 438.741 233.245C438.202 223.734 430.025 216.435 420.514 216.974C411.003 217.513 403.704 225.689 404.243 235.201C404.782 244.713 412.958 252.011 422.47 251.472C423.359 251.422 424.04 250.661 423.989 249.772C423.937 248.881 423.177 248.202 422.287 248.253Z" fill="#263238"/>
<path d="M462.61 245.967C454.874 246.405 448.224 240.469 447.785 232.733C447.347 224.997 453.285 218.346 461.019 217.908C468.755 217.469 475.406 223.406 475.844 231.142C475.898 232.092 475.856 233.05 475.719 233.989C475.66 234.394 475.767 234.78 475.977 235.096L478.756 234.938C478.832 234.789 478.885 234.627 478.91 234.452C479.079 233.299 479.13 232.123 479.064 230.958C478.524 221.447 470.349 214.148 460.837 214.687C451.325 215.226 444.026 223.402 444.566 232.914C445.105 242.426 453.281 249.724 462.792 249.185C463.682 249.135 464.361 248.374 464.31 247.485C464.261 246.595 463.499 245.916 462.61 245.967Z" fill="#263238"/>
<path d="M469.015 245.604C461.279 246.042 454.629 240.105 454.191 232.37C453.752 224.634 459.689 217.983 467.425 217.545C475.162 217.106 481.812 223.043 482.251 230.779C482.305 231.731 482.262 232.686 482.125 233.624C482.065 234.03 482.172 234.417 482.382 234.733L485.163 234.575C485.238 234.427 485.292 234.265 485.317 234.091C485.486 232.94 485.538 231.764 485.472 230.596C484.933 221.085 476.757 213.786 467.244 214.325C457.732 214.864 450.433 223.04 450.972 232.552C451.512 242.064 459.687 249.362 469.199 248.823C470.088 248.773 470.768 248.012 470.717 247.123C470.667 246.232 469.905 245.553 469.015 245.604Z" fill="#263238"/>
<path d="M509.34 243.318C501.604 243.756 494.954 237.82 494.515 230.084C494.076 222.348 500.013 215.698 507.749 215.259C515.486 214.82 522.137 220.757 522.575 228.493C522.629 229.445 522.587 230.401 522.449 231.338C522.39 231.745 522.493 232.137 522.703 232.455L525.476 232.298C525.554 232.146 525.614 231.983 525.64 231.805C525.809 230.654 525.861 229.478 525.795 228.311C525.256 218.799 517.08 211.5 507.567 212.039C498.056 212.579 490.756 220.754 491.295 230.266C491.835 239.778 500.012 247.077 509.522 246.537C510.411 246.487 511.092 245.726 511.041 244.837C510.99 243.947 510.228 243.267 509.34 243.318Z" fill="#263238"/>
<path d="M515.746 242.955C508.01 243.393 501.36 237.456 500.922 229.721C500.483 221.985 506.42 215.334 514.156 214.896C521.892 214.457 528.542 220.394 528.981 228.13C529.035 229.084 528.994 230.041 528.856 230.975C528.797 231.382 528.9 231.773 529.11 232.092L531.883 231.935C531.96 231.783 532.02 231.62 532.047 231.442C532.216 230.294 532.267 229.118 532.2 227.947C531.661 218.436 523.485 211.137 513.973 211.676C504.462 212.215 497.163 220.391 497.702 229.903C498.241 239.415 506.417 246.713 515.929 246.174C516.818 246.124 517.499 245.363 517.448 244.474C517.396 243.583 516.634 242.904 515.746 242.955Z" fill="#263238"/>
<path d="M556.069 240.669C548.333 241.107 541.683 235.171 541.244 227.435C540.806 219.699 546.742 213.049 554.478 212.61C562.214 212.172 568.865 218.108 569.303 225.844C569.357 226.799 569.316 227.756 569.178 228.689C569.14 228.952 569.174 229.204 569.253 229.439L572.343 229.264C572.351 229.228 572.364 229.193 572.369 229.156C572.538 228.008 572.589 226.832 572.523 225.662C571.983 216.15 563.808 208.851 554.296 209.391C544.784 209.93 537.485 218.106 538.025 227.617C538.564 237.129 546.74 244.428 556.251 243.889C557.141 243.838 557.821 243.077 557.771 242.188C557.72 241.298 556.958 240.618 556.069 240.669Z" fill="#263238"/>
<path d="M562.476 240.306C554.74 240.744 548.09 234.808 547.651 227.072C547.212 219.336 553.149 212.685 560.885 212.247C568.621 211.808 575.271 217.745 575.71 225.481C575.764 226.435 575.723 227.392 575.585 228.326C575.546 228.588 575.58 228.841 575.66 229.076L578.75 228.901C578.758 228.865 578.77 228.83 578.776 228.793C578.945 227.645 578.996 226.469 578.929 225.299C578.39 215.787 570.214 208.488 560.703 209.027C551.192 209.566 543.892 217.742 544.431 227.254C544.971 236.766 553.146 244.065 562.658 243.525C563.547 243.475 564.228 242.714 564.177 241.825C564.127 240.934 563.365 240.255 562.476 240.306Z" fill="#263238"/>
<path d="M520.181 327.7C545.841 326.245 565.951 312.853 565.097 297.787C564.243 282.722 542.749 271.688 517.088 273.142C491.427 274.597 471.318 287.989 472.172 303.055C473.026 318.121 494.52 329.155 520.181 327.7Z" stroke="#263238" stroke-miterlimit="10"/>
<path d="M561.215 473.331C584.723 471.998 602.997 457.094 602.031 440.042C601.064 422.989 581.223 410.246 557.714 411.579C534.206 412.911 515.932 427.815 516.899 444.868C517.865 461.92 537.706 474.663 561.215 473.331Z" stroke="#263238" stroke-miterlimit="10"/>
<path d="M392.973 327.692C411.515 326.641 425.923 314.784 425.153 301.209C424.384 287.634 408.729 277.481 390.186 278.532C371.644 279.583 357.237 291.44 358.006 305.015C358.776 318.59 374.431 328.743 392.973 327.692Z" stroke="#263238" stroke-miterlimit="10"/>
<path d="M527.291 341.73L571.656 339.216" stroke="#263238" stroke-miterlimit="10"/>
<path d="M527.631 347.726L571.996 345.211" stroke="#263238" stroke-miterlimit="10"/>
<path d="M527.971 353.721L572.336 351.206" stroke="#92E3A9" stroke-width="2" stroke-miterlimit="10"/>
<path d="M536.926 437.417L581.29 434.902" stroke="#263238" stroke-miterlimit="10"/>
<path d="M537.266 443.411L581.63 440.897" stroke="#263238" stroke-miterlimit="10"/>
<path d="M537.605 449.406L581.969 446.892" stroke="#263238" stroke-miterlimit="10"/>
<path d="M537.346 459.539C537.346 459.539 562.71 454.898 591.37 451.901" stroke="#92E3A9" stroke-width="2" stroke-miterlimit="10"/>
<path d="M497.594 295.298L541.958 292.783" stroke="#263238" stroke-miterlimit="10"/>
<path d="M496.112 301.111L542.642 296.307" stroke="#92E3A9" stroke-width="2" stroke-miterlimit="10"/>
<path d="M496.067 304.141L542.598 299.337" stroke="#92E3A9" stroke-miterlimit="10"/>
<path d="M498.274 307.288L542.638 304.773" stroke="#263238" stroke-miterlimit="10"/>
<path d="M537.462 499.937L581.827 497.422" stroke="#263238" stroke-miterlimit="10"/>
<path d="M537.802 505.932L582.167 503.417" stroke="#263238" stroke-miterlimit="10"/>
<path d="M538.142 511.928L582.507 509.413" stroke="#92E3A9" stroke-width="2" stroke-miterlimit="10"/>
<path d="M538.617 520.321L582.983 517.806" stroke="#263238" stroke-miterlimit="10"/>
<path d="M538.957 526.316L583.322 523.802" stroke="#263238" stroke-miterlimit="10"/>
<path d="M539.297 532.312L583.662 529.797" stroke="#92E3A9" stroke-width="2" stroke-miterlimit="10"/>
<path d="M374.487 298.667L408.061 296.764" stroke="#263238" stroke-miterlimit="10"/>
<path d="M374.827 304.664L408.401 302.761" stroke="#263238" stroke-miterlimit="10"/>
<path d="M375.167 310.658L408.74 308.755" stroke="#263238" stroke-miterlimit="10"/>
<path d="M557.714 411.579L544.85 375.62" stroke="#263238" stroke-miterlimit="10"/>
<path d="M541.762 384.816L542.745 370.327L553.583 381.139" stroke="#263238" stroke-miterlimit="10"/>
<path d="M414.44 281.969C414.44 281.969 438.702 264.355 471.428 279.34" stroke="#263238" stroke-miterlimit="10"/>
<path d="M465.522 270.653L475.726 280.9L460.739 281.75" stroke="#263238" stroke-miterlimit="10"/>
<path d="M243.12 634.322L241.539 606.435C241.028 597.413 233.299 590.512 224.275 591.023L378.321 582.291C387.343 581.78 395.073 588.679 395.585 597.703L397.166 625.59C397.677 634.612 390.778 642.342 381.754 642.853L227.708 651.586C236.732 651.074 243.631 643.344 243.12 634.322Z" fill="#263238" stroke="#263238" stroke-miterlimit="10" stroke-linecap="round" stroke-linejoin="round"/>
<path d="M87.2287 601.01L85.322 599.907C84.8507 599.635 85.0215 598.916 85.5657 598.885L224.276 591.022C233.299 590.511 241.029 597.41 241.54 606.434L243.121 634.321C243.633 643.344 236.733 651.073 227.709 651.584L88.9975 659.447C88.4546 659.478 88.2036 658.783 88.6398 658.459L90.4096 657.148L87.2274 601.01L87.2287 601.01Z" fill="#949494" stroke="#263238" stroke-miterlimit="10" stroke-linecap="round" stroke-linejoin="round"/>
<path d="M217.597 593.62L87.2288 601.01L90.4111 657.149L220.779 649.759C231.89 649.13 240.386 639.612 239.756 628.502L238.854 612.597C238.224 601.486 228.707 592.99 217.597 593.62Z" fill="white" stroke="#263238" stroke-miterlimit="10" stroke-linecap="round" stroke-linejoin="round"/>
<path d="M233.589 603.08L179.468 606.148" stroke="#263238" stroke-miterlimit="10" stroke-linecap="round" stroke-linejoin="round"/>
<path d="M193.969 610.482L143.475 613.344" stroke="#263238" stroke-miterlimit="10" stroke-linecap="round" stroke-linejoin="round"/>
<path d="M163.79 618.563L212.168 615.82" stroke="#263238" stroke-miterlimit="10" stroke-linecap="round" stroke-linejoin="round"/>
<path d="M234.128 633.989L202.381 635.789" stroke="#263238" stroke-miterlimit="10" stroke-linecap="round" stroke-linejoin="round"/>
<path d="M210.801 639.861L163.331 642.552" stroke="#263238" stroke-miterlimit="10" stroke-linecap="round" stroke-linejoin="round"/>
<path d="M216.786 643.769L204.087 644.489" stroke="#263238" stroke-miterlimit="10" stroke-linecap="round" stroke-linejoin="round"/>
<path d="M180.371 632.789L99.6404 637.365" stroke="#263238" stroke-miterlimit="10" stroke-linecap="round" stroke-linejoin="round"/>
<path d="M89.531 624.896L106.16 623.953" stroke="#263238" stroke-miterlimit="10" stroke-linecap="round" stroke-linejoin="round"/>
<path d="M92.012 620.508L108.943 619.548" stroke="#263238" stroke-miterlimit="10" stroke-linecap="round" stroke-linejoin="round"/>
<path d="M93.5544 647.72L135.885 645.321" stroke="#263238" stroke-miterlimit="10" stroke-linecap="round" stroke-linejoin="round"/>
<path d="M246.938 573.057L245.357 545.171C244.845 536.147 237.117 529.248 228.093 529.759L382.139 521.027C391.161 520.515 398.89 527.415 399.401 536.438L400.982 564.325C401.494 573.348 394.594 581.078 385.572 581.589L231.527 590.321C240.55 589.81 247.449 582.08 246.938 573.057Z" fill="#8C8C8C" stroke="#263238" stroke-miterlimit="10" stroke-linecap="round" stroke-linejoin="round"/>
<path d="M91.0464 539.746L89.1397 538.643C88.6684 538.37 88.8393 537.652 89.3835 537.621L228.094 529.758C237.116 529.246 244.846 536.146 245.358 545.169L246.939 573.056C247.45 582.078 240.551 589.808 231.527 590.32L92.8165 598.183C92.2736 598.214 92.0213 597.519 92.4588 597.195L94.2287 595.884L91.0464 539.746Z" fill="#949494" stroke="#263238" stroke-miterlimit="10" stroke-linecap="round" stroke-linejoin="round"/>
<path d="M222.823 532.276L91.0464 539.746L94.2287 595.885L226.004 588.415C236.337 587.83 244.239 578.978 243.653 568.645L242.592 549.925C242.008 539.592 233.156 531.69 222.823 532.276Z" fill="white" stroke="#263238" stroke-miterlimit="10" stroke-linecap="round" stroke-linejoin="round"/>
<path d="M237.408 541.815L183.285 544.883" stroke="#263238" stroke-miterlimit="10" stroke-linecap="round" stroke-linejoin="round"/>
<path d="M197.788 549.218L147.294 552.08" stroke="#263238" stroke-miterlimit="10" stroke-linecap="round" stroke-linejoin="round"/>
<path d="M167.609 557.298L215.987 554.556" stroke="#263238" stroke-miterlimit="10" stroke-linecap="round" stroke-linejoin="round"/>
<path d="M237.947 572.725L206.199 574.524" stroke="#263238" stroke-miterlimit="10" stroke-linecap="round" stroke-linejoin="round"/>
<path d="M214.62 578.596L167.15 581.287" stroke="#263238" stroke-miterlimit="10" stroke-linecap="round" stroke-linejoin="round"/>
<path d="M220.605 582.504L207.905 583.224" stroke="#263238" stroke-miterlimit="10" stroke-linecap="round" stroke-linejoin="round"/>
<path d="M184.19 571.525L103.459 576.101" stroke="#263238" stroke-miterlimit="10" stroke-linecap="round" stroke-linejoin="round"/>
<path d="M93.3486 563.631L109.979 562.689" stroke="#263238" stroke-miterlimit="10" stroke-linecap="round" stroke-linejoin="round"/>
<path d="M95.8296 559.243L112.762 558.284" stroke="#263238" stroke-miterlimit="10" stroke-linecap="round" stroke-linejoin="round"/>
<path d="M97.3723 586.456L139.703 584.057" stroke="#263238" stroke-miterlimit="10" stroke-linecap="round" stroke-linejoin="round"/>
<path d="M121.933 628.894L133.667 615.75L146.785 627.485L142.764 556.541L117.912 557.95L121.933 628.894Z" fill="#263238" stroke="#263238" stroke-miterlimit="10" stroke-linecap="round" stroke-linejoin="round"/>
<path d="M463.675 621.82L462.094 593.933C461.583 584.91 468.482 577.18 477.506 576.669L323.46 585.401C314.438 585.912 307.537 593.641 308.048 602.665L309.629 630.552C310.141 639.574 317.869 646.475 326.893 645.963L480.939 637.231C471.917 637.742 464.187 630.842 463.675 621.82Z" fill="#92E3A9" stroke="#263238" stroke-miterlimit="10" stroke-linecap="round" stroke-linejoin="round"/>
<path d="M614.804 571.104L616.574 569.793C617.012 569.469 616.761 568.774 616.217 568.805L477.506 576.668C468.484 577.179 461.583 584.908 462.094 593.931L463.675 621.818C464.187 630.842 471.915 637.741 480.939 637.23L619.65 629.367C620.193 629.336 620.363 628.617 619.893 628.345L617.987 627.242L614.804 571.104Z" fill="#949494" stroke="#263238" stroke-miterlimit="10" stroke-linecap="round" stroke-linejoin="round"/>
<path d="M482.09 578.627L614.804 571.104L617.987 627.243L485.273 634.766C475.457 635.323 467.049 627.817 466.493 618.002L465.325 597.407C464.769 587.592 472.275 579.183 482.09 578.627Z" fill="white" stroke="#263238" stroke-miterlimit="10" stroke-linecap="round" stroke-linejoin="round"/>
<path d="M469.614 589.7L523.737 586.632" stroke="#263238" stroke-miterlimit="10" stroke-linecap="round" stroke-linejoin="round"/>
<path d="M509.817 592.578L560.311 589.716" stroke="#263238" stroke-miterlimit="10" stroke-linecap="round" stroke-linejoin="round"/>
<path d="M540.716 597.196L492.338 599.939" stroke="#263238" stroke-miterlimit="10" stroke-linecap="round" stroke-linejoin="round"/>
<path d="M472.572 620.473L504.32 618.673" stroke="#263238" stroke-miterlimit="10" stroke-linecap="round" stroke-linejoin="round"/>
<path d="M496.413 623.671L543.883 620.98" stroke="#263238" stroke-miterlimit="10" stroke-linecap="round" stroke-linejoin="round"/>
<path d="M490.907 628.23L503.608 627.51" stroke="#263238" stroke-miterlimit="10" stroke-linecap="round" stroke-linejoin="round"/>
<path d="M525.849 613.205L606.58 608.629" stroke="#263238" stroke-miterlimit="10" stroke-linecap="round" stroke-linejoin="round"/>
<path d="M615.216 595.097L598.586 596.04" stroke="#263238" stroke-miterlimit="10" stroke-linecap="round" stroke-linejoin="round"/>
<path d="M612.254 591.017L595.323 591.977" stroke="#263238" stroke-miterlimit="10" stroke-linecap="round" stroke-linejoin="round"/>
<path d="M613.797 618.23L571.466 620.629" stroke="#263238" stroke-miterlimit="10" stroke-linecap="round" stroke-linejoin="round"/>
<path d="M461.661 325.03C461.661 325.03 461.476 327.707 460.291 330.867C459.107 334.027 458.754 338.142 459.804 339.421C460.855 340.7 461.511 341.677 460.753 342.66C459.995 343.642 457.302 344.697 457.302 344.697C457.302 344.697 455.191 350.276 452.672 351.31C450.152 352.344 445.077 351.406 445.077 351.406C445.077 351.406 442.934 353.983 443.136 355.548C443.338 357.114 448.255 362.316 448.255 362.316C448.255 362.316 435.072 362.958 424.013 356.778C412.955 350.599 410.861 343.972 410.861 343.972C410.861 343.972 419.762 344.414 423.714 342.136C427.665 339.856 427.39 336.354 427.39 336.354C427.39 336.354 423.364 320.246 432.108 313.986C440.851 307.727 451.746 311.273 457.618 315.645C463.491 320.018 461.661 325.03 461.661 325.03Z" fill="white" stroke="#263238" stroke-miterlimit="10" stroke-linecap="round" stroke-linejoin="round"/>
<path d="M440.536 336.781C440.536 336.781 437.961 340.12 432.673 340.272C427.385 340.424 425.556 339.953 423.67 336.305C421.783 332.657 421.783 332.657 421.783 332.657C421.783 332.657 420.622 335.991 417.939 334.391C415.255 332.792 413.919 330.664 413.919 330.664C413.919 330.664 416.889 338.595 412.629 339.853C408.37 341.11 394.146 337.817 394.174 328.439C394.201 319.059 406.188 302.299 416.067 302.084C425.946 301.87 431.868 308.004 431.868 308.004C431.868 308.004 436.442 303.698 441.533 303.395C446.624 303.091 449.487 306.083 449.487 306.083C449.487 306.083 454.145 301.059 458.248 304.067C462.352 307.075 463.738 310.964 463.738 310.964C463.738 310.964 471.636 310.475 471.659 316.133C471.682 321.791 467.524 326.573 463.068 327.679C458.611 328.785 455.558 327.057 455.558 327.057C455.558 327.057 451.068 330.643 448.109 331.026C445.152 331.408 444.292 328.866 443.242 327.586C442.19 326.307 438.279 333.003 440.536 336.781Z" fill="#263238" stroke="#263238" stroke-miterlimit="10" stroke-linecap="round" stroke-linejoin="round"/>
<path d="M446.424 334.428C446.424 334.428 443.016 325.846 441.26 327.311C439.503 328.777 438.303 338.66 443.023 338.228" fill="white"/>
<path d="M446.424 334.428C446.424 334.428 443.016 325.846 441.26 327.311C439.503 328.777 438.303 338.66 443.023 338.228" stroke="#263238" stroke-miterlimit="10" stroke-linecap="round" stroke-linejoin="round"/>
<path d="M444.273 330.106L463.813 334.836" stroke="#263238" stroke-miterlimit="10" stroke-linecap="round" stroke-linejoin="round"/>
<path d="M460.796 329.467C461.309 329.489 461.816 329.622 462.283 329.878C464.155 330.899 464.713 333.485 463.53 335.653C462.513 337.519 460.539 338.469 458.816 338.05" stroke="#263238" stroke-miterlimit="10" stroke-linecap="round" stroke-linejoin="round"/>
<path d="M447.925 361.123C447.925 361.123 434.05 357.785 424.732 351.381C415.415 344.978 410.592 341.886 405.631 341.82C400.669 341.752 394.04 343.847 391.503 346.121C388.967 348.395 385.268 354.003 385.268 354.003C385.268 354.003 365.339 370.905 361.483 375.295C357.627 379.685 343.093 406.858 341.174 411.174C339.254 415.491 333.451 422.608 333.451 422.608C333.451 422.608 317.387 426.982 316.455 427.987C315.524 428.992 313.364 438.292 313.302 439.185C313.241 440.078 319.352 439.465 320.7 438.937C322.047 438.409 322.861 435.119 322.861 435.119C322.861 435.119 332.538 433.339 335.164 431.762C337.791 430.184 340.367 426.844 340.82 426.254C341.275 425.664 369.583 398.305 371.312 395.251C373.04 392.198 374.836 389.666 374.836 389.666L387.908 382.672L385.826 389.84C385.826 389.84 376.83 398.255 373.693 402.728C370.556 407.202 369.086 409.515 369.086 409.515C369.086 409.515 356.683 420.315 355.028 430.788C353.374 441.262 354.401 488.94 353.166 495.821C351.931 502.702 346.259 514.933 343.588 521.647C340.918 528.361 341.35 538.564 340.824 548.185C340.297 557.805 339.525 570.995 339.418 571.54C339.312 572.084 337.337 578.708 337.09 582.278C336.843 585.847 340.11 586.487 341.872 586.435C343.635 586.385 346.743 585.807 348.219 584.908C349.695 584.009 353.501 583.342 355.218 582.943C356.935 582.544 358.411 581.646 359.186 579.424C359.96 577.201 358.214 576.011 357.446 574.165C356.677 572.319 353.612 567.762 353.297 565.325C352.983 562.889 356.966 547.162 363.953 536.884C370.941 526.606 374.553 510.749 376.164 505.412C377.775 500.074 389.708 460.982 389.708 460.982C389.708 460.982 410.424 496.742 414.01 501.231C417.598 505.721 418.209 506.35 420.888 517.502C423.567 528.654 431.908 541.198 437.074 548.315C442.238 555.431 443.873 566.719 443.873 566.719C443.873 566.719 442.246 573.297 444.127 575.531C446.007 577.765 456.689 576.916 458.451 576.865C460.214 576.815 464.811 578.166 468.812 577.65C472.813 577.133 476.349 574.377 475.95 572.66C475.551 570.943 473.357 571.757 472.004 570.87C470.651 569.982 461.334 563.579 461.334 563.579L454.513 555.969C454.513 555.969 451.481 543.447 450.655 538.423C449.83 533.4 445.635 507.761 444.214 500.868C442.792 493.976 438.058 471.013 434.571 459.079C431.084 447.147 427.137 434.39 427.137 434.39C427.137 434.39 428.141 418.87 428.151 416.215C428.163 413.561 428.061 410.036 428.061 410.036L441.89 396.575C441.89 396.575 474.665 407.91 481.972 406.966C489.28 406.021 502.261 392.848 507.021 385.864C511.78 378.881 521.264 367.397 521.264 367.397L526.551 361.761C526.551 361.761 526.14 357.214 525.243 355.738C524.344 354.262 523.884 353.437 523.884 353.437C523.884 353.437 524.72 350.321 522.368 349.918C520.017 349.514 517.929 349.783 517.277 350.221C516.627 350.659 514.825 351.776 514.825 351.776C514.825 351.776 515.678 352.904 513.77 354.565C511.862 356.226 510.342 356.778 510.342 356.778C510.342 356.778 509.819 356.845 509.871 358.608C509.921 360.371 509.641 366.421 509.641 366.421C509.641 366.421 501.447 374.201 498.494 375.998C495.542 377.794 485.771 382.948 485.771 382.948L469.044 379.448C469.044 379.448 458.225 362.8 447.925 361.123Z" fill="white" stroke="#263238" stroke-miterlimit="10" stroke-linecap="round" stroke-linejoin="round"/>
<path d="M317.296 438.854L316.368 437.752L318.71 430.69" stroke="#263238" stroke-miterlimit="10" stroke-linecap="round" stroke-linejoin="round"/>
<path d="M313.305 439.182L316.807 430.221" stroke="#263238" stroke-miterlimit="10" stroke-linecap="round" stroke-linejoin="round"/>
<path d="M322.862 435.118L319.994 435.526" stroke="#263238" stroke-miterlimit="10" stroke-linecap="round" stroke-linejoin="round"/>
<path d="M453.129 550.099C452.215 546.144 451.106 541.165 450.655 538.422C449.83 533.398 445.635 507.76 444.214 500.867C442.793 493.974 438.058 471.011 434.571 459.078C431.084 447.146 427.138 434.388 427.138 434.388C427.138 434.388 427.326 431.475 427.54 427.958C421.938 429.495 411.733 430.998 396.734 428.299C379.813 425.253 369.12 418.342 364.203 414.445C360.534 418.569 355.987 424.73 355.029 430.786C353.375 441.259 354.402 488.937 353.167 495.818C351.932 502.7 346.26 514.93 343.589 521.645C340.919 528.358 341.351 538.561 340.825 548.182C340.709 550.302 340.582 552.596 340.451 554.889C346.456 557.347 351.908 556.482 355.491 555.275C357.31 549.509 360.197 542.408 363.954 536.88C370.942 526.602 374.554 510.745 376.165 505.408C377.776 500.07 389.709 460.978 389.709 460.978C389.709 460.978 410.425 496.738 414.011 501.227C417.599 505.717 418.21 506.346 420.889 517.498C423.568 528.65 431.909 541.194 437.075 548.311C438.132 549.766 439.038 551.398 439.816 553.07C445.927 553.102 450.223 551.696 453.129 550.099Z" fill="#263238" stroke="#263238" stroke-miterlimit="10" stroke-linecap="round" stroke-linejoin="round"/>
<path d="M469.043 379.446C469.043 379.446 458.225 362.8 447.926 361.123C447.926 361.123 434.05 357.785 424.732 351.381C415.415 344.978 410.592 341.886 405.631 341.819C400.669 341.752 394.04 343.847 391.503 346.121C388.967 348.395 385.268 354.002 385.268 354.002C385.268 354.002 375.073 362.649 367.856 369.18C368.159 372.83 369.068 377.833 371.711 380.519C374.682 383.539 378.523 385.505 380.775 386.49L387.91 382.673L385.828 389.841C385.828 389.841 376.832 398.256 373.695 402.729C370.558 407.203 369.087 409.516 369.087 409.516C369.087 409.516 365.31 412.808 361.646 417.517C366.062 421.125 380.593 431.89 400.354 435.196C413.224 437.35 421.886 436.032 427.14 434.363C427.178 433.783 428.141 418.82 428.153 416.216C428.164 413.562 428.062 410.037 428.062 410.037L441.891 396.576C441.891 396.576 449.309 399.14 457.872 401.728C461.272 398.252 466.637 391.25 469.676 379.58L469.043 379.446Z" fill="#92E3A9" stroke="#263238" stroke-miterlimit="10" stroke-linecap="round" stroke-linejoin="round"/>
<path d="M388.355 367.17L388.418 365.012" stroke="#263238" stroke-miterlimit="10" stroke-linecap="round" stroke-linejoin="round"/>
<path d="M387.909 382.67L388.279 369.856" stroke="#263238" stroke-miterlimit="10" stroke-linecap="round" stroke-linejoin="round"/>
<path d="M423.559 364.745C419.261 366.381 413.457 369.031 408.754 372.769" stroke="#263238" stroke-miterlimit="10" stroke-linecap="round" stroke-linejoin="round"/>
<path d="M429.657 362.729C429.657 362.729 428.518 363.025 426.692 363.63" stroke="#263238" stroke-miterlimit="10" stroke-linecap="round" stroke-linejoin="round"/>
<path d="M411.639 367.384C411.639 367.384 403.824 373.406 402.069 375.064" stroke="#263238" stroke-miterlimit="10" stroke-linecap="round" stroke-linejoin="round"/>
<path d="M441.89 396.574L435.284 397.987" stroke="#263238" stroke-miterlimit="10" stroke-linecap="round" stroke-linejoin="round"/>
<path d="M475.95 572.657C475.551 570.94 473.357 571.754 472.003 570.867C471.276 570.391 468.255 568.325 465.61 566.512C465.746 567.154 465.889 568.076 465.83 568.938C465.725 570.45 465.725 570.45 465.725 570.45C465.725 570.45 454.61 569.452 449.24 568.084C447.017 567.517 445.213 567.093 443.853 566.788C443.686 567.496 442.357 573.429 444.124 575.528C446.005 577.762 456.686 576.914 458.448 576.862C460.211 576.812 464.808 578.163 468.809 577.648C472.813 577.132 476.349 574.376 475.95 572.657Z" fill="white" stroke="#263238" stroke-miterlimit="10" stroke-linecap="round" stroke-linejoin="round"/>
<path d="M359.187 579.422C359.961 577.2 358.216 576.01 357.447 574.163C357.224 573.625 356.802 572.853 356.314 571.976L356.268 572.002C356.268 572.002 355.765 575.063 354.329 575.548C352.893 576.033 352.599 576.071 347.655 574.912C345.092 574.31 341.828 573.885 338.805 573.838C338.17 576.229 337.253 579.916 337.091 582.276C336.844 585.847 340.111 586.485 341.873 586.435C343.636 586.385 346.744 585.807 348.22 584.908C349.696 584.009 353.502 583.342 355.219 582.942C356.938 582.543 358.414 581.645 359.187 579.422Z" fill="white" stroke="#263238" stroke-miterlimit="10" stroke-linecap="round" stroke-linejoin="round"/>
<path d="M514.824 351.776L509.099 349.273C508.287 348.918 507.345 349.214 506.88 349.968C506.757 350.167 506.619 350.397 506.463 350.664C505.258 352.735 506.819 353.417 506.819 353.417L512.157 355.968C512.157 355.968 514.741 353.683 514.824 351.776Z" fill="#92E3A9" stroke="#263238" stroke-miterlimit="10" stroke-linecap="round" stroke-linejoin="round"/>
</g>
<defs>
<clipPath id="clip0_55_10924">
<rect width="652" height="652" fill="white" transform="translate(0 36.9001) rotate(-3.2444)"/>
</clipPath>
</defs>
</svg>
