<svg width="626" height="626" viewBox="0 0 626 626" fill="none" xmlns="http://www.w3.org/2000/svg">
<path d="M420.43 95.5289C375.31 88.584 328.848 96.1561 294.099 124.356C260.322 151.767 244.958 197.637 209.7 223.114C155.194 262.501 77.9095 249.416 46.3716 320.192C35.1137 345.457 32.1527 373.686 32.527 401.344C32.9953 435.984 38.6405 471.034 53.6007 502.28C68.5608 533.526 93.4731 560.77 125.358 574.315C172.399 594.299 226.924 582.364 274.153 562.827C293.635 554.767 313.193 545.321 334.248 544.218C360.768 542.828 385.864 554.78 411.053 563.192C441.281 573.288 474.762 578.373 504.769 567.636C528.256 559.231 547.561 541.814 563.048 522.258C590.607 487.461 607.852 444.596 612.072 400.408C624.099 274.41 559.086 116.872 420.43 95.5289Z" fill="#92E3A9"/>
<path opacity="0.7" d="M420.43 95.5289C375.31 88.584 328.848 96.1561 294.099 124.356C260.322 151.767 244.958 197.637 209.7 223.114C155.194 262.501 77.9095 249.416 46.3716 320.192C35.1137 345.457 32.1527 373.686 32.527 401.344C32.9953 435.984 38.6405 471.034 53.6007 502.28C68.5608 533.526 93.4731 560.77 125.358 574.315C172.399 594.299 226.924 582.364 274.153 562.827C293.635 554.767 313.193 545.321 334.248 544.218C360.768 542.828 385.864 554.78 411.053 563.192C441.281 573.288 474.762 578.373 504.769 567.636C528.256 559.231 547.561 541.814 563.048 522.258C590.607 487.461 607.852 444.596 612.072 400.408C624.099 274.41 559.086 116.872 420.43 95.5289Z" fill="white"/>
<path d="M355.634 293.392C348.547 295.992 331.681 294.593 331.669 294.593C331.494 294.578 335.965 283.756 336.326 283.105C340.498 275.575 352.989 263.483 362.446 265.346C369.259 266.69 372.665 273.794 370.725 280.168C368.743 286.679 361.67 291.178 355.634 293.392Z" fill="#92E3A9"/>
<path d="M137.861 222.568C147.489 222.114 158.069 235.909 161.091 243.97C161.351 244.667 164.185 256.029 164.008 256.016C164.008 256.016 163.844 256.005 163.804 256.001C165.492 258.166 167.273 260.507 169.171 263.104C172.637 267.928 176.508 273.407 180.317 279.657C184.142 285.893 188.122 292.774 191.66 300.401C195.215 308.042 198.566 316.261 200.923 325.176C200.95 325.276 200.965 325.385 200.991 325.486C201.111 322.664 201.711 314.785 201.826 314.187C203.445 305.733 211.539 290.348 221.108 289.168C227.999 288.321 233.45 294.007 233.594 300.669C233.74 307.472 228.424 313.952 223.379 317.939C217.691 322.435 202.427 326.201 201.211 326.498C203.379 335.006 204.91 343.917 205.966 353.016C206.575 358.22 207.026 363.479 207.41 368.759C207.593 366.321 207.773 364.145 207.833 363.844C209.452 355.388 217.546 340.006 227.114 338.826C234.007 337.976 239.457 343.666 239.6 350.327C239.748 357.13 234.431 363.61 229.386 367.596C224.268 371.641 211.319 375.114 207.881 375.987C208.006 378.013 208.156 380.036 208.275 382.064C208.847 391.79 209.374 401.498 210.186 411.004C210.469 414.354 210.872 417.642 211.262 420.934C211.428 418.771 211.584 416.95 211.637 416.676C213.256 408.22 221.35 392.836 230.915 391.657C237.81 390.809 243.261 396.497 243.405 403.16C243.551 409.961 238.233 416.443 233.189 420.428C228.306 424.289 216.381 427.601 212.299 428.658C212.801 432.018 213.298 435.383 213.937 438.616C214.422 440.813 214.738 442.961 215.348 445.142C215.906 447.312 216.459 449.463 217.008 451.59C218.215 455.65 219.433 459.847 220.709 463.777C221.575 466.519 222.453 469.114 223.327 471.731C223.006 468.401 222.513 461.864 222.534 461.314C222.747 455.599 225.334 446.443 229.761 440.163C229.787 439.319 229.886 438.48 230.07 437.654C231.521 431.151 237.984 426.645 244.577 428.834C253.725 431.869 258.638 448.546 258.56 457.151C258.557 457.66 257.892 463.162 257.415 466.628C258.007 464.633 258.554 462.69 259.188 460.645C260.411 456.592 261.752 452.583 263.175 448.262C263.937 446.201 264.707 444.119 265.484 442.016C266.209 439.915 267.244 437.788 268.123 435.648C270.264 430.732 272.676 425.852 275.211 420.991C271.663 419.912 259.123 415.897 254.246 411.664C249.39 407.452 244.375 400.733 244.832 393.946C245.282 387.297 250.986 381.864 257.833 383.028C267.336 384.643 274.72 400.383 275.949 408.903C276.026 409.435 276.22 415.646 276.261 419.061C277.807 416.152 279.339 413.239 281 410.345C285.793 401.992 290.905 393.686 295.971 385.379C297.524 382.835 299.04 380.282 300.568 377.732C299.301 377.36 284.292 372.911 278.828 368.171C273.973 363.958 268.957 357.241 269.415 350.451C269.864 343.804 275.569 338.369 282.415 339.536C291.919 341.151 299.302 356.89 300.531 365.41C300.623 366.052 300.889 374.99 300.847 377.266C304.21 371.649 307.507 366.02 310.535 360.336C314.721 352.502 318.395 344.583 321.388 336.649C320.797 336.476 305.112 331.903 299.516 327.047C294.659 322.834 289.645 316.117 290.103 309.328C290.552 302.68 296.257 297.249 303.104 298.412C312.607 300.027 319.989 315.767 321.218 324.286C321.314 324.954 321.596 334.572 321.522 336.317C321.7 335.846 321.937 335.377 322.107 334.905C325.193 326.391 327.115 317.759 328.52 309.588C329.345 304.843 329.867 300.261 330.275 295.791C327.266 295.239 313.545 292.562 308.026 288.75C302.735 285.094 297.013 278.968 296.723 272.171C296.438 265.514 301.514 259.486 308.445 259.891C318.068 260.454 327.135 275.287 329.292 283.619C329.41 284.074 330.093 288.811 330.54 292.269C330.693 290.25 330.891 288.167 330.999 286.23C331.423 278.953 331.365 272.262 331.267 266.338C331.183 262.969 331.04 259.924 330.875 257.078C328.207 254.995 317.552 246.469 314.469 240.648C311.457 234.967 309.203 226.895 312.077 220.728C314.893 214.688 322.175 211.678 328.139 215.231C336.421 220.165 337.632 237.507 335.709 245.898C335.541 246.621 331.635 257.662 331.494 257.556C331.494 257.556 331.364 257.455 331.334 257.431C331.547 260.167 331.742 263.104 331.891 266.317C332.123 272.251 332.327 278.957 332.057 286.272C331.805 293.583 331.33 301.519 330.072 309.832C328.823 318.166 327.084 326.87 324.131 335.605C324.098 335.704 324.05 335.803 324.016 335.9C325.674 333.613 330.522 327.374 330.949 326.937C336.962 320.779 352.2 312.414 360.83 316.707C367.048 319.803 368.457 327.554 364.9 333.19C361.268 338.945 353.259 341.415 346.854 341.957C339.629 342.57 324.82 337.291 323.643 336.866C320.754 345.16 317.118 353.437 312.976 361.609C310.615 366.284 308.09 370.919 305.499 375.535C306.995 373.604 308.347 371.889 308.562 371.667C314.577 365.508 329.817 357.144 338.443 361.44C344.663 364.534 346.069 372.283 342.515 377.921C338.886 383.677 330.872 386.148 324.468 386.689C317.967 387.241 305.253 382.992 301.901 381.824C300.889 383.585 299.899 385.353 298.879 387.108C293.99 395.536 289.077 403.925 284.507 412.3C282.896 415.251 281.417 418.216 279.926 421.178C281.257 419.464 282.392 418.032 282.588 417.83C288.601 411.673 303.84 403.305 312.47 407.601C318.688 410.696 320.096 418.447 316.542 424.082C312.91 429.838 304.901 432.311 298.494 432.851C292.289 433.379 280.519 429.562 276.532 428.193C275.097 431.271 273.653 434.353 272.404 437.401C271.596 439.502 270.671 441.468 269.981 443.622C269.249 445.741 268.525 447.839 267.808 449.917C266.575 453.968 265.275 458.142 264.172 462.123C263.382 464.888 262.681 467.537 261.967 470.202C263.537 467.246 266.732 461.525 267.054 461.075C272.063 454.077 285.86 443.501 295.042 446.438C301.657 448.555 304.222 456.003 301.56 462.112C298.845 468.351 291.301 472.008 285.053 473.515C278.171 475.173 263.326 472.385 261.473 472.023C260.307 476.439 259.214 480.745 258.249 484.826C258.04 485.698 257.867 486.491 257.668 487.345H251.703C252.03 486.059 252.359 484.771 252.709 483.44C253.874 478.951 255.209 474.179 256.627 469.29C255.529 468.775 249.306 465.809 243.842 462.31C238.596 467.347 225.6 472.827 223.919 473.523C225.381 477.85 226.847 482.044 228.293 485.979C228.466 486.453 228.633 486.883 228.803 487.346H222.728C221.282 483.107 219.822 478.583 218.369 473.916C216.536 474.185 201.546 476.3 194.737 474.326C188.564 472.535 181.194 468.536 178.765 462.178C176.387 455.956 179.294 448.633 186 446.821C195.304 444.306 208.602 455.505 213.286 462.727C213.564 463.152 216.045 468.11 217.559 471.263C216.951 469.275 216.339 467.35 215.737 465.294C214.519 461.239 213.426 457.156 212.233 452.768C211.729 450.629 211.224 448.468 210.71 446.285C210.158 444.132 209.845 441.786 209.398 439.517C208.47 434.234 207.791 428.835 207.223 423.383C203.67 424.437 190.996 428.009 184.592 427.167C178.218 426.331 170.331 423.496 166.967 417.58C163.673 411.788 165.435 404.108 171.788 401.301C180.606 397.407 195.447 406.463 201.171 412.89C201.528 413.289 205.118 418.365 207.034 421.189C206.72 417.909 206.39 414.636 206.179 411.306C205.571 401.695 205.254 391.947 204.893 382.223C204.786 379.245 204.642 376.279 204.508 373.309C203.247 373.698 188.276 378.268 181.103 377.328C174.728 376.494 166.839 373.657 163.477 367.74C160.183 361.949 161.946 354.27 168.299 351.464C177.115 347.569 191.957 356.623 197.681 363.051C198.111 363.536 203.266 370.845 204.485 372.768C204.191 366.226 203.836 359.711 203.226 353.302C202.397 344.459 201.092 335.826 199.212 327.557C198.626 327.741 183.02 332.579 175.674 331.616C169.299 330.781 161.41 327.944 158.046 322.028C154.753 316.238 156.515 308.558 162.868 305.751C171.687 301.856 186.525 310.912 192.251 317.338C192.699 317.843 198.24 325.709 199.143 327.206C199.03 326.716 198.967 326.194 198.848 325.705C196.728 316.904 193.569 308.642 190.231 301.053C188.302 296.64 186.209 292.529 184.084 288.575C181.268 289.774 168.348 295.113 161.641 294.977C155.213 294.847 147.06 292.894 143.068 287.384C139.158 281.989 140.067 274.163 146.072 270.675C154.409 265.836 170.153 273.206 176.549 278.967C176.898 279.279 180.08 282.856 182.361 285.494C181.376 283.723 180.391 281.879 179.413 280.203C175.753 273.898 172.013 268.35 168.662 263.463C166.734 260.701 164.936 258.241 163.228 255.956C159.854 255.693 146.264 254.459 140.479 251.306C134.837 248.228 128.499 242.739 127.495 236.008C126.513 229.421 130.927 222.894 137.861 222.568Z" fill="#92E3A9"/>
<path d="M184.582 286.809C184.428 286.893 182.187 275.4 182.128 274.659C181.457 266.078 185.203 249.102 194.121 245.438C200.544 242.799 207.304 246.847 209.199 253.235C211.137 259.755 207.722 267.411 203.908 272.588C199.434 278.665 184.592 286.802 184.582 286.809Z" fill="#92E3A9"/>
<path d="M179.25 466.396C179.25 466.396 141.292 465.918 132.412 451.723H33.2507C33.2507 451.723 41.2761 466.266 53.8286 466.396H179.25Z" fill="white" stroke="#263238" stroke-miterlimit="10"/>
<path d="M129.529 456.402H48.7554C48.7554 456.402 50.2515 459.689 46.1375 461.483C46.1375 461.483 49.1285 464.771 55.4861 465.967H158.323C158.323 465.967 145.234 464.771 138.129 460.587C138.129 460.587 129.904 461.783 129.529 456.402Z" fill="white" stroke="#263238" stroke-miterlimit="10"/>
<path d="M164.277 579.897H392.163V551.702H164.277V579.897Z" fill="#263238" stroke="#263238" stroke-miterlimit="10"/>
<path d="M38.8544 579.897H266.741V551.702H38.8544V579.897Z" fill="white" stroke="#263238" stroke-miterlimit="10"/>
<path d="M265.174 559.22H209.519" stroke="#263238" stroke-miterlimit="10"/>
<path d="M254.2 565.486H173.46" stroke="#263238" stroke-miterlimit="10"/>
<path d="M222.06 571.125H236.17" stroke="#263238" stroke-miterlimit="10"/>
<path d="M241.657 571.125H264.39" stroke="#263238" stroke-miterlimit="10"/>
<path d="M40.1992 569.872H111.533" stroke="#263238" stroke-miterlimit="10"/>
<path d="M46.4705 566.112H55.8767" stroke="#263238" stroke-miterlimit="10"/>
<path d="M99.7745 565.486H68.4194" stroke="#263238" stroke-miterlimit="10"/>
<path d="M40.1992 557.966H67.6355" stroke="#263238" stroke-miterlimit="10"/>
<path d="M389.028 563.605H374.918" stroke="#8A8A8A" stroke-miterlimit="10"/>
<path d="M392.163 569.872H348.265" stroke="#8A8A8A" stroke-miterlimit="10"/>
<path d="M269.094 573.631H290.258" stroke="#8A8A8A" stroke-miterlimit="10"/>
<path d="M266.741 563.605H323.965" stroke="#8A8A8A" stroke-miterlimit="10"/>
<path d="M373.35 555.461H340.426" stroke="#8A8A8A" stroke-miterlimit="10"/>
<path d="M142.887 579.27H169.54V551.701H142.887V579.27Z" fill="white" stroke="#263238" stroke-miterlimit="10"/>
<path d="M161.352 551.462H389.239V523.267H161.352V551.462Z" fill="#263238" stroke="#263238" stroke-miterlimit="10"/>
<path d="M35.9314 551.462H263.818V523.267H35.9314V551.462Z" fill="white" stroke="#263238" stroke-miterlimit="10"/>
<path d="M262.25 530.785H206.594" stroke="#263238" stroke-miterlimit="10"/>
<path d="M251.275 537.05H170.535" stroke="#263238" stroke-miterlimit="10"/>
<path d="M219.136 542.689H233.247" stroke="#263238" stroke-miterlimit="10"/>
<path d="M238.733 542.689H261.466" stroke="#263238" stroke-miterlimit="10"/>
<path d="M37.2759 541.436H108.609" stroke="#263238" stroke-miterlimit="10"/>
<path d="M43.5459 537.678H52.9534" stroke="#263238" stroke-miterlimit="10"/>
<path d="M96.8497 537.05H65.4946" stroke="#263238" stroke-miterlimit="10"/>
<path d="M37.2759 529.532H64.711" stroke="#263238" stroke-miterlimit="10"/>
<path d="M386.103 535.171H371.993" stroke="#8A8A8A" stroke-miterlimit="10"/>
<path d="M389.239 541.436H345.342" stroke="#8A8A8A" stroke-miterlimit="10"/>
<path d="M266.169 545.196H287.334" stroke="#8A8A8A" stroke-miterlimit="10"/>
<path d="M263.818 535.171H321.041" stroke="#8A8A8A" stroke-miterlimit="10"/>
<path d="M370.426 527.026H337.503" stroke="#8A8A8A" stroke-miterlimit="10"/>
<path d="M139.964 550.836H166.616V523.267H139.964V550.836Z" fill="white" stroke="#263238" stroke-miterlimit="10"/>
<path d="M170.612 523.026H398.499V494.831H170.612V523.026Z" fill="#263238" stroke="#263238" stroke-miterlimit="10"/>
<path d="M45.1896 523.026H273.076V494.831H45.1896V523.026Z" fill="white" stroke="#263238" stroke-miterlimit="10"/>
<path d="M271.509 502.35H215.854" stroke="#263238" stroke-miterlimit="10"/>
<path d="M260.535 508.616H179.795" stroke="#263238" stroke-miterlimit="10"/>
<path d="M228.395 514.255H242.505" stroke="#263238" stroke-miterlimit="10"/>
<path d="M247.992 514.255H270.725" stroke="#263238" stroke-miterlimit="10"/>
<path d="M46.5344 513.002H117.868" stroke="#263238" stroke-miterlimit="10"/>
<path d="M52.8057 509.242H62.2119" stroke="#263238" stroke-miterlimit="10"/>
<path d="M106.109 508.616H74.7544" stroke="#263238" stroke-miterlimit="10"/>
<path d="M46.5344 501.097H73.9708" stroke="#263238" stroke-miterlimit="10"/>
<path d="M395.363 506.736H381.253" stroke="#8A8A8A" stroke-miterlimit="10"/>
<path d="M398.498 513.002H354.6" stroke="#8A8A8A" stroke-miterlimit="10"/>
<path d="M275.429 516.76H296.593" stroke="#8A8A8A" stroke-miterlimit="10"/>
<path d="M273.076 506.736H330.3" stroke="#8A8A8A" stroke-miterlimit="10"/>
<path d="M379.685 498.59H346.761" stroke="#8A8A8A" stroke-miterlimit="10"/>
<path d="M149.222 522.4H175.875V494.831H149.222V522.4Z" fill="white" stroke="#263238" stroke-miterlimit="10"/>
<path d="M163.544 494.592H391.43V466.397H163.544V494.592Z" fill="#263238" stroke="#263238" stroke-miterlimit="10"/>
<path d="M38.1227 494.592H266.009V466.397H38.1227V494.592Z" fill="white" stroke="#263238" stroke-miterlimit="10"/>
<path d="M264.441 473.915H208.786" stroke="#263238" stroke-miterlimit="10"/>
<path d="M253.468 480.181H172.727" stroke="#263238" stroke-miterlimit="10"/>
<path d="M221.327 485.82H235.437" stroke="#263238" stroke-miterlimit="10"/>
<path d="M240.925 485.82H263.658" stroke="#263238" stroke-miterlimit="10"/>
<path d="M39.467 484.567H110.801" stroke="#263238" stroke-miterlimit="10"/>
<path d="M45.7383 480.807H55.1446" stroke="#263238" stroke-miterlimit="10"/>
<path d="M99.0421 480.181H67.687" stroke="#263238" stroke-miterlimit="10"/>
<path d="M39.467 472.663H66.9034" stroke="#263238" stroke-miterlimit="10"/>
<path d="M388.295 478.302H374.185" stroke="#8A8A8A" stroke-miterlimit="10"/>
<path d="M391.43 484.567H347.533" stroke="#8A8A8A" stroke-miterlimit="10"/>
<path d="M268.361 488.326H289.526" stroke="#8A8A8A" stroke-miterlimit="10"/>
<path d="M266.009 478.302H323.233" stroke="#8A8A8A" stroke-miterlimit="10"/>
<path d="M372.618 470.156H339.694" stroke="#8A8A8A" stroke-miterlimit="10"/>
<path d="M142.157 493.965H168.808V466.396H142.157V493.965Z" fill="white" stroke="#263238" stroke-miterlimit="10"/>
<path d="M572.815 148.512H354.667V579.896H572.815V148.512Z" fill="#263238" stroke="#263238" stroke-miterlimit="10"/>
<path d="M549.232 150.478V225.16" stroke="#8A8A8A" stroke-miterlimit="10"/>
<path d="M562.989 169.149V200.593" stroke="#8A8A8A" stroke-miterlimit="10"/>
<path d="M556.111 162.271V274.292" stroke="#8A8A8A" stroke-miterlimit="10"/>
<path d="M567.902 148.512V294.927" stroke="#8A8A8A" stroke-miterlimit="10"/>
<path d="M551.197 578.914V502.267" stroke="#8A8A8A" stroke-miterlimit="10"/>
<path d="M559.058 579.896V563.192" stroke="#8A8A8A" stroke-miterlimit="10"/>
<path d="M561.024 557.295V489.493" stroke="#8A8A8A" stroke-miterlimit="10"/>
<path d="M552.179 492.44V381.402" stroke="#8A8A8A" stroke-miterlimit="10"/>
<path d="M542.353 148.512H324.204V579.896H542.353V148.512Z" fill="#92E3A9" stroke="#263238" stroke-miterlimit="10"/>
<path d="M523.683 178.975C514.789 178.975 507.538 172.019 507.027 163.252H359.531C359.019 172.019 351.769 178.975 342.875 178.975C341.867 178.975 340.886 178.871 339.927 178.699V540.867C340.886 540.695 341.867 540.591 342.875 540.591C352.101 540.591 359.581 548.071 359.581 557.297C359.581 560.14 358.866 562.814 357.614 565.158H508.947C507.694 562.814 506.98 560.14 506.98 557.297C506.98 548.071 514.459 540.591 523.685 540.591C524.693 540.591 525.675 540.696 526.634 540.867V178.699C525.672 178.871 524.691 178.975 523.683 178.975ZM428.858 429.551C394.396 429.551 366.459 399.195 366.459 361.748C366.459 324.302 394.396 293.945 428.858 293.945C463.319 293.945 491.256 324.301 491.256 361.748C491.256 399.194 463.319 429.551 428.858 429.551Z" fill="white" stroke="#263238" stroke-miterlimit="10"/>
<path d="M572.416 338.164H325.187V382.383H572.416V338.164Z" fill="white" stroke="#263238" stroke-miterlimit="10"/>
<path d="M572.417 338.164H542.83V382.383H572.417V338.164Z" fill="#3D3D3D" stroke="#8A8A8A" stroke-miterlimit="10"/>
<path d="M85.9911 553.066L78.7044 563.997L64.4617 575.259V579.896H113.153L111.497 563.665V556.379C111.497 556.379 91.6226 547.766 85.9911 553.066Z" fill="#263238" stroke="#263238" stroke-miterlimit="10"/>
<path d="M112.713 575.591H64.4604V579.896H113.152L112.713 575.591Z" fill="white" stroke="#263238" stroke-miterlimit="10"/>
<path d="M166.39 553.066L174.156 563.997L189.336 575.259V579.896H137.441L139.206 563.665V556.379C139.206 556.379 160.388 547.766 166.39 553.066Z" fill="#263238" stroke="#263238" stroke-miterlimit="10"/>
<path d="M137.909 575.591H189.336V579.896H137.441L137.909 575.591Z" fill="white" stroke="#263238" stroke-miterlimit="10"/>
<path d="M64.2703 326.374C64.2703 326.374 75.6397 454.679 76.451 479.04C77.2635 503.402 84.9771 536.29 84.9771 536.29L81.3225 541.975L84.9771 554.561C84.9771 554.561 93.5032 552.531 97.9704 554.155C102.436 555.779 110.557 557.81 110.557 557.81C110.557 557.81 114.617 546.847 115.023 541.975C115.428 537.102 110.15 525.327 110.15 525.327L109.337 378.75H116.646L135.324 533.853L134.511 543.191L138.166 557.809C138.166 557.809 159.685 553.343 161.309 552.936C162.933 552.53 164.964 553.341 164.964 553.341C164.964 553.341 167.4 548.063 167.4 546.439C167.4 544.815 164.152 535.477 164.152 535.477L163.34 462.798V333.683V325.157L64.269 323.127L64.2703 326.374Z" fill="#92E3A9" stroke="#263238" stroke-miterlimit="10"/>
<path d="M159.907 383.041L162.124 431.572L152.67 432.431V438.447L159.545 438.876" stroke="#263238" stroke-miterlimit="10" stroke-linecap="round" stroke-linejoin="round"/>
<path d="M158.257 346.925L159.689 378.286" stroke="#263238" stroke-miterlimit="10" stroke-linecap="round" stroke-linejoin="round"/>
<path d="M154.117 467.26C154.435 475.931 155.123 483.461 156.539 483.992C159.976 485.281 160.836 486.57 160.836 486.57" stroke="#263238" stroke-miterlimit="10" stroke-linecap="round" stroke-linejoin="round"/>
<path d="M153.96 440.164C153.96 440.164 153.738 451.131 153.97 462.096" stroke="#263238" stroke-miterlimit="10" stroke-linecap="round" stroke-linejoin="round"/>
<path d="M99.3914 374.424L116.579 375.714" stroke="#263238" stroke-miterlimit="10" stroke-linecap="round" stroke-linejoin="round"/>
<path d="M104.977 333.176L105.406 357.238L113.141 362.823" stroke="#263238" stroke-miterlimit="10" stroke-linecap="round" stroke-linejoin="round"/>
<path d="M113.141 341.77L114.429 371.417" stroke="#263238" stroke-miterlimit="10" stroke-linecap="round" stroke-linejoin="round"/>
<path d="M107.839 479.277L108.415 508.913" stroke="#263238" stroke-miterlimit="10" stroke-linecap="round" stroke-linejoin="round"/>
<path d="M105.837 376.143L107.697 471.958" stroke="#263238" stroke-miterlimit="10" stroke-linecap="round" stroke-linejoin="round"/>
<path d="M140.64 345.636C140.64 345.636 146.656 358.097 157.827 354.23" stroke="#263238" stroke-miterlimit="10" stroke-linecap="round" stroke-linejoin="round"/>
<path d="M80.4848 345.636C80.4848 345.636 76.188 355.088 69.3132 356.378" stroke="#263238" stroke-miterlimit="10" stroke-linecap="round" stroke-linejoin="round"/>
<path d="M106.006 183.21L93.0937 187.114L82.2839 325.839L139.335 326.741L142.339 184.112L106.006 183.21Z" fill="white" stroke="#263238" stroke-miterlimit="10"/>
<path d="M101.421 177.768H98.3759L96.8535 181.727L97.462 215.224L116.342 203.043L134.918 220.705L137.354 180.813C137.354 180.813 138.268 178.986 135.528 177.768C132.787 176.55 131.873 176.245 131.873 176.245L101.421 177.768Z" fill="white" stroke="#263238" stroke-miterlimit="10"/>
<path d="M99.5943 168.023L100.508 181.727C100.508 181.727 109.34 200.911 115.125 203.652C120.911 206.392 134.31 180.813 134.31 180.813L133.396 165.587H99.29L99.5943 168.023Z" fill="white" stroke="#263238" stroke-miterlimit="10"/>
<path d="M99.5942 168.023C99.5942 168.023 110.557 191.776 116.952 192.689C123.347 193.603 133.7 170.764 133.7 168.632C133.7 166.5 99.5942 168.023 99.5942 168.023Z" fill="#263238" stroke="#263238" stroke-miterlimit="10"/>
<path d="M93.8162 147.631C93.8162 147.631 88.5264 143.303 87.804 149.315C87.0829 155.326 94.7777 160.857 94.7777 160.857L93.8162 147.631Z" fill="white" stroke="#263238" stroke-miterlimit="10"/>
<path d="M136.762 147.631C136.762 147.631 142.052 143.303 142.773 149.315C143.494 155.326 135.8 160.857 135.8 160.857L136.762 147.631Z" fill="white" stroke="#263238" stroke-miterlimit="10"/>
<path d="M92.8534 148.353C92.8534 148.353 95.7392 165.185 98.1431 168.311C100.548 171.438 108.001 182.257 114.975 184.182C121.949 186.105 132.768 172.64 134.933 168.071C137.098 163.502 137.819 143.304 137.819 143.304L137.579 132.483C137.579 132.483 136.857 124.548 133.731 120.22C130.605 115.891 117.14 113.005 108.243 116.372C99.3463 119.739 91.8918 135.369 91.8918 138.494C91.8918 141.62 92.8534 148.353 92.8534 148.353Z" fill="white" stroke="#263238" stroke-miterlimit="10"/>
<path d="M108.724 129.597C108.724 129.597 101.269 138.253 97.9027 139.936C94.5361 141.619 93.5745 142.341 93.5745 142.341L94.0553 152.44L90.2079 138.734C90.2079 138.734 85.399 124.066 86.3605 117.574C87.3221 111.081 109.205 104.83 116.898 102.425C124.593 100.02 127.479 104.83 132.528 108.677C137.577 112.525 142.868 115.411 142.146 121.902C141.425 128.395 138.779 135.127 138.779 135.127C138.779 135.127 137.577 153.161 137.577 153.883C137.577 154.604 135.413 136.09 135.413 136.09C135.413 136.09 131.565 135.369 130.604 130.8C129.642 126.232 129.402 121.182 129.402 121.182C129.402 121.182 126.276 127.675 123.151 130.8C120.024 133.926 112.33 136.812 111.128 136.572C109.926 136.332 112.33 130.56 112.33 130.56L108.001 134.648L108.724 129.597Z" fill="#263238" stroke="#263238" stroke-miterlimit="10"/>
<path d="M110.648 163.261C110.648 163.261 112.813 165.184 114.736 165.666C116.659 166.147 120.026 163.261 120.987 162.54" stroke="#263238" stroke-miterlimit="10"/>
<path d="M109.926 169.994C109.926 169.994 115.456 174.322 122.91 169.273L109.926 169.994Z" fill="white"/>
<path d="M109.926 169.994C109.926 169.994 115.456 174.322 122.91 169.273" stroke="#263238" stroke-miterlimit="10"/>
<path d="M106.2 154.604C107.063 154.604 107.762 153.42 107.762 151.959C107.762 150.498 107.063 149.313 106.2 149.313C105.337 149.313 104.637 150.498 104.637 151.959C104.637 153.42 105.337 154.604 106.2 154.604Z" fill="#263238"/>
<path d="M124.474 154.604C125.337 154.604 126.036 153.42 126.036 151.959C126.036 150.498 125.337 149.313 124.474 149.313C123.611 149.313 122.911 150.498 122.911 151.959C122.911 153.42 123.611 154.604 124.474 154.604Z" fill="#263238"/>
<path d="M120.747 143.543C120.747 143.543 125.556 140.657 130.365 144.985" stroke="#263238" stroke-miterlimit="10"/>
<path d="M108.003 143.303C108.003 143.303 103.674 140.657 100.308 144.505" stroke="#263238" stroke-miterlimit="10"/>
<path d="M125.075 156.529L130.365 155.326" stroke="#263238" stroke-miterlimit="10"/>
<path d="M100.789 155.085L105.117 156.529" stroke="#263238" stroke-miterlimit="10"/>
<path d="M97.1578 212.787L94.4172 344.34L63.0508 342.818L61.2242 339.163C61.2242 339.163 56.9611 339.163 56.3514 335.813C55.7429 332.462 60.6145 258.768 60.6145 258.768L33.8167 256.332L51.7841 221.312C51.7841 221.312 57.2654 196.951 58.4836 195.123C59.7018 193.295 97.7663 180.202 97.7663 180.202L97.1578 212.787Z" fill="#263238" stroke="#263238" stroke-miterlimit="10"/>
<path d="M136.136 179.392L131.67 344.646L171.867 344.24L173.491 338.149L177.551 335.307C177.551 335.307 177.551 328.81 177.551 322.314C177.551 315.817 169.836 268.718 169.836 268.718C169.836 268.718 190.138 265.876 190.543 261.816C190.949 257.755 182.017 196.445 177.144 191.979C172.273 187.512 136.136 179.392 136.136 179.392Z" fill="#263238" stroke="#263238" stroke-miterlimit="10"/>
<path d="M146.221 273.622L151.566 289.019C151.566 289.019 154.661 281.592 154.191 276.904C153.722 272.215 153.722 270.809 152.316 270.573C150.91 270.341 146.455 269.403 146.221 273.622Z" fill="white" stroke="#263238" stroke-miterlimit="10"/>
<path d="M92.802 233.617L109.916 267.609L127.967 258.701L112.729 222.833L92.802 233.617Z" fill="#92E3A9" stroke="#263238" stroke-miterlimit="10"/>
<path d="M122.483 257.339C122.125 256.072 122.69 254.803 123.745 254.504C123.847 254.475 123.949 254.465 124.052 254.456L112.833 228.048C112.602 228.551 112.203 228.937 111.681 229.085C110.928 229.298 110.133 228.953 109.608 228.282L97.706 234.724C97.85 234.948 97.9715 235.196 98.0491 235.472C98.3608 236.575 97.9727 237.68 97.1702 238.144L109.003 261.647C109.217 261.415 109.479 261.236 109.789 261.148C110.737 260.88 111.753 261.49 112.212 262.534L122.523 257.446C122.511 257.407 122.494 257.375 122.483 257.339ZM112.311 251.248C110.131 251.865 107.763 250.245 107.022 247.628C106.282 245.011 107.449 242.391 109.629 241.774C111.809 241.156 114.176 242.777 114.917 245.393C115.658 248.009 114.492 250.63 112.311 251.248Z" fill="white" stroke="#263238" stroke-miterlimit="10"/>
<path d="M100.123 229.434L109.263 266.377L128.842 261.697L121.945 223.342L100.123 229.434Z" fill="#92E3A9" stroke="#263238" stroke-miterlimit="10"/>
<path d="M123.798 259.151C123.729 257.837 124.562 256.725 125.658 256.667C125.763 256.662 125.866 256.675 125.968 256.689L120.889 228.449C120.554 228.889 120.078 229.176 119.536 229.204C118.755 229.245 118.056 228.732 117.692 227.96L104.657 231.599C104.747 231.849 104.811 232.118 104.826 232.405C104.886 233.549 104.262 234.54 103.376 234.814L109.697 260.356C109.957 260.178 110.252 260.062 110.574 260.044C111.558 259.993 112.415 260.813 112.629 261.932L123.812 259.259C123.809 259.225 123.8 259.19 123.798 259.151ZM115.232 250.955C112.969 251.072 111.02 248.966 110.878 246.251C110.737 243.535 112.457 241.239 114.72 241.121C116.982 241.004 118.931 243.11 119.073 245.824C119.214 248.541 117.494 250.837 115.232 250.955Z" fill="white" stroke="#263238" stroke-miterlimit="10"/>
<path d="M110.951 226.573L108.849 264.571L128.938 265.843L133.601 227.153L110.951 226.573Z" fill="#92E3A9" stroke="#263238" stroke-miterlimit="10"/>
<path d="M124.863 261.93C125.184 260.653 126.305 259.834 127.37 260.1C127.472 260.127 127.566 260.168 127.66 260.212L131.093 231.725C130.642 232.048 130.104 232.182 129.578 232.051C128.819 231.86 128.302 231.165 128.181 230.322L114.653 229.975C114.666 230.24 114.648 230.516 114.578 230.795C114.299 231.907 113.411 232.67 112.485 232.673L111.031 258.945C111.333 258.851 111.648 258.826 111.961 258.905C112.917 259.144 113.495 260.179 113.371 261.314L124.847 262.04C124.853 262.004 124.854 261.966 124.863 261.93ZM119.079 251.579C116.882 251.028 115.636 248.443 116.298 245.806C116.96 243.17 119.278 241.478 121.475 242.03C123.672 242.582 124.918 245.167 124.256 247.803C123.595 250.44 121.277 252.131 119.079 251.579Z" fill="white" stroke="#263238" stroke-miterlimit="10"/>
<path d="M152.316 263.776C152.316 263.776 146.689 262.839 145.752 262.369C144.814 261.901 138.015 259.556 132.623 256.743C127.231 253.929 122.777 256.743 115.041 258.15C107.305 259.556 105.196 260.025 105.196 261.901C105.196 263.776 109.181 264.245 109.181 264.245C109.181 264.245 105.43 264.713 107.305 267.292C109.181 269.871 111.76 270.574 111.76 270.574C111.76 270.574 113.401 273.387 115.745 275.028C118.089 276.669 119.73 278.075 119.73 278.075C119.73 278.075 122.074 281.123 125.357 282.061C128.638 282.998 147.158 277.372 147.158 277.372C147.158 277.372 152.784 279.013 154.19 275.966C155.597 272.92 152.316 263.776 152.316 263.776Z" fill="white" stroke="#263238" stroke-miterlimit="10" stroke-linecap="round" stroke-linejoin="round"/>
<path d="M109.181 264.246C109.181 264.246 123.247 263.778 127.7 262.37" stroke="#263238" stroke-miterlimit="10" stroke-linecap="round" stroke-linejoin="round"/>
<path d="M111.76 270.575C111.76 270.575 119.262 271.747 123.481 271.513C127.7 271.278 130.045 269.637 130.045 269.637" stroke="#263238" stroke-miterlimit="10" stroke-linecap="round" stroke-linejoin="round"/>
<path d="M117.62 276.435C117.62 276.435 125.825 279.014 131.451 277.139" stroke="#263238" stroke-miterlimit="10" stroke-linecap="round" stroke-linejoin="round"/>
<path d="M159.281 223.648L163.747 258.567L151.16 262.221C151.16 262.221 153.19 272.778 152.379 277.651C151.566 282.524 151.566 289.02 151.566 289.02C151.566 289.02 165.371 284.555 174.304 283.742C183.237 282.929 190.951 278.869 193.387 272.374C195.823 265.877 188.108 243.545 188.108 243.545" fill="#263238"/>
<path d="M159.281 223.648L163.747 258.567L151.16 262.221C151.16 262.221 153.19 272.778 152.379 277.651C151.566 282.524 151.566 289.02 151.566 289.02C151.566 289.02 165.371 284.555 174.304 283.742C183.237 282.929 190.951 278.869 193.387 272.374C195.823 265.877 188.108 243.545 188.108 243.545" stroke="#263238" stroke-miterlimit="10"/>
<path d="M157.621 261.188L163.747 258.568L179.275 254.4" stroke="#6B6B6B" stroke-miterlimit="10"/>
<path d="M163.747 258.568L158.929 217.327" stroke="#6B6B6B" stroke-miterlimit="10"/>
<path d="M84.3623 257.763C84.3623 257.763 81.5491 245.338 80.3772 242.994C79.2053 240.651 72.8752 247.214 72.407 249.325C71.9387 251.434 82.4881 257.997 84.3623 257.763Z" fill="white" stroke="#263238" stroke-miterlimit="10"/>
<path d="M78.2363 231.66L72.1716 238.774C72.1716 238.774 73.813 249.089 75.219 249.557C76.625 250.026 86.2366 242.525 86.2366 242.525L78.2363 231.66Z" fill="white" stroke="#263238" stroke-miterlimit="10"/>
<path d="M89.4892 217.36C89.4892 217.36 78.9398 227.675 78.2362 231.66C77.5326 235.645 85.0345 243.147 85.9723 243.851C86.91 244.554 93.7084 239.162 93.9425 238.224C94.1766 237.287 89.4879 230.02 89.4879 230.02C89.4879 230.02 95.1144 232.833 95.818 233.537C96.5216 234.24 100.975 240.569 102.616 240.101C104.258 239.632 103.554 236.584 102.616 233.771C101.679 230.958 91.5988 221.58 91.5988 221.58L98.3971 223.222C98.3971 223.222 106.367 230.958 108.243 230.958C110.118 230.958 109.181 229.082 108.009 227.441C106.837 225.799 101.21 219.236 99.8031 217.595C98.3971 215.954 93.0048 215.016 92.3012 215.016C91.5988 215.016 89.4892 217.36 89.4892 217.36Z" fill="white" stroke="#263238" stroke-miterlimit="10" stroke-linecap="round" stroke-linejoin="round"/>
<path d="M89.4892 230.019L86.2078 226.737" stroke="#263238" stroke-miterlimit="10" stroke-linecap="round" stroke-linejoin="round"/>
<path d="M81.9873 230.722L90.427 241.038" stroke="#263238" stroke-miterlimit="10" stroke-linecap="round" stroke-linejoin="round"/>
<path d="M71.9387 237.602C71.9387 237.602 73.5801 243.229 74.5179 246.745C75.4556 250.262 84.3636 257.763 84.3636 257.763C84.3636 257.763 71.7046 271.126 60.4516 276.986C49.1987 282.847 35.9763 279.903 31.9912 275.215C28.0061 270.526 29.6474 256.929 32.9289 254.116C36.2104 251.303 55.2947 247.682 59.9834 245.104C64.6709 242.525 71.9387 237.602 71.9387 237.602Z" fill="#263238" stroke="#263238" stroke-miterlimit="10"/>
<path d="M71.9388 237.602L41.0945 252.679" stroke="#6B6B6B" stroke-miterlimit="10"/>
<path d="M67.9348 239.585V225.183" stroke="#6B6B6B" stroke-miterlimit="10"/>
<path d="M273.236 556.264C273.236 556.264 269.525 557.324 259.452 549.901C249.378 542.479 237.715 531.875 237.715 531.875C237.715 531.875 249.287 530.323 254.63 527.499C260.521 524.386 267.405 517.03 267.405 517.03C267.405 517.03 290.733 548.84 319.892 546.72C319.892 546.72 318.832 555.203 309.819 558.914C300.805 562.626 273.236 556.264 273.236 556.264Z" fill="#92E3A9" stroke="#263238" stroke-miterlimit="10" stroke-linejoin="round"/>
<path d="M311.085 550.369C311.085 550.369 286.317 543.873 272.918 529.662C272.918 529.662 268.046 530.881 267.234 525.602C267.234 525.602 261.143 532.099 250.181 533.317C250.181 533.317 250.586 536.159 249.368 536.972C249.368 536.972 268.451 553.619 279.415 555.649C290.377 557.68 297.28 557.273 302.558 556.867C307.837 556.461 311.491 552.807 311.491 552.807C311.491 552.807 307.431 551.993 311.085 550.369ZM287.696 549.456C286.813 551.639 282.39 551.908 277.816 550.057C273.243 548.207 270.252 544.938 271.134 542.755C272.017 540.572 276.44 540.303 281.014 542.154C285.587 544.004 288.58 547.274 287.696 549.456Z" fill="white" stroke="#263238" stroke-miterlimit="10"/>
<path d="M269.482 555.603C269.482 555.603 282.256 560.857 292.329 560.857C302.403 560.857 309.819 558.914 309.819 558.914C309.819 558.914 306.372 560.795 300.783 557.201C297.584 555.146 295.528 550.576 295.528 550.576C295.528 550.576 283.266 555.073 269.482 555.603Z" fill="#92E3A9" stroke="#263238" stroke-miterlimit="10" stroke-linejoin="round"/>
<path d="M412.935 502.13C412.935 502.13 436.179 494.476 449.785 485.405L464.242 509.216C464.242 509.216 429.659 536.145 420.588 529.059L412.935 502.13Z" fill="#92E3A9" stroke="#263238" stroke-miterlimit="10" stroke-linejoin="round"/>
<path d="M454.321 507.799C454.321 506.425 455.337 505.272 456.739 504.856L450.317 494.207C449.81 494.376 449.249 494.476 448.653 494.476C447.057 494.476 445.691 493.799 445.06 492.828C433.053 501.222 414.637 505.531 414.637 505.531L418.322 519.988C418.322 519.988 417.755 527.925 427.676 525.941C435.354 524.405 449.816 514.726 455.966 510.425C454.979 509.871 454.321 508.904 454.321 507.799ZM429.554 518.438C425.204 519.434 421.155 517.952 420.508 515.129C419.862 512.306 422.863 509.21 427.212 508.214C431.562 507.219 435.611 508.7 436.258 511.523C436.905 514.347 433.903 517.443 429.554 518.438Z" fill="white" stroke="#263238" stroke-miterlimit="10"/>
<path d="M409.533 491.357L425.407 522.823C425.407 522.823 420.021 525.657 420.588 529.059L405.281 499.012C405.281 499.012 403.297 494.192 409.533 491.357Z" fill="#92E3A9" stroke="#263238" stroke-miterlimit="10" stroke-linejoin="round"/>
<path d="M406.64 501.679L418.426 524.813C419.004 523.111 420.871 522.254 420.871 522.254L407.832 499.294L406.64 501.679Z" fill="white" stroke="#263238" stroke-miterlimit="10"/>
<path d="M237.236 326.513L237.492 386.817L268.967 386.676L269.067 325.149L237.236 326.513Z" fill="#92E3A9" stroke="#263238" stroke-miterlimit="10"/>
<path d="M262.07 380.89C262.389 378.824 264.023 377.402 265.718 377.711C265.881 377.741 266.034 377.798 266.185 377.856L266.129 331.936C265.538 332.441 264.799 332.686 264.045 332.549C262.957 332.35 262.145 331.406 261.867 330.209L242.855 331.024C242.908 331.403 242.917 331.8 242.854 332.204C242.604 333.823 241.456 335.001 240.156 335.095L240.1 377.631C240.555 377.449 241.045 377.375 241.543 377.467C243.066 377.746 244.111 379.33 244.078 381.145L262.058 381.065C262.063 381.009 262.061 380.95 262.07 380.89ZM251.605 365.051C248.105 364.41 245.801 360.433 246.462 356.168C247.122 351.902 250.496 348.962 253.997 349.603C257.497 350.244 259.801 354.221 259.14 358.486C258.48 362.752 255.106 365.692 251.605 365.051Z" fill="white" stroke="#263238" stroke-miterlimit="10"/>
<path d="M531.547 71.3276L487.649 115.222L510.564 138.129L555.614 93.6082L531.547 71.3276Z" fill="#92E3A9" stroke="#263238" stroke-miterlimit="10"/>
<path d="M509.796 128.893C511.537 127.63 513.762 127.793 514.764 129.256C514.86 129.398 514.929 129.551 514.996 129.703L548.524 96.3802C547.726 96.3139 547.011 95.952 546.567 95.301C545.923 94.3607 546.025 93.0824 546.698 92.012L532.323 78.7045C532.084 79.0175 531.799 79.3117 531.458 79.5596C530.093 80.5499 528.399 80.5649 527.389 79.6823L496.254 110.47C496.717 110.673 497.125 110.976 497.42 111.407C498.32 112.721 497.919 114.634 496.567 115.926L509.657 129.012C509.705 128.975 509.744 128.93 509.796 128.893ZM513.789 109.763C511.72 106.739 512.958 102.173 516.555 99.564C520.152 96.9549 524.746 97.2917 526.815 100.314C528.885 103.338 527.647 107.904 524.05 110.513C520.453 113.122 515.859 112.786 513.789 109.763Z" fill="white" stroke="#263238" stroke-miterlimit="10"/>
<path d="M229.118 255.337L290.194 231.18L277.58 199.305L215.121 223.585L229.118 255.337Z" fill="#92E3A9" stroke="#263238" stroke-miterlimit="10"/>
<path d="M274.442 208.594C272.22 209.089 270.129 207.995 269.772 206.153C269.737 205.975 269.736 205.799 269.735 205.621L223.173 223.875C223.919 224.274 224.461 224.927 224.619 225.746C224.848 226.929 224.212 228.127 223.108 228.883L231.469 247.848C231.833 247.646 232.231 247.479 232.668 247.383C234.409 246.996 236.06 247.693 236.669 248.974L279.845 232.176C279.48 231.785 279.211 231.318 279.106 230.776C278.785 229.121 279.977 227.433 281.834 226.747L274.629 208.539C274.565 208.554 274.507 208.581 274.442 208.594ZM262.521 225.488C263.258 229.294 260.136 233.206 255.547 234.227C250.957 235.247 246.639 232.99 245.902 229.184C245.164 225.377 248.287 221.465 252.875 220.445C257.465 219.424 261.783 221.683 262.521 225.488Z" fill="white" stroke="#263238" stroke-miterlimit="10"/>
<path d="M444.674 71.1222C444.674 71.1222 448.405 72.1101 453.264 83.6397C458.123 95.1694 462.722 110.248 462.722 110.248C462.722 110.248 451.984 105.662 445.947 105.356C439.293 105.018 429.616 107.818 429.616 107.818C429.616 107.818 425.843 68.5519 399.702 55.4585C399.702 55.4585 404.952 48.7115 414.595 50.1337C424.239 51.5547 444.674 71.1222 444.674 71.1222Z" fill="#92E3A9" stroke="#263238" stroke-miterlimit="10" stroke-linejoin="round"/>
<path d="M409.136 56.8281C409.136 56.8281 427.095 75.0798 431.34 94.144C431.34 94.144 436.15 95.59 434.147 100.54C434.147 100.54 442.703 98.074 452.747 102.635C452.747 102.635 453.852 99.9846 455.313 99.9107C455.313 99.9107 447.431 75.8447 439.049 68.493C430.667 61.1413 424.528 57.9587 419.785 55.6087C415.042 53.2574 410.032 54.5282 410.032 54.5282C410.032 54.5282 413.106 57.3014 409.136 56.8281ZM428.767 69.576C430.643 68.1525 434.582 70.1832 437.564 74.1132C440.547 78.042 441.445 82.3814 439.57 83.8062C437.694 85.2297 433.755 83.199 430.773 79.269C427.79 75.3389 426.892 70.9995 428.767 69.576Z" fill="white" stroke="#263238" stroke-miterlimit="10"/>
<path d="M447.562 73.6112C447.562 73.6112 439.274 62.5611 430.618 57.4091C421.961 52.2571 414.596 50.1324 414.596 50.1324C414.596 50.1324 418.52 50.2802 421.484 56.2259C423.181 59.6289 422.611 64.6068 422.611 64.6068C422.611 64.6068 435.445 67.0157 447.562 73.6112Z" fill="#92E3A9" stroke="#263238" stroke-miterlimit="10" stroke-linejoin="round"/>
<path d="M120.684 39.5619L126.727 61.7223C126.727 61.7223 96.5091 84.1068 50.8462 77.8393L53.3089 53.8885C53.3089 53.8885 71.2162 57.4705 87.5561 54.1126C103.896 50.7535 120.684 39.5619 120.684 39.5619Z" fill="#92E3A9" stroke="#263238" stroke-miterlimit="10"/>
<path d="M117.225 60.7507C117.225 59.7428 118.052 58.879 119.249 58.447L115.687 48.595C115.2 48.7553 114.653 48.8555 114.066 48.8555C112.975 48.8555 112.013 48.5362 111.364 48.0454C106.465 50.6633 97.0125 55.2469 87.6475 57.1875C77.5301 59.2846 66.5901 58.6786 61.7624 58.2455C61.4845 58.7926 60.4203 59.2032 59.1157 59.2521L57.925 72.6835C58.228 72.6597 58.541 72.6447 58.8628 72.6447C61.3267 72.6447 63.3237 73.3934 63.3237 74.3174C63.3237 74.579 63.1484 74.8244 62.8617 75.046C91.8718 76.1491 112.175 66.1218 118.344 62.6062C117.654 62.1354 117.225 61.4781 117.225 60.7507ZM88.5139 67.7481C84.0856 68.6345 80.2006 67.8846 79.8388 66.073C79.4757 64.2613 82.7722 62.0741 87.2006 61.1877C91.6289 60.3012 95.5138 61.0512 95.8769 62.8628C96.2388 64.6745 92.9435 66.8617 88.5139 67.7481Z" fill="white" stroke="#263238" stroke-miterlimit="10"/>
<path d="M528.439 533.067L534.483 555.227C534.483 555.227 504.264 577.611 458.601 571.344L461.064 547.393C461.064 547.393 478.971 550.975 495.311 547.617C511.651 544.258 528.439 533.067 528.439 533.067Z" fill="#92E3A9" stroke="#263238" stroke-miterlimit="10"/>
<path d="M524.978 554.254C524.978 553.246 525.806 552.382 527.003 551.95L523.441 542.1C522.953 542.26 522.407 542.36 521.818 542.36C520.728 542.36 519.765 542.041 519.117 541.55C514.216 544.168 504.765 548.752 495.4 550.692C485.283 552.789 474.343 552.183 469.515 551.75C469.237 552.296 468.173 552.708 466.868 552.757L465.677 566.188C465.98 566.164 466.294 566.149 466.615 566.149C469.079 566.149 471.076 566.898 471.076 567.822C471.076 568.085 470.901 568.329 470.614 568.551C499.624 569.654 519.928 559.626 526.097 556.112C525.409 555.64 524.978 554.983 524.978 554.254ZM496.269 561.253C491.841 562.139 487.956 561.389 487.594 559.578C487.231 557.766 490.527 555.579 494.957 554.692C499.385 553.806 503.27 554.556 503.632 556.367C503.994 558.179 500.697 560.366 496.269 561.253Z" fill="white" stroke="#263238" stroke-miterlimit="10"/>
<path d="M211.886 67.812C211.886 67.812 235.13 60.1585 248.736 51.0878L263.193 74.8983C263.193 74.8983 228.61 101.828 219.539 94.7412L211.886 67.812Z" fill="#92E3A9" stroke="#263238" stroke-miterlimit="10" stroke-linejoin="round"/>
<path d="M253.271 73.481C253.271 72.1076 254.287 70.9545 255.689 70.5388L249.265 59.8893C248.758 60.0583 248.197 60.1585 247.602 60.1585C246.005 60.1585 244.639 59.4812 244.008 58.5109C232.002 66.9043 213.586 71.2137 213.586 71.2137L217.271 85.6705C217.271 85.6705 216.703 93.6082 226.626 91.6238C234.304 90.0876 248.766 80.4083 254.916 76.1065C253.929 75.5518 253.271 74.5865 253.271 73.481ZM228.505 84.1205C224.155 85.1159 220.106 83.6347 219.459 80.8115C218.813 77.9882 221.814 74.892 226.164 73.8967C230.513 72.9013 234.562 74.3825 235.209 77.2057C235.855 80.029 232.854 83.1239 228.505 84.1205Z" fill="white" stroke="#263238" stroke-miterlimit="10"/>
<path d="M208.484 57.0398L224.358 88.5051C224.358 88.5051 218.972 91.3396 219.539 94.7413L204.232 64.6933C204.232 64.6933 202.248 59.8743 208.484 57.0398Z" fill="#92E3A9" stroke="#263238" stroke-miterlimit="10" stroke-linejoin="round"/>
<path d="M205.591 67.3613L217.376 90.4957C217.954 88.793 219.822 87.9366 219.822 87.9366L206.783 64.9762L205.591 67.3613Z" fill="white" stroke="#263238" stroke-miterlimit="10"/>
<path d="M406.29 207.355L362.393 251.249L385.308 274.157L430.357 229.635L406.29 207.355Z" fill="#92E3A9" stroke="#263238" stroke-miterlimit="10"/>
<path d="M384.538 264.921C386.28 263.657 388.504 263.82 389.506 265.284C389.602 265.425 389.671 265.578 389.738 265.731L423.265 232.407C422.467 232.341 421.752 231.979 421.307 231.328C420.663 230.388 420.765 229.11 421.438 228.039L407.063 214.732C406.824 215.045 406.539 215.339 406.198 215.587C404.833 216.577 403.139 216.592 402.129 215.71L370.994 246.497C371.457 246.7 371.865 247.003 372.16 247.434C373.06 248.75 372.659 250.662 371.307 251.954L384.397 265.04C384.448 265.002 384.488 264.957 384.538 264.921ZM388.533 245.79C386.464 242.766 387.702 238.2 391.299 235.591C394.896 232.982 399.489 233.319 401.559 236.342C403.629 239.366 402.39 243.932 398.793 246.541C395.196 249.15 390.603 248.814 388.533 245.79Z" fill="white" stroke="#263238" stroke-miterlimit="10"/>
<path d="M486.531 314.457L546.509 320.712L549.768 289.406L488.612 282.665L486.531 314.457Z" fill="#92E3A9" stroke="#263238" stroke-miterlimit="10"/>
<path d="M543.272 295.638C541.252 295.098 540.014 293.32 540.506 291.668C540.553 291.509 540.626 291.364 540.701 291.219L495.045 286.319C495.483 286.961 495.647 287.721 495.428 288.456C495.112 289.516 494.085 290.222 492.866 290.369L491.624 309.358C492.007 309.347 492.402 309.382 492.798 309.487C494.381 309.911 495.429 311.18 495.381 312.482L537.663 317.129C537.532 316.656 537.511 316.162 537.656 315.675C538.097 314.192 539.785 313.324 541.588 313.552L543.449 295.668C543.388 295.657 543.329 295.655 543.272 295.638ZM526.395 304.332C525.38 307.744 521.178 309.605 517.008 308.486C512.839 307.37 510.281 303.699 511.295 300.287C512.31 296.875 516.513 295.016 520.682 296.133C524.851 297.25 527.409 300.921 526.395 304.332Z" fill="white" stroke="#263238" stroke-miterlimit="10"/>
<path d="M554.856 371.128C554.856 371.128 558.587 372.116 563.448 383.645C568.307 395.176 572.905 410.254 572.905 410.254C572.905 410.254 562.168 405.668 556.131 405.361C549.477 405.023 539.8 407.824 539.8 407.824C539.8 407.824 536.026 368.557 509.885 355.464C509.885 355.464 515.134 348.717 524.778 350.138C534.421 351.559 554.856 371.128 554.856 371.128Z" fill="#92E3A9" stroke="#263238" stroke-miterlimit="10" stroke-linejoin="round"/>
<path d="M519.318 356.833C519.318 356.833 537.278 375.084 541.523 394.148C541.523 394.148 546.333 395.594 544.33 400.545C544.33 400.545 552.886 398.078 562.929 402.639C562.929 402.639 564.035 399.989 565.496 399.915C565.496 399.915 557.613 375.849 549.231 368.497C540.849 361.146 534.71 357.964 529.968 355.613C525.224 353.262 520.216 354.533 520.216 354.533C520.216 354.533 523.29 357.306 519.318 356.833ZM538.95 369.582C540.825 368.158 544.764 370.189 547.746 374.119C550.73 378.048 551.627 382.387 549.752 383.812C547.876 385.235 543.938 383.205 540.955 379.275C537.973 375.345 537.074 371.005 538.95 369.582Z" fill="white" stroke="#263238" stroke-miterlimit="10"/>
<path d="M557.745 373.616C557.745 373.616 549.456 362.565 540.8 357.413C532.144 352.26 524.778 350.137 524.778 350.137C524.778 350.137 528.702 350.285 531.667 356.23C533.363 359.633 532.794 364.611 532.794 364.611C532.794 364.611 545.629 367.02 557.745 373.616Z" fill="#92E3A9" stroke="#263238" stroke-miterlimit="10" stroke-linejoin="round"/>
<path d="M525.846 226.398C525.846 226.398 505.578 240.112 494.968 252.556L474.556 233.602C474.556 233.602 500.463 198.248 511.125 202.586L525.846 226.398Z" fill="#92E3A9" stroke="#263238" stroke-miterlimit="10" stroke-linejoin="round"/>
<path d="M484.486 232.253C484.862 233.576 484.2 234.962 482.964 235.745L492.052 244.234C492.494 243.933 493.006 243.683 493.58 243.52C495.115 243.085 496.615 243.361 497.486 244.122C506.743 232.768 523.28 223.591 523.28 223.591L515.785 210.692C515.785 210.692 514.161 202.902 505.161 207.521C498.195 211.097 486.928 224.361 482.187 230.178C483.287 230.441 484.185 231.189 484.486 232.253ZM505.404 215.251C509.315 213.105 513.615 213.423 515.009 215.962C516.402 218.502 514.36 222.3 510.449 224.446C506.538 226.592 502.237 226.274 500.844 223.735C499.45 221.196 501.492 217.398 505.404 215.251Z" fill="white" stroke="#263238" stroke-miterlimit="10"/>
<path d="M532.062 235.83L508.194 209.902C508.194 209.902 512.6 205.704 511.125 202.586L534.061 227.307C534.061 227.307 537.287 231.4 532.062 235.83Z" fill="#92E3A9" stroke="#263238" stroke-miterlimit="10" stroke-linejoin="round"/>
<path d="M532.025 225.112L514.367 206.078C514.275 207.875 512.713 209.208 512.713 209.208L531.53 227.731L532.025 225.112Z" fill="white" stroke="#263238" stroke-miterlimit="10"/>
<path d="M12.093 579.896H610.976" stroke="#263238" stroke-miterlimit="10" stroke-linecap="round" stroke-linejoin="round"/>
</svg>
