<svg width="650" height="650" viewBox="0 0 650 650" fill="none" xmlns="http://www.w3.org/2000/svg">
<path d="M570.929 177.143C541.404 132.327 485.292 105.713 431.054 110.804C376.815 115.894 326.894 152.457 306.61 201.947C296.25 227.226 292.959 255.59 277.458 278.212C261.565 301.405 235.095 315.24 209.117 326.793C183.139 338.347 155.862 348.994 135.372 368.428C114.881 387.862 102.801 419.022 114.924 444.302C127.244 469.994 158.366 480.256 180.834 498.2C203.3 516.142 217.599 542.526 240.553 559.867C261.759 575.887 289.089 582.945 315.877 582.891C342.664 582.838 369.045 576.082 394.075 566.741C471.728 537.763 544.882 483.833 575.857 408.361C633.229 268.585 570.929 177.143 570.929 177.143Z" fill="#92E3A9"/>
<g opacity="0.7">
<path d="M570.929 177.143C541.404 132.327 485.292 105.713 431.054 110.804C376.815 115.894 326.894 152.457 306.61 201.947C296.25 227.226 292.959 255.59 277.458 278.212C261.565 301.405 235.095 315.24 209.117 326.793C183.139 338.347 155.862 348.994 135.372 368.428C114.881 387.862 102.801 419.022 114.924 444.302C127.244 469.994 158.366 480.256 180.834 498.2C203.3 516.142 217.599 542.526 240.553 559.867C261.759 575.887 289.089 582.945 315.877 582.891C342.664 582.838 369.045 576.082 394.075 566.741C471.728 537.763 544.882 483.833 575.857 408.361C633.229 268.585 570.929 177.143 570.929 177.143Z" fill="white"/>
</g>
<path d="M466.614 528.83C466.614 528.83 485.463 528.728 506.363 499.598C524.632 474.135 489.963 395.291 470.526 377.157C451.088 359.024 413.254 458.067 417.648 483.162C423.907 518.909 450.849 527.916 466.614 528.83Z" fill="#92E3A9"/>
<path d="M497.198 479.843L468.182 508.69L471.107 582.192H461.552C461.435 581.685 461.799 531.05 462.111 471.991L439.868 450.658C441.558 450.658 438.529 447.772 438.23 447.486L462.163 464.139C462.358 427.232 462.54 397.514 462.54 397.514L464.711 394.797L465.92 434.265L486.434 419.497C486.135 419.783 483.106 422.669 484.796 422.669L466.128 441.233L467.87 498.095L499.538 475.306C499.109 475.709 494.767 479.843 497.198 479.843Z" stroke="#263238" stroke-miterlimit="10"/>
<path d="M552.856 552.764C552.856 552.764 575.78 551.112 587.222 529.335C599.577 505.818 569.453 450.063 554.064 445.9C537.211 441.341 510.48 485.913 515.948 520.552C519.683 544.206 542.257 552.161 552.856 552.764Z" fill="#92E3A9"/>
<path d="M570.064 510.119L554.076 522.826C553.574 492.996 553.168 469.177 553.168 469.177L551.139 466.951L550.408 497.406L550.394 498.065L536.873 487.418C536.873 487.418 539.049 489.628 537.934 489.64L550.28 503.074L549.449 538.096L528.968 521.967C528.968 521.967 532.042 525.09 530.465 525.106L549.271 545.57L549.175 549.609L549.062 553.961L548.413 581.59L555.052 581.52C554.895 572.634 554.749 563.325 554.604 554.002C554.472 546.077 554.325 538.138 554.212 530.495C554.202 529.935 554.193 529.391 554.182 528.834L568.87 512.762C567.554 512.777 570.064 510.119 570.064 510.119Z" stroke="#263238" stroke-miterlimit="10"/>
<path d="M524.293 569.85C522.161 568.144 518.318 568.172 514.957 568.328C515.2 566.177 516.099 564.057 516.359 561.906C516.619 559.755 516.13 557.445 514.007 555.952C510.32 553.354 503.814 554.356 498.723 555.846C499.42 550.791 494.046 545.886 486.862 545.106C479.678 544.326 471.683 547.836 469.567 552.754C466.66 549.974 460.844 548.873 456.002 550.185C451.161 551.498 447.71 555.112 447.954 558.613C444.233 558.36 440.089 558.188 437.009 559.794C432.48 562.158 432.795 566.939 429.307 570.031C427.028 569.44 424.371 570.725 423.194 572.273C422.018 573.821 421.812 575.591 421.088 577.252C419.639 580.579 414.798 580.988 410.184 582.442L525.681 583.395C528.186 582.599 530.33 580.876 530.228 579.023C530.127 577.169 527.02 575.65 524.607 576.581C525.454 576.603 526.776 571.835 524.293 569.85Z" fill="#92E3A9"/>
<path d="M576.208 574.915C574.902 573.87 572.546 573.886 570.487 573.981C570.636 572.663 571.186 571.363 571.346 570.045C571.505 568.727 571.206 567.311 569.906 566.396C567.646 564.805 563.658 565.418 560.539 566.332C560.967 563.234 557.673 560.227 553.27 559.749C548.867 559.271 543.967 561.422 542.669 564.437C540.888 562.732 537.324 562.058 534.356 562.862C531.388 563.667 529.274 565.882 529.424 568.029C527.144 567.874 524.603 567.769 522.716 568.753C519.94 570.201 520.133 573.131 517.995 575.027C516.599 574.665 514.97 575.452 514.249 576.401C513.527 577.35 513.401 578.434 512.958 579.452C512.069 581.49 509.102 581.742 506.275 582.633L577.061 583.217C578.596 582.729 579.911 581.673 579.848 580.537C579.786 579.401 577.881 578.47 576.403 579.041C576.919 579.054 577.729 576.132 576.208 574.915Z" fill="#92E3A9"/>
<path d="M290.305 350.342C286.896 347.992 282.764 346.615 278.304 346.615C266.584 346.615 257.083 356.128 257.083 367.848V367.977C255.723 366.231 253.601 365.117 251.222 365.117C249.187 365.117 247.344 365.941 245.995 367.259C245.073 358.903 238.004 352.4 229.401 352.4C220.23 352.4 212.785 359.792 212.699 368.952C211.886 368.363 210.888 368.03 209.807 368.03C207.3 368.03 205.222 369.851 204.836 372.239H322.964C322.964 364.001 316.279 357.327 308.041 357.327C304.345 357.327 300.96 358.677 298.358 360.915C297.64 358.844 296.612 356.918 295.329 355.191" stroke="#263238" stroke-miterlimit="10" stroke-linecap="round" stroke-linejoin="round"/>
<path d="M493.311 194.858C495.978 193.92 498.848 193.409 501.839 193.409C516.061 193.409 527.592 204.953 527.592 219.175V219.331C529.243 217.212 531.817 215.86 534.703 215.86C537.173 215.86 539.409 216.861 541.047 218.46C542.165 208.32 550.745 200.429 561.184 200.429C572.312 200.429 581.347 209.399 581.451 220.514C582.439 219.799 583.648 219.396 584.961 219.396C588.003 219.396 590.525 221.606 590.993 224.505H447.642C447.642 214.508 455.754 206.409 465.751 206.409C470.236 206.409 474.344 208.047 477.503 210.764C478.815 206.981 480.978 203.594 483.765 200.84" stroke="#263238" stroke-miterlimit="10" stroke-linecap="round" stroke-linejoin="round"/>
<path d="M53.365 164.93H196.716C196.716 154.933 188.604 146.834 178.607 146.834C174.122 146.834 170.014 148.472 166.855 151.189C163.358 141.101 153.803 133.834 142.519 133.834C128.297 133.834 116.766 145.378 116.766 159.6V159.756C115.115 157.637 112.541 156.285 109.655 156.285C107.185 156.285 104.949 157.286 103.311 158.885C102.193 148.745 93.613 140.854 83.174 140.854C72.046 140.854 63.011 149.824 62.907 160.939C61.919 160.224 60.71 159.821 59.397 159.821C56.355 159.821 53.833 162.031 53.365 164.93Z" fill="white" stroke="#263238" stroke-miterlimit="10"/>
<path d="M244.413 215.612L248.855 243.394" stroke="#92E3A9" stroke-miterlimit="10"/>
<path d="M227.611 225.441L246.106 247.849" stroke="#92E3A9" stroke-miterlimit="10"/>
<path d="M224.682 244.462L241.994 251.234" stroke="#92E3A9" stroke-miterlimit="10"/>
<path d="M136.828 292.843V271.421" stroke="#263238" stroke-miterlimit="10" stroke-linecap="round" stroke-linejoin="round"/>
<path d="M86.4113 292.843H136.828V277.055H86.4113V292.843Z" fill="white" stroke="#263238" stroke-miterlimit="10" stroke-linecap="round" stroke-linejoin="round"/>
<path d="M86.4111 292.843V271.421" stroke="#263238" stroke-miterlimit="10" stroke-linecap="round" stroke-linejoin="round"/>
<path d="M263.808 582.514H365.697V405.087H263.808V582.514Z" fill="white" stroke="#263238" stroke-miterlimit="10" stroke-linecap="round" stroke-linejoin="round"/>
<path d="M162.251 582.514H264.14L264.14 339.309H162.251L162.251 582.514Z" fill="white" stroke="#263238" stroke-miterlimit="10" stroke-linecap="round" stroke-linejoin="round"/>
<path d="M59.8705 582.514H161.759L161.759 292.41H59.8705L59.8705 582.514Z" fill="white" stroke="#263238" stroke-miterlimit="10" stroke-linecap="round" stroke-linejoin="round"/>
<path d="M142.809 310.698V571.522" stroke="#92E3A9" stroke-miterlimit="10" stroke-linecap="round" stroke-linejoin="round"/>
<path d="M120.528 310.698V571.522" stroke="#92E3A9" stroke-miterlimit="10" stroke-linecap="round" stroke-linejoin="round"/>
<path d="M98.2476 310.698V571.522" stroke="#92E3A9" stroke-miterlimit="10" stroke-linecap="round" stroke-linejoin="round"/>
<path d="M75.9668 310.698V571.522" stroke="#92E3A9" stroke-miterlimit="10" stroke-linecap="round" stroke-linejoin="round"/>
<path d="M247.225 351.858V376.132V400.39V424.663V448.921V473.195V497.468V521.726V546V570.274V570.735" stroke="#92E3A9" stroke-miterlimit="10" stroke-linecap="round" stroke-linejoin="round"/>
<path d="M224.945 351.858V376.132V400.39V424.663V448.921V473.195V497.468V521.726V546V570.274V570.735" stroke="#92E3A9" stroke-miterlimit="10" stroke-linecap="round" stroke-linejoin="round"/>
<path d="M202.649 351.858V376.132V400.39V424.663V448.921V473.195V497.468V521.726V546V570.274V570.735" stroke="#92E3A9" stroke-miterlimit="10" stroke-linecap="round" stroke-linejoin="round"/>
<path d="M180.368 351.858V376.132V400.39V424.663V448.921V473.195V497.468V521.726V546V570.274V570.735" stroke="#92E3A9" stroke-miterlimit="10" stroke-linecap="round" stroke-linejoin="round"/>
<path d="M247.225 351.858H242.852H222.028H201.191H180.368" stroke="#92E3A9" stroke-miterlimit="10" stroke-linecap="round" stroke-linejoin="round"/>
<path d="M247.225 376.132H242.852H222.028H201.191H180.368" stroke="#92E3A9" stroke-miterlimit="10" stroke-linecap="round" stroke-linejoin="round"/>
<path d="M247.225 400.39H242.852H222.028H201.191H180.368" stroke="#92E3A9" stroke-miterlimit="10" stroke-linecap="round" stroke-linejoin="round"/>
<path d="M247.225 424.663H242.852H222.028H201.191H180.368" stroke="#92E3A9" stroke-miterlimit="10" stroke-linecap="round" stroke-linejoin="round"/>
<path d="M247.225 448.921H242.852H222.028H201.191H180.368" stroke="#92E3A9" stroke-miterlimit="10" stroke-linecap="round" stroke-linejoin="round"/>
<path d="M247.225 473.195H242.852H222.028H201.191H180.368" stroke="#92E3A9" stroke-miterlimit="10" stroke-linecap="round" stroke-linejoin="round"/>
<path d="M247.225 497.468H242.852H222.028H201.191H180.368" stroke="#92E3A9" stroke-miterlimit="10" stroke-linecap="round" stroke-linejoin="round"/>
<path d="M247.225 521.726H242.852H222.028H201.191H180.368" stroke="#92E3A9" stroke-miterlimit="10" stroke-linecap="round" stroke-linejoin="round"/>
<path d="M247.225 546H242.852H222.028H201.191H180.368" stroke="#92E3A9" stroke-miterlimit="10" stroke-linecap="round" stroke-linejoin="round"/>
<path d="M247.225 570.274H242.852H222.028H201.191H180.368" stroke="#92E3A9" stroke-miterlimit="10" stroke-linecap="round" stroke-linejoin="round"/>
<path d="M355.728 419.715H278.71" stroke="#92E3A9" stroke-miterlimit="10" stroke-linecap="round" stroke-linejoin="round"/>
<path d="M355.728 443.984H278.71" stroke="#92E3A9" stroke-miterlimit="10" stroke-linecap="round" stroke-linejoin="round"/>
<path d="M355.728 468.251H278.71" stroke="#92E3A9" stroke-miterlimit="10" stroke-linecap="round" stroke-linejoin="round"/>
<path d="M355.728 492.519H278.71" stroke="#92E3A9" stroke-miterlimit="10" stroke-linecap="round" stroke-linejoin="round"/>
<path d="M355.728 516.786H278.71" stroke="#92E3A9" stroke-miterlimit="10" stroke-linecap="round" stroke-linejoin="round"/>
<path d="M355.728 541.055H278.71" stroke="#92E3A9" stroke-miterlimit="10" stroke-linecap="round" stroke-linejoin="round"/>
<path d="M355.728 565.322H278.71" stroke="#92E3A9" stroke-miterlimit="10" stroke-linecap="round" stroke-linejoin="round"/>
<path d="M590.993 583.271H544.401H538.98H53.365" stroke="#263238" stroke-miterlimit="10" stroke-linecap="round" stroke-linejoin="round"/>
<path d="M230.386 581.763C229.697 582.088 224.692 582.27 218.309 582.374C205.335 582.595 186.602 582.491 186.602 582.491C186.602 582.491 185.588 582.491 185.198 577.421C184.821 572.351 187.304 568.321 187.59 566.202C188.942 556.478 185.575 552.422 185.523 551.707C185.523 550.979 203.788 550.589 203.788 550.589L209.768 550.186L208.468 558.74C208.39 559.234 208.338 559.728 208.338 560.209C208.091 566.384 212.264 572.013 218.426 573.326C218.491 573.339 218.647 573.365 218.699 573.378H218.712C219.141 572.975 226.486 569.569 229.528 574.275C231.14 576.758 230.386 581.763 230.386 581.763Z" fill="#263238"/>
<mask id="mask0_50_8947" style="mask-type:luminance" maskUnits="userSpaceOnUse" x="185" y="550" width="46" height="33">
<path d="M230.386 581.763C229.697 582.088 224.692 582.27 218.309 582.374C205.335 582.595 186.602 582.491 186.602 582.491C186.602 582.491 185.588 582.491 185.198 577.421C184.821 572.351 187.304 568.321 187.59 566.202C188.942 556.478 185.575 552.422 185.523 551.707C185.523 550.979 203.788 550.589 203.788 550.589L209.768 550.186L208.468 558.74C208.39 559.234 208.338 559.728 208.338 560.209C208.091 566.384 212.264 572.013 218.426 573.326C218.491 573.339 218.647 573.365 218.699 573.378H218.712C219.141 572.975 226.486 569.569 229.528 574.275C231.14 576.758 230.386 581.763 230.386 581.763Z" fill="white"/>
</mask>
<g mask="url(#mask0_50_8947)">
<path opacity="0.2" d="M230.386 581.763C229.697 582.088 224.692 582.27 218.309 582.374C205.335 582.595 186.602 582.491 186.602 582.491C186.602 582.491 185.588 582.491 185.198 577.421C184.821 572.351 187.304 568.321 187.59 566.202C188.942 556.478 185.575 552.422 185.523 551.707C185.523 550.979 203.788 550.589 203.788 550.589L209.768 550.186L208.468 558.74C208.39 559.234 208.338 559.728 208.338 560.209C208.091 566.384 212.264 572.013 218.426 573.326C218.491 573.339 218.647 573.365 218.699 573.378H218.712C219.141 572.975 226.486 569.569 229.528 574.275C231.14 576.758 230.386 581.763 230.386 581.763Z" fill="white"/>
</g>
<mask id="mask1_50_8947" style="mask-type:luminance" maskUnits="userSpaceOnUse" x="185" y="550" width="46" height="33">
<path d="M230.386 581.763C229.697 582.088 224.692 582.27 218.309 582.374C205.335 582.595 186.602 582.491 186.602 582.491C186.602 582.491 185.588 582.491 185.198 577.421C184.821 572.351 187.304 568.321 187.59 566.202C188.942 556.478 185.575 552.422 185.523 551.707C185.523 550.979 203.788 550.589 203.788 550.589L209.768 550.186L208.468 558.74C208.39 559.234 208.338 559.728 208.338 560.209C208.091 566.384 212.264 572.013 218.426 573.326C218.491 573.339 218.647 573.365 218.699 573.378H218.712C219.141 572.975 226.486 569.569 229.528 574.275C231.14 576.758 230.386 581.763 230.386 581.763Z" fill="white"/>
</mask>
<g mask="url(#mask1_50_8947)">
<path opacity="0.3" d="M218.309 582.374C205.335 582.595 186.602 582.491 186.602 582.491C186.602 582.491 185.588 582.491 185.198 577.421C184.821 572.351 187.304 568.321 187.59 566.202C188.942 556.478 185.575 552.422 185.523 551.707C185.523 550.979 203.788 550.589 203.788 550.589L209.768 550.186L208.468 558.74C208.39 559.234 208.338 559.728 208.338 560.209C204.217 563.615 200.941 566.358 200.941 566.358C200.941 566.358 217.581 571.896 218.309 582.374Z" fill="black"/>
</g>
<path d="M230.386 581.763C229.697 582.088 224.692 582.27 218.309 582.374C205.335 582.595 186.602 582.491 186.602 582.491C186.602 582.491 185.588 582.491 185.198 577.421C184.821 572.351 187.304 568.321 187.59 566.202C188.942 556.478 185.575 552.422 185.523 551.707C185.523 550.979 203.788 550.589 203.788 550.589L209.768 550.186L208.468 558.74C208.39 559.234 208.338 559.728 208.338 560.209C208.091 566.384 212.264 572.013 218.426 573.326C218.491 573.339 218.647 573.365 218.699 573.378H218.712C219.141 572.975 226.486 569.569 229.528 574.275C231.14 576.758 230.386 581.763 230.386 581.763Z" stroke="#263238" stroke-linecap="round" stroke-linejoin="round"/>
<path d="M213.655 539.006C214.266 542.269 215.787 543.192 214.799 544.726C214.656 544.96 214.513 545.233 214.37 545.519C213.603 547.105 212.784 549.341 209.768 550.186C206.219 551.187 189.228 552.11 185.562 551.655C181.896 551.2 179.816 547.729 179.608 544.843C179.387 541.97 180.986 540.111 180.739 536.848C180.492 533.598 177.944 532.636 177.775 530.465C177.606 528.307 179.712 525.135 179.686 522.964C179.634 518.388 179.764 523.38 180.674 497.367C181.181 482.534 184.769 479.31 180.674 462.488C179.192 456.417 163.28 346.502 163.28 346.502L212.355 349.44C212.355 349.44 213.135 368.16 214.019 390.273C215.137 418.405 216.424 452.023 216.463 459.589C216.541 474.955 215.137 496.483 214.006 515.593C213.525 523.744 212.706 529.36 214.032 532.467C214.188 532.805 214.279 533.143 214.305 533.507C214.474 535.639 213.031 535.743 213.655 539.006Z" fill="#92E3A9"/>
<mask id="mask2_50_8947" style="mask-type:luminance" maskUnits="userSpaceOnUse" x="163" y="346" width="54" height="206">
<path d="M213.655 539.006C214.266 542.269 215.787 543.192 214.799 544.726C214.656 544.96 214.513 545.233 214.37 545.519C213.603 547.105 212.784 549.341 209.768 550.186C206.219 551.187 189.228 552.11 185.562 551.655C181.896 551.2 179.816 547.729 179.608 544.843C179.387 541.97 180.986 540.111 180.739 536.848C180.492 533.598 177.944 532.636 177.775 530.465C177.606 528.307 179.712 525.135 179.686 522.964C179.634 518.388 179.764 523.38 180.674 497.367C181.181 482.534 184.769 479.31 180.674 462.488C179.192 456.417 163.28 346.502 163.28 346.502L212.355 349.44C212.355 349.44 213.135 368.16 214.019 390.273C215.137 418.405 216.424 452.023 216.463 459.589C216.541 474.955 215.137 496.483 214.006 515.593C213.525 523.744 212.706 529.36 214.032 532.467C214.188 532.805 214.279 533.143 214.305 533.507C214.474 535.639 213.031 535.743 213.655 539.006Z" fill="white"/>
</mask>
<g mask="url(#mask2_50_8947)">
<path opacity="0.3" d="M214.37 545.519C213.603 547.105 212.784 549.341 209.768 550.186C206.219 551.187 189.228 552.11 185.562 551.655C181.896 551.2 179.816 547.729 179.608 544.843C179.387 541.97 180.986 540.111 180.739 536.848C180.492 533.598 177.944 532.636 177.775 530.465C177.606 528.307 179.712 525.135 179.686 522.964C179.634 518.388 179.764 523.38 180.674 497.367C181.181 482.534 184.769 479.31 180.674 462.488C179.192 456.417 163.28 346.502 163.28 346.502L212.355 349.44C212.355 349.44 213.135 368.16 214.019 390.273C208.104 414.869 201.24 441.935 198.666 446.485L202.722 453.57C202.722 453.57 193.024 476.073 193.024 478.79C193.024 481.494 196.339 506.922 197.431 512.213C198.51 517.504 193.024 513.734 193.024 518.18C193.024 522.262 192.582 542.191 214.37 545.519Z" fill="black"/>
</g>
<path d="M213.655 539.006C214.266 542.269 215.787 543.192 214.799 544.726C214.656 544.96 214.513 545.233 214.37 545.519C213.603 547.105 212.784 549.341 209.768 550.186C206.219 551.187 189.228 552.11 185.562 551.655C181.896 551.2 179.816 547.729 179.608 544.843C179.387 541.97 180.986 540.111 180.739 536.848C180.492 533.598 177.944 532.636 177.775 530.465C177.606 528.307 179.712 525.135 179.686 522.964C179.634 518.388 179.764 523.38 180.674 497.367C181.181 482.534 184.769 479.31 180.674 462.488C179.192 456.417 163.28 346.502 163.28 346.502L212.355 349.44C212.355 349.44 213.135 368.16 214.019 390.273C215.137 418.405 216.424 452.023 216.463 459.589C216.541 474.955 215.137 496.483 214.006 515.593C213.525 523.744 212.706 529.36 214.032 532.467C214.188 532.805 214.279 533.143 214.305 533.507C214.474 535.639 213.031 535.743 213.655 539.006Z" stroke="#263238" stroke-linecap="round" stroke-linejoin="round"/>
<path d="M209.897 384.969C209.897 384.969 203.875 390.209 198.748 389.238" stroke="#263238" stroke-linecap="round" stroke-linejoin="round"/>
<path d="M209.296 394.797C209.296 394.797 199.157 392.357 198 390.3" stroke="#263238" stroke-linecap="round" stroke-linejoin="round"/>
<path d="M196.295 441.109C196.295 441.109 201.777 455.442 207.86 458.871" stroke="#263238" stroke-linecap="round" stroke-linejoin="round"/>
<path d="M208.134 536.025C208.134 536.025 195.974 539.786 189.873 537.043C183.772 534.3 194.644 543.328 206.008 542.529" stroke="#263238" stroke-linecap="round" stroke-linejoin="round"/>
<path d="M190.918 471.203C190.918 471.203 191.017 509.216 200.937 516.786" stroke="#263238" stroke-linecap="round" stroke-linejoin="round"/>
<path d="M201.105 556.465C201.105 556.465 204.898 554.888 208.464 554.918" stroke="#263238" stroke-linecap="round" stroke-linejoin="round"/>
<path d="M201.337 561.397C201.337 561.397 204.858 560.149 207.398 559.572" stroke="#263238" stroke-linecap="round" stroke-linejoin="round"/>
<path d="M201.997 566.114L207.678 564.413" stroke="#263238" stroke-linecap="round" stroke-linejoin="round"/>
<path d="M204.758 569.972L209.433 568.135" stroke="#263238" stroke-linecap="round" stroke-linejoin="round"/>
<path d="M210.047 573.287L212.768 571.2" stroke="#263238" stroke-linecap="round" stroke-linejoin="round"/>
<path d="M202.28 551.775C202.28 551.775 201.825 564.82 205.937 569.054C210.049 573.287 214.395 573.414 214.021 575.058" stroke="#263238" stroke-linecap="round" stroke-linejoin="round"/>
<path d="M164.805 550.247C164.805 550.247 146.418 550.633 146.348 551.359C146.277 552.083 148.945 556.128 145.926 565.835C145.269 567.953 142.093 571.974 141.604 577.036C141.115 582.098 142.137 582.094 142.137 582.094C142.137 582.094 183.799 582.328 186.039 581.368C186.039 581.368 187.65 576.378 186.472 573.901C184.131 568.972 175.536 572.946 175.807 573.005C175.898 573.024 175.626 572.966 175.536 572.946C169.126 571.529 165.9 565.101 168.081 558.386L170.854 549.851L164.805 550.247Z" fill="#263238"/>
<mask id="mask3_50_8947" style="mask-type:luminance" maskUnits="userSpaceOnUse" x="141" y="549" width="46" height="34">
<path d="M164.805 550.247C164.805 550.247 146.418 550.633 146.348 551.359C146.277 552.083 148.945 556.128 145.926 565.835C145.269 567.953 142.093 571.974 141.604 577.036C141.115 582.098 142.137 582.094 142.137 582.094C142.137 582.094 183.799 582.328 186.039 581.368C186.039 581.368 187.65 576.378 186.472 573.901C184.131 568.972 175.536 572.946 175.807 573.005C175.898 573.024 175.626 572.966 175.536 572.946C169.126 571.529 165.9 565.101 168.081 558.386L170.854 549.851L164.805 550.247Z" fill="white"/>
</mask>
<g mask="url(#mask3_50_8947)">
<path opacity="0.25" d="M164.805 550.247C164.805 550.247 146.418 550.633 146.348 551.359C146.277 552.083 148.945 556.128 145.926 565.835C145.269 567.953 142.093 571.974 141.604 577.036C141.115 582.098 142.137 582.094 142.137 582.094C142.137 582.094 183.799 582.328 186.039 581.368C186.039 581.368 187.65 576.378 186.472 573.901C184.131 568.972 175.536 572.946 175.807 573.005C175.898 573.024 175.626 572.966 175.536 572.946C169.126 571.529 165.9 565.101 168.081 558.386L170.854 549.851L164.805 550.247Z" fill="white"/>
</g>
<path d="M164.805 550.247C164.805 550.247 146.418 550.633 146.348 551.359C146.277 552.083 148.945 556.128 145.926 565.835C145.269 567.953 142.093 571.974 141.604 577.036C141.115 582.098 142.137 582.094 142.137 582.094C142.137 582.094 183.799 582.328 186.039 581.368C186.039 581.368 187.65 576.378 186.472 573.901C184.131 568.972 175.536 572.946 175.807 573.005C175.898 573.024 175.626 572.966 175.536 572.946C169.126 571.529 165.9 565.101 168.081 558.386L170.854 549.851L164.805 550.247Z" stroke="#263238" stroke-linecap="round" stroke-linejoin="round"/>
<path d="M207.951 349.435L159.383 346.501C159.383 346.501 156.398 456.229 156.832 462.292C158.036 479.092 153.901 482.303 150.836 497.115C145.462 523.086 146.189 518.098 145.454 522.67C145.105 524.84 142.461 527.998 142.251 530.161C142.042 532.324 144.43 533.283 144.117 536.535C143.803 539.786 141.885 541.639 141.608 544.515C141.331 547.394 142.81 550.859 146.396 551.312C149.981 551.764 167.132 550.846 170.856 549.849C174.582 548.852 175.583 545.931 176.826 544.4C178.069 542.868 176.719 541.943 176.657 538.688C176.595 535.434 178.056 535.324 178.261 533.192C178.295 532.838 178.257 532.488 178.172 532.151C177.371 529.051 179.163 523.444 181.043 515.307C185.453 496.231 190.564 474.737 193.118 459.397C194.39 451.757 198.978 417.509 202.718 389.238C202.718 389.238 206.304 383.443 208.133 372.239" fill="#92E3A9"/>
<mask id="mask4_50_8947" style="mask-type:luminance" maskUnits="userSpaceOnUse" x="141" y="346" width="68" height="206">
<path d="M207.951 349.435L159.383 346.501C159.383 346.501 156.398 456.229 156.832 462.292C158.036 479.092 153.901 482.303 150.836 497.115C145.462 523.086 146.189 518.098 145.454 522.67C145.105 524.84 142.461 527.998 142.251 530.161C142.042 532.324 144.43 533.283 144.117 536.535C143.803 539.786 141.885 541.639 141.608 544.515C141.331 547.394 142.81 550.859 146.396 551.312C149.981 551.764 167.132 550.846 170.856 549.849C174.582 548.852 175.583 545.931 176.826 544.4C178.069 542.868 176.719 541.943 176.657 538.688C176.595 535.434 178.056 535.324 178.261 533.192C178.295 532.838 178.257 532.488 178.172 532.151C177.371 529.051 179.163 523.444 181.043 515.307C185.453 496.231 190.564 474.737 193.118 459.397C194.39 451.757 198.978 417.509 202.718 389.238C202.718 389.238 206.304 383.443 208.133 372.239" fill="white"/>
</mask>
<g mask="url(#mask4_50_8947)">
<path opacity="0.3" d="M159.28 350.31C159.275 350.308 158.846 366.704 158.846 366.704C158.846 366.704 170.82 367.835 183.491 366.704C199.544 365.271 209.296 358.159 209.296 358.159L207.952 349.434C207.952 349.434 189.768 354.335 180.791 353.647C171.813 352.959 163.358 351.883 159.28 350.31Z" fill="black"/>
</g>
<path d="M207.951 349.435L159.383 346.501C159.383 346.501 156.398 456.229 156.832 462.292C158.036 479.092 153.901 482.303 150.836 497.115C145.462 523.086 146.189 518.098 145.454 522.67C145.105 524.84 142.461 527.998 142.251 530.161C142.042 532.324 144.43 533.283 144.117 536.535C143.803 539.786 141.885 541.639 141.608 544.515C141.331 547.394 142.81 550.859 146.396 551.312C149.981 551.764 167.132 550.846 170.856 549.849C174.582 548.852 175.583 545.931 176.826 544.4C178.069 542.868 176.719 541.943 176.657 538.688C176.595 535.434 178.056 535.324 178.261 533.192C178.295 532.838 178.257 532.488 178.172 532.151C177.371 529.051 179.163 523.444 181.043 515.307C185.453 496.231 190.564 474.737 193.118 459.397C194.39 451.757 198.978 417.509 202.718 389.238C202.718 389.238 206.304 383.443 208.133 372.239" stroke="#263238" stroke-linecap="round" stroke-linejoin="round"/>
<path d="M183.998 482.161C183.998 482.161 167.213 510.762 150.631 520.108" stroke="#263238" stroke-linecap="round" stroke-linejoin="round"/>
<path d="M150.348 536.025C156.356 536.786 162.365 537.546 168.373 538.307C169.716 538.477 171.356 538.996 171.219 540.372C171.102 541.567 169.698 542.378 168.505 542.808C164.317 544.315 159.882 544.612 155.953 543.646" stroke="#263238" stroke-linecap="round" stroke-linejoin="round"/>
<path d="M150.879 527.363C157.088 530.994 164.429 533.012 172.136 533.204" stroke="#263238" stroke-linecap="round" stroke-linejoin="round"/>
<path d="M162.184 475.309C162.184 475.309 171.308 475.652 175.969 475.237C172.496 480 166.929 482.066 161.429 482.339" stroke="#263238" stroke-linecap="round" stroke-linejoin="round"/>
<path d="M169.022 360.052C169.022 360.052 167.684 406.774 167.253 426.202C166.823 445.631 165.955 468.298 165.955 468.298C165.955 468.298 164.414 470.632 165.143 473.019C165.871 475.406 165.871 475.406 165.871 475.406L165.469 482.161C165.469 482.161 163.649 484.194 164.272 486.655C164.895 489.116 159.848 506.232 159.848 506.232L158.972 507.37C157.134 509.761 156.606 512.737 157.593 515.142L155.788 529.802L155.766 529.823C153.735 531.753 153.247 534.644 154.623 536.566L152.924 544.201C151.125 545.947 150.688 548.523 151.895 550.263L152.19 550.689" stroke="#263238" stroke-linecap="round" stroke-linejoin="round"/>
<path d="M253.127 273.939C251.806 276.779 240.75 284.362 240.75 284.362C240.738 283.113 241.003 281.876 241.527 280.743C242.324 279.53 242.884 278.353 243.337 277.631C243.468 275.653 242.818 273.705 241.527 272.202C240.026 270.537 238.831 274.717 238.18 277.505C237.528 280.292 233.167 284.526 233.366 286.553C233.734 288.934 234.224 291.296 234.832 293.628C234.832 293.628 216.314 300.135 214.266 296.18C209.927 287.802 205.136 279.665 199.917 271.805C195.555 277.885 198.994 286.282 201.455 296.614C203.915 306.947 211.471 321.386 211.471 321.386C225.021 314.9 240.405 297.937 240.405 297.937C240.405 297.937 244.024 296.326 248.494 294.788C252.963 293.25 252.312 291.948 253.036 287.55C253.76 283.152 257.505 277.163 257.288 274.882C257.071 272.598 254.448 271.097 253.127 273.939Z" fill="white" stroke="#263238" stroke-linecap="round" stroke-linejoin="round"/>
<path d="M209.313 295.893C209.144 305.305 211.003 337.22 213.018 349.882L157.879 348.49V347.563C161.922 332.587 159.302 316.433 152.919 302.289C149.539 294.814 148.038 285.252 146.296 276.204C141.863 253.168 152.987 246.043 162.282 245.159C165.87 244.99 166.179 242.58 168.844 242.749C171.236 242.892 172.744 242.697 174.148 242.099C175.305 246.818 181.714 260.676 183.911 262.262C186.108 263.848 189.293 264.355 191.516 262.808C193.726 261.261 194.337 258.31 194.844 255.658C195.104 254.254 195.455 252.772 196.066 251.485C199.316 253.11 204.984 255.034 209.196 262.613C214.344 279.344 211.536 268.619 215.54 293.163C216.151 296.92 209.313 295.893 209.313 295.893Z" fill="white" stroke="#263238" stroke-linecap="round" stroke-linejoin="round"/>
<path d="M200.625 252.342L195.296 250.488C198.916 262.896 195.787 277 186.644 271.432C177.501 265.866 173.878 249.825 171.142 242.804C169.709 242.362 163.903 242.147 160.891 244.464C164.037 250.217 172.596 261.669 171.581 270.955C170.447 281.342 162.267 290.593 146.99 280.143C149.075 295.898 155.68 307.26 156.952 312.58C161.599 332.024 158.496 334.743 156.322 353.986C178.398 365.266 205.162 359.657 216.884 356.23C213.311 336.723 214.873 287.326 200.625 252.342Z" fill="#92E3A9"/>
<mask id="mask5_50_8947" style="mask-type:luminance" maskUnits="userSpaceOnUse" x="146" y="242" width="71" height="119">
<path d="M200.625 252.342L195.296 250.488C198.916 262.896 195.787 277 186.644 271.432C177.501 265.866 173.878 249.825 171.142 242.804C169.709 242.362 163.903 242.147 160.891 244.464C164.037 250.217 172.596 261.669 171.581 270.955C170.447 281.342 162.267 290.593 146.99 280.143C149.075 295.898 155.68 307.26 156.952 312.58C161.599 332.024 158.496 334.743 156.322 353.986C178.398 365.266 205.162 359.657 216.884 356.23C213.311 336.723 214.873 287.326 200.625 252.342Z" fill="white"/>
</mask>
<g mask="url(#mask5_50_8947)">
<path opacity="0.3" d="M166.941 335.098C166.941 335.098 202.99 350.828 208.133 335.562C198.651 337.616 188.917 338.013 179.316 336.74L166.941 335.098Z" fill="black"/>
</g>
<mask id="mask6_50_8947" style="mask-type:luminance" maskUnits="userSpaceOnUse" x="146" y="242" width="71" height="119">
<path d="M200.625 252.342L195.296 250.488C198.916 262.896 195.787 277 186.644 271.432C177.501 265.866 173.878 249.825 171.142 242.804C169.709 242.362 163.903 242.147 160.891 244.464C164.037 250.217 172.596 261.669 171.581 270.955C170.447 281.342 162.267 290.593 146.99 280.143C149.075 295.898 155.68 307.26 156.952 312.58C161.599 332.024 158.496 334.743 156.322 353.986C178.398 365.266 205.162 359.657 216.884 356.23C213.311 336.723 214.873 287.326 200.625 252.342Z" fill="white"/>
</mask>
<g mask="url(#mask6_50_8947)">
<path opacity="0.3" d="M154.172 301.072L180.357 280.264C180.357 280.264 185.527 294.585 171.625 302.771C162.201 308.321 154.172 301.072 154.172 301.072Z" fill="black"/>
</g>
<path d="M200.625 252.342L195.296 250.488C198.916 262.896 195.787 277 186.644 271.432C177.501 265.866 173.878 249.825 171.142 242.804C169.709 242.362 163.903 242.147 160.891 244.464C164.037 250.217 172.596 261.669 171.581 270.955C170.447 281.342 162.267 290.593 146.99 280.143C149.075 295.898 155.68 307.26 156.952 312.58C161.599 332.024 158.496 334.743 156.322 353.986C178.398 365.266 205.162 359.657 216.884 356.23C213.311 336.723 214.873 287.326 200.625 252.342Z" stroke="#263238" stroke-linecap="round" stroke-linejoin="round"/>
<path d="M208.134 335.045C207.787 337.018 206.261 338.633 204.476 339.544" stroke="#263238" stroke-linecap="round" stroke-linejoin="round"/>
<path d="M198.667 340.947C187.777 341.962 176.605 339.73 166.942 334.608" stroke="#263238" stroke-linecap="round" stroke-linejoin="round"/>
<path d="M249.18 252.846L237.94 282.944C237.528 284.027 237.65 285.256 238.264 286.23L240.358 289.587C241.381 291.239 245.007 291.736 246.57 290.661C247.117 290.285 247.549 289.749 247.813 289.119L258.944 259.047C259.537 257.642 259.215 255.991 258.141 254.944L254.627 251.555C253.257 250.211 251.117 250.29 249.846 251.732C249.561 252.056 249.335 252.434 249.18 252.846Z" fill="#263238"/>
<path d="M146.965 260.95C146.965 260.95 146.965 266.395 150.158 273.983C155.587 286.884 176.274 318.981 180.814 321.151C185.355 323.32 231.725 298.36 235.075 294.938C238.425 291.515 236.555 286.976 236.555 286.976C236.555 286.976 236.499 290.174 239.223 289.583C240.943 289.21 239.52 283.907 239.52 283.907C239.52 283.907 242.666 281.685 239.673 277.571C239.673 277.571 243.909 277.571 243.619 274.379C243.503 273.103 231.023 272.906 229.108 276.504C226.78 280.877 224.474 292.266 224.474 292.266C224.474 292.266 194.253 300.066 187.997 301.224L171.534 265.334" fill="white"/>
<path d="M146.965 260.95C146.965 260.95 146.965 266.395 150.158 273.983C155.587 286.884 176.274 318.981 180.814 321.151C185.355 323.32 231.725 298.36 235.075 294.938C238.425 291.515 236.555 286.976 236.555 286.976C236.555 286.976 236.499 290.174 239.223 289.583C240.943 289.21 239.52 283.907 239.52 283.907C239.52 283.907 242.666 281.685 239.673 277.571C239.673 277.571 243.909 277.571 243.619 274.379C243.503 273.103 231.023 272.906 229.108 276.504C226.78 280.877 224.474 292.266 224.474 292.266C224.474 292.266 194.253 300.066 187.997 301.224L171.534 265.334" stroke="#263238" stroke-linecap="round" stroke-linejoin="round"/>
<path d="M235.556 296.847C236.492 294.471 238.118 292.429 240.224 290.984C242.671 289.817 246.039 289.463 248.699 288.947C248.699 288.947 250.784 280.144 251.914 280.38C255.363 281.103 252.675 289.193 252.675 289.193" fill="white"/>
<path d="M235.556 296.847C236.492 294.471 238.118 292.429 240.224 290.984C242.671 289.817 246.039 289.463 248.699 288.947C248.699 288.947 250.784 280.144 251.914 280.38C255.363 281.103 252.675 289.193 252.675 289.193" stroke="#263238" stroke-linecap="round" stroke-linejoin="round"/>
<path d="M256.818 277.213C255.893 276.288 254.415 276.225 253.416 277.069C251.75 278.589 249.2 282.896 246.485 285.194" stroke="#263238" stroke-linecap="round" stroke-linejoin="round"/>
<path d="M232.723 286.473C233.462 284.833 238.732 282.058 239.777 285.614" stroke="#263238" stroke-linecap="round" stroke-linejoin="round"/>
<path d="M232.648 282.136C232.648 282.136 238.748 278.811 239.97 282.931" stroke="#263238" stroke-linecap="round" stroke-linejoin="round"/>
<path d="M233.462 278.161C233.462 278.161 236.009 277.671 236.556 277.616C238.583 277.413 240.774 277.159 241.863 277.159" stroke="#263238" stroke-linecap="round" stroke-linejoin="round"/>
<path d="M202.718 389.238C202.718 389.238 194.601 382.071 189.872 380.7L202.718 389.238Z" fill="#92E3A9"/>
<path d="M202.718 389.238C202.718 389.238 194.601 382.071 189.872 380.7" stroke="#263238" stroke-linecap="round" stroke-linejoin="round"/>
<path d="M161.7 556.543C161.7 556.543 165.629 554.94 169.194 554.97" stroke="#263238" stroke-linecap="round" stroke-linejoin="round"/>
<path d="M161.507 561.557C161.507 561.557 165.135 560.288 167.725 559.701" stroke="#263238" stroke-linecap="round" stroke-linejoin="round"/>
<path d="M161.759 566.35L167.588 564.622" stroke="#263238" stroke-linecap="round" stroke-linejoin="round"/>
<path d="M164.189 570.274L169.022 568.405" stroke="#263238" stroke-linecap="round" stroke-linejoin="round"/>
<path d="M169.194 573.643L172.094 571.522" stroke="#263238" stroke-linecap="round" stroke-linejoin="round"/>
<path d="M163.28 551.775C163.28 551.775 161.7 565.037 165.447 569.34C169.194 573.643 173.529 573.772 173.014 575.444" stroke="#263238" stroke-linecap="round" stroke-linejoin="round"/>
<path d="M194.795 249.947C194.795 249.947 200.278 271.339 191.473 272.961C179.481 275.17 171.142 242.792 171.142 242.792C172.979 242.667 173.195 241.907 174.791 240.989C174.791 240.989 188.204 267.748 194.795 249.947Z" fill="#263238"/>
<path d="M158.306 245.889C158.306 245.889 145.76 248.382 145.712 267.03C145.664 285.544 153.941 301.227 153.941 301.227C153.941 301.227 163.74 300.427 169.927 295.898C182.901 286.399 180.816 281.07 180.816 281.07L174.005 267.574C174.005 267.574 171.774 258.935 162.049 245.159L158.306 245.889Z" fill="#263238"/>
<path d="M201.399 253.083C208.231 272.498 208.54 279.757 209.776 288.716C209.776 288.716 216.477 287.37 217.499 285.935C217.499 285.935 214.25 270.05 210.739 261.834C208.512 256.625 205.566 254.781 201.399 253.083Z" fill="#263238"/>
<path d="M194.779 231.048C194.779 231.048 193.799 248.829 193.868 250.257C193.982 252.954 195.933 256.526 194.137 258.539C192.327 260.554 189.111 260.792 186.61 259.752C184.107 258.712 182.194 256.651 180.471 254.56C177.391 250.784 174.691 246.692 172.483 242.364C173.107 241.896 174.824 239.864 175.661 237.166C175.661 237.166 176 235.659 176.024 235.587C176.543 232.006 176.353 228.137 175.87 224.565C174.912 217.325 172.74 211.279 172.74 211.279L194.779 231.048Z" fill="white" stroke="#263238" stroke-linecap="round" stroke-linejoin="round"/>
<path d="M176.297 248.026C180.121 249.33 182.901 250.566 185.207 251.823L176.297 248.026Z" fill="#263238"/>
<path d="M176.297 248.026C180.121 249.33 182.901 250.566 185.207 251.823" stroke="#263238" stroke-linecap="round" stroke-linejoin="round"/>
<path d="M173.571 188.031C173.571 188.031 162.497 194.363 168.238 210.889C173.979 227.414 186.738 245.869 198.324 243.396C209.91 240.924 212.918 217.909 206.784 202.567C200.651 187.226 185.068 178.719 173.571 188.031Z" fill="white" stroke="#263238" stroke-linecap="round" stroke-linejoin="round"/>
<path d="M206.608 218.525C206.69 219.886 206.157 221.03 205.43 221.073C204.703 221.116 204.039 220.044 203.957 218.683C203.875 217.322 204.391 216.198 205.136 216.154C205.88 216.108 206.526 217.162 206.608 218.525Z" fill="#263238"/>
<path d="M195.309 217.997C195.39 219.34 194.875 220.483 194.148 220.526C193.422 220.568 192.757 219.497 192.677 218.154C192.596 216.811 193.11 215.651 193.855 215.606C194.598 215.562 195.226 216.618 195.309 217.997Z" fill="#263238"/>
<path d="M199.562 190.874C192.14 183.655 182.034 181.414 173.959 187.958C173.959 187.958 162.886 194.29 168.627 210.816C170.013 214.76 171.694 218.594 173.654 222.284L173.863 222.465C173.863 222.465 170.226 218.839 184.664 210.861C189.403 208.176 196.417 191.481 199.562 190.874Z" fill="#263238" stroke="#263238" stroke-linecap="round" stroke-linejoin="round"/>
<path d="M187.967 196.264C187.967 196.264 188.986 184.751 196.99 184.359C201.162 184.155 206.678 189.756 207.362 192.713C208.307 196.8 211.506 199.982 215.625 200.772C215.625 200.772 213.303 208.589 208.79 209.141C201.341 210.054 197.483 208.311 192.68 201.743C191.303 199.861 189.834 198.046 188.148 196.435L187.967 196.264Z" fill="#263238" stroke="#263238" stroke-linecap="round" stroke-linejoin="round"/>
<path d="M176.04 218.388C176.04 218.388 171.66 209.362 167.761 219.302C165.335 225.486 175.052 230.433 178.383 228.801" fill="white"/>
<path d="M176.04 218.388C176.04 218.388 171.66 209.362 167.761 219.302C165.335 225.486 175.052 230.433 178.383 228.801" stroke="#263238" stroke-linecap="round" stroke-linejoin="round"/>
<path d="M202.119 212.931C200.624 214.583 200.017 216.856 200.49 219.033C200.824 221.395 201.621 223.668 202.832 225.722L197.279 227.529" stroke="#263238" stroke-linecap="round" stroke-linejoin="round"/>
<path d="M192.332 231.57C194.126 233.336 196.772 233.921 199.143 233.076" stroke="#263238" stroke-linecap="round" stroke-linejoin="round"/>
<path d="M186.169 212.776C186.169 212.776 190.043 208.459 194.776 210.535" stroke="#263238" stroke-linecap="round" stroke-linejoin="round"/>
<path d="M204.275 211.621C204.275 211.621 209.379 210.035 208.732 214.534" stroke="#263238" stroke-linecap="round" stroke-linejoin="round"/>
<path d="M175.958 223.341C175.065 223.492 174.251 222.743 173.872 221.92C173.494 221.098 173.391 220.169 173.012 219.348C172.632 218.526 171.816 217.777 170.924 217.932" fill="#263238"/>
<path d="M175.958 223.341C175.065 223.492 174.251 222.743 173.872 221.92C173.494 221.098 173.391 220.169 173.012 219.348C172.632 218.526 171.816 217.777 170.924 217.932" stroke="#263238" stroke-linecap="round" stroke-linejoin="round"/>
<path d="M192.169 187.678C191.595 185.357 190.696 183.117 189.504 181.043C189.513 181.09 191.621 180.501 192.787 180.253C192.598 182.532 192.357 185.399 192.169 187.678Z" fill="#263238" stroke="#263238" stroke-linecap="round" stroke-linejoin="round"/>
<path d="M194.394 242.888L194.48 246.827C193.77 247.164 192.875 247.321 191.747 247.192C186.757 246.615 181.721 235.548 181.412 234.859C181.41 234.848 181.398 234.849 181.396 234.837C181.44 234.867 181.474 234.911 181.505 234.944C187.426 241.443 191.799 242.847 194.394 242.888Z" fill="#263238"/>
<path d="M363.035 280.306H395.886" stroke="#263238" stroke-linecap="round" stroke-linejoin="round"/>
<path d="M325.348 280.306H358.71" stroke="#263238" stroke-linecap="round" stroke-linejoin="round"/>
<path d="M307.584 280.306H317.838" stroke="#263238" stroke-linecap="round" stroke-linejoin="round"/>
<path d="M334.559 298.146H395.755" stroke="#263238" stroke-linecap="round" stroke-linejoin="round"/>
<path d="M317.838 298.146H325.348" stroke="#263238" stroke-linecap="round" stroke-linejoin="round"/>
<path d="M361.95 315.986H395.625" stroke="#263238" stroke-linecap="round" stroke-linejoin="round"/>
<path d="M328.093 315.986H356.962" stroke="#263238" stroke-linecap="round" stroke-linejoin="round"/>
<path d="M357.331 333.824H395.495" stroke="#263238" stroke-linecap="round" stroke-linejoin="round"/>
<path d="M338.347 333.824H351.915" stroke="#263238" stroke-linecap="round" stroke-linejoin="round"/>
<path d="M469.568 334.476H373.922L378.72 279.636H474.366L469.568 334.476Z" fill="white" stroke="#263238" stroke-miterlimit="10" stroke-linecap="round" stroke-linejoin="round"/>
<path d="M474.366 279.636H378.72" stroke="#263238" stroke-miterlimit="10" stroke-linecap="round" stroke-linejoin="round"/>
<path d="M469.569 334.473H373.918L406.613 303.429L423.227 317.593L442.671 303.16L469.569 334.473Z" fill="white" stroke="#263238" stroke-miterlimit="10" stroke-linecap="round" stroke-linejoin="round"/>
<path d="M474.367 279.636L442.671 303.16L423.227 317.593L406.613 303.429L378.716 279.636H474.367Z" fill="white" stroke="#263238" stroke-miterlimit="10" stroke-linecap="round" stroke-linejoin="round"/>
<path d="M298.427 280.306H274.416" stroke="#263238" stroke-linecap="round" stroke-linejoin="round"/>
<path d="M390.433 217.48C371.261 233.112 335.893 242.602 335.893 242.602L353.721 223.506V223.493C337.338 218.215 325.486 202.848 325.486 184.703C325.486 161.235 345.324 142.403 369.147 144.062C389.536 145.482 405.915 162.227 406.92 182.641C407.616 196.801 401.09 209.469 390.696 217.281" fill="white"/>
<path d="M390.433 217.48C371.261 233.112 335.893 242.602 335.893 242.602L353.721 223.506V223.493C337.338 218.215 325.486 202.848 325.486 184.703C325.486 161.235 345.324 142.403 369.147 144.062C389.536 145.482 405.915 162.227 406.92 182.641C407.616 196.801 401.09 209.469 390.696 217.281" stroke="#263238" stroke-miterlimit="10" stroke-linecap="round" stroke-linejoin="round"/>
<path d="M391.405 167.141C398.032 167.141 403.403 161.769 403.403 155.143C403.403 148.517 398.032 143.146 391.405 143.146C384.779 143.146 379.408 148.517 379.408 155.143C379.408 161.769 384.779 167.141 391.405 167.141Z" fill="#92E3A9" stroke="#263238" stroke-linecap="round" stroke-linejoin="round"/>
<path d="M384.45 152.469L391.405 160.291L407.223 141.571L406.67 140.984L391.405 154.112L387.362 149.711L384.45 152.469Z" fill="#263238" stroke="#263238" stroke-linecap="round" stroke-linejoin="round"/>
<path d="M345.128 174.832H389.93" stroke="#263238" stroke-miterlimit="10" stroke-linecap="round" stroke-linejoin="round"/>
<path d="M344.115 186.402H388.917" stroke="#263238" stroke-miterlimit="10" stroke-linecap="round" stroke-linejoin="round"/>
<path d="M343.104 197.972H387.906" stroke="#263238" stroke-miterlimit="10" stroke-linecap="round" stroke-linejoin="round"/>
<path d="M484.221 72.7415V93.2503L540.342 49.9902L484.221 72.7415Z" fill="#92E3A9" stroke="#263238" stroke-miterlimit="10" stroke-linecap="round" stroke-linejoin="round"/>
<path d="M484.221 72.7415L541.634 49.2765L463.244 57.4067L484.221 72.7415Z" fill="#92E3A9" stroke="#263238" stroke-miterlimit="10" stroke-linecap="round" stroke-linejoin="round"/>
<path d="M490.972 76.986L518.003 96.9852L541.634 49.2765L490.972 76.986Z" fill="#92E3A9" stroke="#263238" stroke-miterlimit="10" stroke-linecap="round" stroke-linejoin="round"/>
<path d="M490.972 76.986L484.221 93.2503L498.599 82.6293L490.972 76.986Z" fill="#92E3A9" stroke="#263238" stroke-miterlimit="10" stroke-linecap="round" stroke-linejoin="round"/>
<path d="M269.164 248.907C269.313 248.498 269.461 248.089 269.607 247.684" stroke="#263238" stroke-linecap="round" stroke-linejoin="round"/>
<path d="M271.309 242.776C283.401 206.67 281.229 184.978 300.854 150.002C304.82 142.934 324.503 109.47 352.565 97.5416C367.148 91.3419 376.434 100.598 372.676 107.141C364.291 121.737 333.495 104.247 364.291 86.9843C392.778 71.0164 453.439 102.229 481.875 93.2763" stroke="#263238" stroke-linecap="round" stroke-linejoin="round" stroke-dasharray="2 3.99"/>
<path d="M484.307 92.3766C484.708 92.205 485.1 92.0217 485.485 91.8293" stroke="#263238" stroke-linecap="round" stroke-linejoin="round"/>
</svg>
