<svg width="713" height="713" viewBox="0 0 713 713" fill="none" xmlns="http://www.w3.org/2000/svg">
<path d="M437.218 104.99C410.79 124.039 393.81 153.181 372.049 177.424C345.179 207.36 310.37 230.103 272.165 242.687C240.734 253.04 207.029 256.688 177.125 270.861C118.836 298.485 83.9284 365.939 89.5772 430.194C95.226 494.448 138.309 552.735 195.642 582.293C215.111 592.33 236.128 599.359 257.718 603.054C298.333 610.004 340.103 605.11 380.414 596.577C450.045 581.837 519.636 534.093 558.072 473.058C575.217 445.833 589.023 416.525 599.272 386.032C616.099 335.961 623.353 282.62 620.002 229.881C617.122 184.563 609.953 134.765 570.741 105.657C531.618 76.6133 476.653 76.5656 437.218 104.99Z" fill="#92E3A9"/>
<path opacity="0.7" d="M437.218 104.99C410.79 124.039 393.81 153.181 372.049 177.424C345.179 207.36 310.37 230.103 272.165 242.687C240.734 253.04 207.029 256.688 177.125 270.861C118.836 298.485 83.9284 365.939 89.5772 430.194C95.226 494.448 138.309 552.735 195.642 582.293C215.111 592.33 236.128 599.359 257.718 603.054C298.333 610.004 340.103 605.11 380.414 596.577C450.045 581.837 519.636 534.093 558.072 473.058C575.217 445.833 589.023 416.525 599.272 386.032C616.099 335.961 623.353 282.62 620.002 229.881C617.122 184.563 609.953 134.765 570.741 105.657C531.618 76.6133 476.653 76.5656 437.218 104.99Z" fill="white"/>
<path d="M417.592 629.25C545.247 615.814 645.799 577.052 642.18 542.674C638.562 508.295 532.143 491.318 404.488 504.754C276.833 518.191 176.281 556.952 179.9 591.331C183.518 625.709 289.937 642.686 417.592 629.25Z" fill="#92E3A9"/>
<path opacity="0.5" d="M417.592 629.25C545.247 615.814 645.799 577.052 642.18 542.674C638.562 508.295 532.143 491.318 404.488 504.754C276.833 518.191 176.281 556.952 179.9 591.331C183.518 625.709 289.937 642.686 417.592 629.25Z" fill="white"/>
<path d="M404.765 125.893L420.797 278.218C421.468 284.59 416.847 290.299 410.475 290.969L138.739 319.571C132.367 320.241 126.659 315.62 125.988 309.248L109.955 156.923C109.285 150.551 113.906 144.843 120.278 144.172L392.014 115.571C398.386 114.9 404.094 119.521 404.765 125.893Z" fill="white"/>
<path d="M404.765 125.893L405.245 130.461L110.436 161.491L109.955 156.923C109.285 150.551 113.906 144.843 120.278 144.172L392.014 115.571C398.386 114.9 404.094 119.521 404.765 125.893Z" fill="#92E3A9"/>
<path d="M404.765 125.893L420.797 278.218C421.468 284.59 416.847 290.299 410.475 290.969L138.739 319.571C132.367 320.241 126.659 315.62 125.988 309.248L109.955 156.923C109.285 150.551 113.906 144.843 120.278 144.172L392.014 115.571C398.386 114.9 404.094 119.521 404.765 125.893Z" stroke="#263238" stroke-miterlimit="10" stroke-linecap="round" stroke-linejoin="round"/>
<path d="M404.765 125.893L405.245 130.461L110.436 161.491L109.955 156.923C109.285 150.551 113.906 144.843 120.278 144.172L392.014 115.571C398.386 114.9 404.094 119.521 404.765 125.893Z" stroke="#263238" stroke-miterlimit="10" stroke-linecap="round" stroke-linejoin="round"/>
<path d="M142.696 149.953C142.867 151.58 141.687 153.037 140.061 153.208C138.434 153.379 136.977 152.2 136.806 150.573C136.635 148.947 137.814 147.489 139.441 147.318C141.068 147.147 142.525 148.327 142.696 149.953Z" fill="#263238"/>
<path d="M158.099 148.332C158.271 149.959 157.091 151.416 155.464 151.587C153.838 151.758 152.38 150.578 152.209 148.952C152.038 147.325 153.218 145.868 154.844 145.697C156.471 145.526 157.928 146.705 158.099 148.332Z" fill="#263238"/>
<path d="M170.868 149.966C172.494 149.795 173.674 148.337 173.503 146.711C173.331 145.084 171.874 143.904 170.248 144.076C168.621 144.247 167.441 145.704 167.612 147.331C167.784 148.957 169.241 150.137 170.868 149.966Z" fill="#263238"/>
<path d="M222.59 212.751L139.241 221.524C136.614 221.8 134.261 219.895 133.984 217.269L129.764 177.173C129.488 174.546 131.393 172.193 134.019 171.916L217.369 163.143C219.995 162.867 222.349 164.772 222.625 167.399L226.845 207.495C227.122 210.121 225.217 212.475 222.59 212.751Z" stroke="#263238" stroke-miterlimit="10" stroke-linecap="round" stroke-linejoin="round"/>
<path d="M139.288 215.213L219.808 206.738" stroke="#263238" stroke-miterlimit="10" stroke-linecap="round" stroke-linejoin="round"/>
<path d="M153.611 204.129L144.269 205.112L145.252 214.454L154.594 213.47L153.611 204.129Z" fill="#92E3A9" stroke="#263238" stroke-miterlimit="10"/>
<path d="M165.994 190.406L156.652 191.389L158.942 213.144L168.284 212.161L165.994 190.406Z" fill="#92E3A9" stroke="#263238" stroke-miterlimit="10"/>
<path d="M181.791 192.527L172.449 193.51L174.368 211.742L183.71 210.759L181.791 192.527Z" fill="#92E3A9" stroke="#263238" stroke-miterlimit="10"/>
<path d="M196.062 172.664L186.72 173.647L190.485 209.415L199.827 208.432L196.062 172.664Z" fill="#92E3A9" stroke="#263238" stroke-miterlimit="10"/>
<path d="M212.271 171.236L202.93 172.219L206.694 207.987L216.036 207.003L212.271 171.236Z" fill="#92E3A9" stroke="#263238" stroke-miterlimit="10"/>
<path d="M342.742 202.703C357.171 201.185 367.636 188.257 366.118 173.828C364.599 159.399 351.671 148.933 337.242 150.452C322.814 151.971 312.348 164.899 313.867 179.328C315.385 193.756 328.313 204.222 342.742 202.703Z" fill="#92E3A9" stroke="#263238" stroke-miterlimit="10"/>
<path d="M343.848 192.65L344.13 195.326L339.752 195.787L339.47 193.111C335.675 192.576 332.964 189.713 332.534 185.626L332.406 184.409L337.312 183.352L337.445 184.617C337.706 187.098 339.129 188.473 341.173 188.257C343.216 188.042 344.349 186.645 344.139 184.65C343.888 182.265 341.435 180.458 338.577 178.545C335.191 176.295 331.755 173.556 331.299 169.227C330.854 164.994 332.579 161.763 336.039 160.513L335.757 157.837L340.136 157.376L340.417 160.052C344.104 160.5 346.514 163.296 346.969 167.626L347.061 168.501L342.155 169.558L342.053 168.585C341.777 165.958 340.611 164.703 338.812 164.893C337.012 165.082 336.108 166.308 336.334 168.449C336.584 170.834 339.081 172.587 341.895 174.554C345.237 176.858 348.716 179.543 349.172 183.872C349.607 188.01 347.502 191.38 343.848 192.65Z" fill="#263238"/>
<path d="M134.979 247.603L142.613 246.8" stroke="#263238" stroke-miterlimit="10" stroke-linecap="round" stroke-linejoin="round"/>
<path d="M136.531 262.349L144.165 261.546" stroke="#263238" stroke-miterlimit="10" stroke-linecap="round" stroke-linejoin="round"/>
<path d="M138.083 277.095L145.717 276.292" stroke="#263238" stroke-miterlimit="10" stroke-linecap="round" stroke-linejoin="round"/>
<path d="M139.635 291.842L147.269 291.038" stroke="#263238" stroke-miterlimit="10" stroke-linecap="round" stroke-linejoin="round"/>
<path d="M165.257 300.413L164.633 294.486" stroke="#263238" stroke-miterlimit="10" stroke-linecap="round" stroke-linejoin="round"/>
<path d="M177.35 299.14L176.726 293.213" stroke="#263238" stroke-miterlimit="10" stroke-linecap="round" stroke-linejoin="round"/>
<path d="M189.444 297.867L188.82 291.94" stroke="#263238" stroke-miterlimit="10" stroke-linecap="round" stroke-linejoin="round"/>
<path d="M201.536 296.595L200.912 290.667" stroke="#263238" stroke-miterlimit="10" stroke-linecap="round" stroke-linejoin="round"/>
<path d="M213.63 295.322L213.006 289.394" stroke="#263238" stroke-miterlimit="10" stroke-linecap="round" stroke-linejoin="round"/>
<path d="M225.722 294.049L225.098 288.121" stroke="#263238" stroke-miterlimit="10" stroke-linecap="round" stroke-linejoin="round"/>
<path d="M237.816 292.776L237.192 286.849" stroke="#263238" stroke-miterlimit="10" stroke-linecap="round" stroke-linejoin="round"/>
<path d="M249.908 291.503L249.284 285.576" stroke="#263238" stroke-miterlimit="10" stroke-linecap="round" stroke-linejoin="round"/>
<path d="M262.001 290.23L261.377 284.303" stroke="#263238" stroke-miterlimit="10" stroke-linecap="round" stroke-linejoin="round"/>
<path d="M274.094 288.958L273.47 283.03" stroke="#263238" stroke-miterlimit="10" stroke-linecap="round" stroke-linejoin="round"/>
<path d="M286.187 287.685L285.563 281.757" stroke="#263238" stroke-miterlimit="10" stroke-linecap="round" stroke-linejoin="round"/>
<path d="M298.281 286.412L297.657 280.484" stroke="#263238" stroke-miterlimit="10" stroke-linecap="round" stroke-linejoin="round"/>
<path d="M310.373 285.139L309.749 279.212" stroke="#263238" stroke-miterlimit="10" stroke-linecap="round" stroke-linejoin="round"/>
<path d="M322.467 283.866L321.843 277.939" stroke="#263238" stroke-miterlimit="10" stroke-linecap="round" stroke-linejoin="round"/>
<path d="M334.559 282.593L333.935 276.666" stroke="#263238" stroke-miterlimit="10" stroke-linecap="round" stroke-linejoin="round"/>
<path d="M346.194 281.369L345.57 275.441" stroke="#263238" stroke-miterlimit="10" stroke-linecap="round" stroke-linejoin="round"/>
<path d="M357.828 280.144L357.204 274.217" stroke="#263238" stroke-miterlimit="10" stroke-linecap="round" stroke-linejoin="round"/>
<path d="M369.463 278.92L368.839 272.992" stroke="#263238" stroke-miterlimit="10" stroke-linecap="round" stroke-linejoin="round"/>
<path d="M393.462 211.267L399.494 268.576C399.907 272.5 396.246 276.099 391.315 276.618L149.735 302.046C146.457 302.391 143.438 301.289 141.673 299.353C140.782 298.38 140.2 297.198 140.062 295.882L134.03 238.573C133.617 234.649 137.278 231.05 142.209 230.531L383.79 205.103C388.719 204.585 393.049 207.342 393.462 211.267Z" stroke="#92E3A9" stroke-miterlimit="10" stroke-linecap="round" stroke-linejoin="round"/>
<path d="M308.258 108.025L242.075 220.019L216.763 262.849L182.391 245.725L148.481 302.179L147.91 302.239C145.302 302.513 142.869 301.35 141.419 299.381L179.526 235.932L213.87 253.034L232.796 220.996L301.803 104.223L308.258 108.025Z" fill="#263238"/>
<path d="M288.827 111.402L315.37 91.2309L310.655 121.778L304.212 108.554L288.827 111.402Z" fill="#263238"/>
<path d="M591.478 410.234L138.195 457.944L92.1452 508.461" stroke="#263238" stroke-miterlimit="10" stroke-linecap="round" stroke-linejoin="round"/>
<path d="M135.151 426.281L125.906 338.441" stroke="#263238" stroke-miterlimit="10" stroke-linecap="round" stroke-linejoin="round"/>
<path d="M137.944 452.814L136.156 435.824" stroke="#263238" stroke-miterlimit="10" stroke-linecap="round" stroke-linejoin="round"/>
<path d="M541.702 199.409C541.702 199.409 541.143 194.102 532.925 187.449C524.707 180.796 519.492 177.059 519.492 177.059C519.492 177.059 517.059 189.654 524.737 196.363C530.364 201.071 536.376 205.297 542.71 208.999L541.7 199.41L541.702 199.409Z" fill="#92E3A9"/>
<path d="M534.407 233.7C534.407 233.7 533.849 228.392 525.631 221.739C517.412 215.086 512.199 211.35 512.199 211.35C512.199 211.35 509.765 223.946 517.444 230.656C523.074 235.359 529.086 239.586 535.417 243.291L534.407 233.7Z" fill="#92E3A9"/>
<path d="M542.187 208.501C542.187 208.501 542.188 203.162 549.673 195.692C557.158 188.221 561.958 183.967 561.958 183.967C561.958 183.967 565.687 196.285 558.733 203.709C553.625 208.964 548.086 213.781 542.171 218.108L542.187 208.501Z" fill="#92E3A9"/>
<path d="M533.279 249.026C533.279 249.026 533.846 243.719 542.063 237.08C550.281 230.44 555.499 226.704 555.499 226.704C555.499 226.704 557.915 239.306 550.266 246.003C544.635 250.688 538.62 254.891 532.286 258.572L533.279 249.026Z" fill="#92E3A9"/>
<path d="M540.223 291.451C540.223 291.451 539.664 286.143 546.309 277.935C552.954 269.727 557.294 264.976 557.294 264.976C557.294 264.976 562.296 276.797 556.173 284.95C551.653 290.726 546.657 296.111 541.234 301.05L540.224 291.451L540.223 291.451Z" fill="#92E3A9"/>
<path d="M541.194 301.889C541.194 301.889 541.395 296.556 534.205 288.805C527.016 281.055 522.379 276.603 522.379 276.603C522.379 276.603 518.208 288.727 524.843 296.463C529.745 301.908 535.094 306.933 540.833 311.487L541.194 301.889Z" fill="#92E3A9"/>
<path d="M537.116 333.534C537.116 333.534 536.557 328.226 543.202 320.018C549.847 311.81 554.186 307.059 554.186 307.059C554.186 307.059 559.188 318.88 553.065 327.033C548.546 332.809 543.549 338.194 538.126 343.133L537.116 333.534Z" fill="#92E3A9"/>
<path d="M545.02 361.012C545.02 361.012 543.142 356.016 547.502 346.369C551.862 336.721 554.844 331.068 554.844 331.068C554.844 331.068 562.67 341.239 558.824 350.679C555.903 357.399 552.426 363.864 548.428 370.004L545.02 361.012Z" fill="#92E3A9"/>
<path d="M542.237 198.019C542.441 203.584 542.339 209.156 541.932 214.712C540.594 230.197 534.278 240.767 532.784 254.78C531.291 268.792 541.583 285.578 541.182 303.425C540.781 321.272 534.951 331.782 538.119 343.333C541.287 354.885 554.944 385.616 554.944 385.616" stroke="#263238" stroke-width="1.1775" stroke-linecap="round" stroke-linejoin="round"/>
<path d="M542.486 212.039L549.849 205.044" stroke="#263238" stroke-width="1.1775" stroke-linecap="round" stroke-linejoin="round"/>
<path d="M542.11 204.923L538.133 199.313" stroke="#263238" stroke-width="1.1775" stroke-linecap="round" stroke-linejoin="round"/>
<path d="M533.164 254.068C533.164 254.068 539.335 248.334 545.701 242.58" stroke="#263238" stroke-width="1.1775" stroke-linecap="round" stroke-linejoin="round"/>
<path d="M535.41 243.227C535.41 243.227 528.671 232.859 521.575 226.26" stroke="#263238" stroke-width="1.1775" stroke-linecap="round" stroke-linejoin="round"/>
<path d="M541.278 298.975C544.374 291.517 548.533 284.546 553.627 278.281" stroke="#263238" stroke-width="1.1775" stroke-linecap="round" stroke-linejoin="round"/>
<path d="M540.759 306.566C538.218 301.984 535.302 297.621 532.04 293.519C527.517 288.157 526.864 287.472 526.864 287.472" stroke="#263238" stroke-width="1.1775" stroke-linecap="round" stroke-linejoin="round"/>
<path d="M538.143 343.296C539.395 338.899 540.984 334.603 542.892 330.447C544.832 326.578 547.088 322.876 549.635 319.377" stroke="#263238" stroke-width="1.1775" stroke-linecap="round" stroke-linejoin="round"/>
<path d="M548.417 369.998C548.417 369.998 546.967 363.722 549.192 358.031C551.417 352.341 553.831 344.922 554.85 342.001" stroke="#263238" stroke-width="1.1775" stroke-linecap="round" stroke-linejoin="round"/>
<path d="M500.504 275.447C500.504 275.447 499.571 272.185 502.857 266.31C506.142 260.435 508.33 256.973 508.33 256.973C508.33 256.973 512.748 263.836 509.796 269.621C507.584 273.727 505.032 277.64 502.166 281.32L500.504 275.447Z" fill="#92E3A9"/>
<path d="M512.932 293.978C512.932 293.978 511.998 290.708 515.274 284.833C518.551 278.959 520.758 275.512 520.758 275.512C520.758 275.512 525.177 282.384 522.226 288.16C520.016 292.267 517.463 296.18 514.596 299.859L512.932 293.978Z" fill="#92E3A9"/>
<path d="M502.371 280.935C502.371 280.935 501.13 277.779 494.916 275.146C488.7 272.514 484.877 271.118 484.877 271.118C484.877 271.118 485.583 279.214 491.473 282.027C495.736 283.916 500.149 285.447 504.665 286.603L502.371 280.935Z" fill="#92E3A9"/>
<path d="M517.225 302.76C517.225 302.76 515.629 299.759 509.202 297.785C502.774 295.811 498.796 294.849 498.796 294.849C498.796 294.849 500.356 302.857 506.483 305C510.92 306.433 515.469 307.494 520.082 308.171L517.225 302.76Z" fill="#92E3A9"/>
<path d="M523.168 329.472C523.168 329.472 522.243 326.201 516.368 322.924C510.494 319.647 506.812 317.865 506.812 317.865C506.812 317.865 506.657 326.054 512.202 329.4C516.238 331.728 520.462 333.714 524.83 335.335L523.168 329.472Z" fill="#92E3A9"/>
<path d="M525.058 335.865C525.058 335.865 523.678 332.76 526.087 326.486C528.496 320.213 530.19 316.476 530.19 316.476C530.19 316.476 535.534 322.651 533.438 328.79C531.818 333.169 529.833 337.406 527.507 341.454L525.058 335.865Z" fill="#92E3A9"/>
<path d="M537.215 361.734C537.215 361.734 537.248 358.334 542.046 353.625C546.843 348.917 549.929 346.232 549.929 346.232C549.929 346.232 552.234 354.061 547.773 358.78C544.494 362.092 540.944 365.127 537.161 367.85L537.215 361.734Z" fill="#92E3A9"/>
<path d="M534.96 353.6C534.96 353.6 534.035 350.329 528.16 347.052C522.286 343.775 518.612 341.992 518.612 341.992C518.612 341.992 518.458 350.18 523.994 353.528C528.033 355.856 532.259 357.84 536.631 359.461L534.96 353.6Z" fill="#92E3A9"/>
<path d="M536.792 371.702C536.792 371.702 536.725 368.304 531.878 363.648C527.03 358.993 523.915 356.314 523.915 356.314C523.915 356.314 521.692 364.176 526.205 368.839C529.521 372.125 533.105 375.128 536.92 377.817L536.792 371.702Z" fill="#92E3A9"/>
<path d="M499.847 274.726C501.044 278.065 502.425 281.337 503.984 284.523C508.436 293.353 514.665 298.098 518.868 306.028C523.072 313.957 521.002 326.295 525.424 336.744C529.847 347.192 535.818 351.993 536.665 359.604C537.511 367.214 536.736 388.57 536.736 388.57" stroke="#263238" stroke-width="1.1775" stroke-linecap="round" stroke-linejoin="round"/>
<path d="M503.024 283.09L497.026 280.707" stroke="#263238" stroke-width="1.1775" stroke-linecap="round" stroke-linejoin="round"/>
<path d="M501.565 278.804L502.588 274.547" stroke="#263238" stroke-width="1.1775" stroke-linecap="round" stroke-linejoin="round"/>
<path d="M518.489 305.713C518.489 305.713 513.483 303.789 508.362 301.895" stroke="#263238" stroke-width="1.1775" stroke-linecap="round" stroke-linejoin="round"/>
<path d="M514.599 299.895C515.53 295.333 516.923 290.88 518.756 286.6" stroke="#263238" stroke-width="1.1775" stroke-linecap="round" stroke-linejoin="round"/>
<path d="M524.325 334.163C520.735 330.488 516.631 327.355 512.141 324.859" stroke="#263238" stroke-width="1.1775" stroke-linecap="round" stroke-linejoin="round"/>
<path d="M526.428 338.526C526.843 335.225 527.533 331.963 528.489 328.776C529.858 324.537 530.107 323.975 530.107 323.975" stroke="#263238" stroke-width="1.1775" stroke-linecap="round" stroke-linejoin="round"/>
<path d="M537.017 365.376C537.017 365.376 540.293 360.365 542.464 358.384C543.767 357.19 544.973 355.894 546.069 354.509" stroke="#263238" stroke-width="1.1775" stroke-linecap="round" stroke-linejoin="round"/>
<path d="M536.663 359.603C534.881 357.303 532.926 355.141 530.817 353.135C528.755 351.31 526.546 349.657 524.213 348.192" stroke="#263238" stroke-width="1.1775" stroke-linecap="round" stroke-linejoin="round"/>
<path d="M536.919 377.817C536.459 375.259 535.324 372.872 533.63 370.9C530.961 368.057 527.774 364.252 526.491 362.762" stroke="#263238" stroke-width="1.1775" stroke-linecap="round" stroke-linejoin="round"/>
<path d="M566.606 422.133L532.76 425.695C531.367 425.842 530.118 424.831 529.971 423.437L521.171 386.492L569.78 381.376L568.864 419.344C569.011 420.737 568 421.986 566.606 422.133Z" fill="#263238"/>
<path d="M570.017 387.762L521.838 392.832C519.749 393.052 517.873 391.548 517.634 389.462C517.413 387.364 518.934 385.485 521.032 385.264C521.035 385.264 521.039 385.263 521.041 385.263L569.22 380.192C571.318 379.966 573.2 381.484 573.426 383.58C573.426 383.583 573.427 383.587 573.427 383.59C573.628 385.681 572.105 387.542 570.017 387.762Z" fill="#263238"/>
<path d="M445.631 249.389C447.968 271.594 434.441 291.83 414.172 298.791C414.122 298.814 414.089 298.817 414.039 298.839C412.839 299.242 411.637 299.609 410.394 299.931C408.243 300.467 406.027 300.872 403.759 301.111C377.904 303.832 354.738 285.079 352.018 259.241C349.358 233.966 367.229 211.255 392.188 207.731C392.611 207.652 393.054 207.605 393.498 207.558C393.632 207.527 393.769 207.513 393.906 207.498C394.059 207.482 394.229 207.464 394.384 207.465C400.905 206.831 407.243 207.578 413.132 209.476C430.369 214.973 443.615 230.236 445.631 249.389Z" fill="#92E3A9"/>
<path opacity="0.4" d="M413.133 209.477C358.792 212.352 364.85 272.376 364.85 272.376C364.85 272.376 354.536 253.667 365.725 230.555C371.969 217.638 384.521 210.902 394.385 207.468C400.905 206.832 407.243 207.579 413.133 209.477Z" fill="white"/>
<path d="M445.631 249.389C447.974 271.645 434.381 291.922 414.039 298.839C410.777 299.959 407.34 300.734 403.76 301.111C377.905 303.832 354.739 285.079 352.02 259.24C349.359 233.966 367.23 211.255 392.189 207.731C392.749 207.638 393.327 207.559 393.906 207.498C419.743 204.78 442.91 223.534 445.631 249.389Z" stroke="#263238" stroke-miterlimit="10" stroke-linecap="round" stroke-linejoin="round"/>
<path d="M445.631 249.389C447.974 271.645 434.381 291.922 414.039 298.839C413.479 298.933 412.902 299.011 412.322 299.072C386.467 301.794 363.318 283.038 360.597 257.183C358.254 234.927 371.847 214.65 392.189 207.731C392.749 207.639 393.327 207.559 393.906 207.499C419.743 204.78 442.91 223.534 445.631 249.389Z" stroke="#263238" stroke-miterlimit="10" stroke-linecap="round" stroke-linejoin="round"/>
<path d="M418.041 281.907L419.774 286.722L411.894 289.557L410.161 284.742C402.908 285.473 396.602 281.413 393.955 274.059L393.168 271.87L401.752 267.693L402.57 269.97C404.176 274.436 407.429 276.331 411.107 275.007C414.783 273.683 416.241 270.588 414.95 266.998C413.405 262.711 408.056 260.481 401.909 258.243C394.636 255.619 387.048 252.118 384.245 244.327C381.505 236.709 383.228 229.958 389.054 226.083L387.321 221.267L395.2 218.433L396.933 223.248C403.948 222.404 409.665 226.479 412.468 234.27L413.035 235.846L404.452 240.022L403.822 238.271C402.12 233.543 399.4 231.753 396.16 232.919C392.922 234.085 391.805 236.759 393.194 240.612C394.736 244.9 400.143 247.011 406.232 249.368C413.45 252.114 421.094 255.494 423.898 263.285C426.577 270.725 424.215 277.904 418.041 281.907Z" stroke="#263238" stroke-miterlimit="10"/>
<path opacity="0.3" d="M418.041 281.907L419.774 286.722L411.894 289.557L410.161 284.742C402.908 285.473 396.602 281.413 393.955 274.059L393.168 271.87L401.752 267.693L402.57 269.97C404.176 274.436 407.429 276.331 411.107 275.007C414.783 273.683 416.241 270.588 414.95 266.998C413.405 262.711 408.056 260.481 401.909 258.243C394.636 255.619 387.048 252.118 384.245 244.327C381.505 236.709 383.228 229.958 389.054 226.083L387.321 221.267L395.2 218.433L396.933 223.248C403.948 222.404 409.665 226.479 412.468 234.27L413.035 235.846L404.452 240.022L403.822 238.271C402.12 233.543 399.4 231.753 396.16 232.919C392.922 234.085 391.805 236.759 393.194 240.612C394.736 244.9 400.143 247.011 406.232 249.368C413.45 252.114 421.094 255.494 423.898 263.285C426.577 270.725 424.215 277.904 418.041 281.907Z" fill="black"/>
<path d="M379.15 297.063L388.989 295.569" stroke="#263238" stroke-miterlimit="10" stroke-linecap="round" stroke-linejoin="round"/>
<path d="M374.046 294.281L382.598 292.641" stroke="#263238" stroke-miterlimit="10" stroke-linecap="round" stroke-linejoin="round"/>
<path d="M369.81 291.217L378.362 289.578" stroke="#263238" stroke-miterlimit="10" stroke-linecap="round" stroke-linejoin="round"/>
<path d="M361.69 225.404L369.078 224.626" stroke="#263238" stroke-miterlimit="10" stroke-linecap="round" stroke-linejoin="round"/>
<path d="M364.979 221.612L372.3 220.504" stroke="#263238" stroke-miterlimit="10" stroke-linecap="round" stroke-linejoin="round"/>
<path d="M369.227 217.719L376.913 216.172" stroke="#263238" stroke-miterlimit="10" stroke-linecap="round" stroke-linejoin="round"/>
<path opacity="0.3" d="M414.17 298.792C414.121 298.814 414.087 298.817 414.037 298.839C410.776 299.959 407.339 300.734 403.759 301.111C377.904 303.832 354.738 285.079 352.018 259.241C349.358 233.966 367.229 211.255 392.188 207.731C392.611 207.652 393.054 207.605 393.497 207.558C382.467 212.358 364.299 223.564 361.201 243.272C356.8 271.257 376.394 300.457 414.17 298.792Z" fill="black"/>
<path opacity="0.1" d="M445.631 249.389C447.968 271.594 434.441 291.83 414.172 298.791C414.122 298.814 414.089 298.817 414.039 298.839C412.839 299.242 411.637 299.609 410.394 299.931L413.134 209.477C430.369 214.973 443.615 230.236 445.631 249.389Z" fill="black"/>
<path d="M464.43 172.919C457.811 184.738 444.02 190.017 431.562 186.328C431.508 186.317 431.436 186.289 431.384 186.278C430.458 185.996 429.526 185.663 428.606 185.277C427.614 184.864 426.651 184.396 425.698 183.859C411.975 176.182 407.08 158.833 414.757 145.109C422.145 131.917 438.463 126.888 451.905 133.371C452.139 133.468 452.359 133.583 452.578 133.697C452.886 133.836 453.197 134.011 453.509 134.185C453.985 134.445 454.445 134.725 454.89 135.022C467.527 143.037 471.848 159.688 464.43 172.919Z" fill="#92E3A9"/>
<path opacity="0.4" d="M421.76 177.8C421.76 177.8 415.691 164.664 420.791 153.991C427.192 140.601 438.44 133.626 454.887 135.023C454.887 135.023 445.524 130.042 431.337 135.77C417.153 141.495 411.423 162.447 421.76 177.8Z" fill="white"/>
<path d="M464.427 172.926C457.815 184.736 444.022 190.008 431.559 186.323C429.557 185.738 427.589 184.921 425.688 183.857C411.967 176.175 407.071 158.824 414.747 145.113C422.257 131.7 439.013 126.721 452.571 133.694C452.88 133.842 453.193 134.006 453.5 134.178C467.214 141.854 472.109 159.206 464.427 172.926Z" stroke="#263238" stroke-miterlimit="10" stroke-linecap="round" stroke-linejoin="round"/>
<path d="M464.427 172.926C457.814 184.736 444.022 190.008 431.559 186.323C431.25 186.175 430.937 186.011 430.629 185.839C416.909 178.157 412.022 160.811 419.704 147.091C426.317 135.28 440.109 130.009 452.572 133.694C452.881 133.842 453.194 134.006 453.502 134.178C467.214 141.854 472.109 159.206 464.427 172.926Z" stroke="#263238" stroke-miterlimit="10" stroke-linecap="round" stroke-linejoin="round"/>
<path d="M439.447 179.356L438.622 182.34L433.74 180.989L434.565 178.005C430.727 175.834 429.031 171.628 430.291 167.071L430.667 165.715L436.365 166.648L435.975 168.059C435.209 170.826 436.154 172.896 438.433 173.527C440.711 174.157 442.512 173.137 443.127 170.913C443.861 168.255 441.997 165.286 439.743 162.035C437.066 158.2 434.54 153.823 435.876 148.995C437.182 144.275 440.39 141.541 444.62 141.661L445.445 138.678L450.326 140.027L449.502 143.011C453.26 145.043 454.663 149.051 453.327 153.879L453.057 154.855L447.36 153.922L447.66 152.838C448.47 149.909 447.75 148.074 445.744 147.521C443.737 146.966 442.252 147.897 441.592 150.285C440.856 152.942 442.791 155.872 444.976 159.162C447.584 163.038 450.179 167.377 448.843 172.203C447.568 176.814 443.895 179.536 439.447 179.356Z" stroke="#263238" stroke-miterlimit="10"/>
<path opacity="0.3" d="M439.447 179.356L438.622 182.34L433.74 180.989L434.565 178.005C430.727 175.834 429.031 171.628 430.291 167.071L430.667 165.715L436.365 166.648L435.975 168.059C435.209 170.826 436.154 172.896 438.433 173.527C440.711 174.157 442.512 173.137 443.127 170.913C443.861 168.255 441.997 165.286 439.743 162.035C437.066 158.2 434.54 153.823 435.876 148.995C437.182 144.275 440.39 141.541 444.62 141.661L445.445 138.678L450.326 140.027L449.502 143.011C453.26 145.043 454.663 149.051 453.327 153.879L453.057 154.855L447.36 153.922L447.66 152.838C448.47 149.909 447.75 148.074 445.744 147.521C443.737 146.966 442.252 147.897 441.592 150.285C440.856 152.942 442.791 155.872 444.976 159.162C447.584 163.038 450.179 167.377 448.843 172.203C447.568 176.814 443.895 179.536 439.447 179.356Z" fill="black"/>
<path opacity="0.3" d="M451.904 133.37C443.981 132.807 434.146 133.067 429.216 137.017C420.168 144.264 414.956 152.743 416.38 165.457C417.805 178.17 430.631 185.838 430.631 185.838L431.383 186.277C429.442 185.687 427.53 184.889 425.697 183.857C411.973 176.179 407.078 158.831 414.756 145.107C422.144 131.916 438.462 126.888 451.904 133.37Z" fill="black"/>
<path opacity="0.1" d="M464.43 172.919C457.811 184.738 444.02 190.017 431.562 186.328C431.508 186.317 431.437 186.289 431.385 186.278C430.458 185.996 429.527 185.663 428.606 185.277L454.89 135.023C467.527 143.037 471.848 159.688 464.43 172.919Z" fill="black"/>
<path d="M488.044 537.412C477.482 553.012 464.631 567.06 449.559 578.406C444.838 581.95 439.973 585.176 434.948 588.1C400.064 608.419 358.441 613.879 318.411 608.523C234.26 597.275 183.097 529.424 169.109 449.597C165.33 428.016 159.533 404.901 166.162 383.303C172.732 361.886 189.24 347.008 208.436 335.943C222.364 327.906 237.694 321.866 251.664 316.794C277.1 307.563 304.486 307.679 329.946 316.631C347.661 322.861 361.143 335.454 376.569 345.717C378.206 346.798 379.844 347.879 381.495 348.944C397.039 358.972 413.255 367.993 429.974 375.913C455.362 387.952 481.23 399.115 499.043 421.949C527.439 458.331 511.389 502.9 488.044 537.412Z" fill="#92E3A9"/>
<path opacity="0.4" d="M488.044 537.412C477.482 553.012 464.631 567.06 449.559 578.406C444.838 581.95 439.973 585.176 434.948 588.1C400.064 608.419 358.441 613.879 318.411 608.523C234.26 597.275 183.097 529.424 169.109 449.597C165.33 428.016 159.533 404.901 166.162 383.303C172.732 361.886 189.24 347.008 208.436 335.943C222.364 327.906 237.694 321.866 251.664 316.794C277.1 307.563 304.486 307.679 329.946 316.631C347.661 322.861 361.143 335.454 376.569 345.717C378.206 346.798 379.844 347.879 381.495 348.944C397.039 358.972 413.255 367.993 429.974 375.913C455.362 387.952 481.23 399.115 499.043 421.949C527.439 458.331 511.389 502.9 488.044 537.412Z" fill="white"/>
<path d="M381.495 348.938C379.846 347.875 378.204 346.8 376.57 345.713C361.14 335.456 347.658 322.86 329.948 316.631C304.485 307.675 277.092 307.566 251.664 316.795C218.442 328.852 177.495 346.342 166.161 383.306C159.538 404.905 165.331 428.016 169.112 449.591C183.103 529.423 234.255 597.277 318.409 608.528C364.204 614.651 412.064 606.62 449.564 578.404C464.628 567.07 477.486 553.007 488.036 537.413C511.383 502.902 527.444 458.328 499.05 421.946C481.235 399.117 455.369 387.955 429.973 375.917C413.25 367.99 397.047 358.969 381.495 348.938Z" stroke="#263238" stroke-miterlimit="10"/>
<path d="M272.223 505.421C265.673 508.225 259.128 511.558 253.255 515.473" stroke="#263238" stroke-miterlimit="10" stroke-linecap="round" stroke-linejoin="round"/>
<path d="M313.261 493.054C313.261 493.054 299.938 495.383 284.04 500.877" stroke="#263238" stroke-miterlimit="10" stroke-linecap="round" stroke-linejoin="round"/>
<path d="M304.291 491.904C304.291 491.904 263.418 473.556 218.828 496.403" stroke="#263238" stroke-miterlimit="10" stroke-linecap="round" stroke-linejoin="round"/>
<path opacity="0.1" d="M488.044 537.412C477.482 553.012 464.631 567.06 449.559 578.406C444.838 581.95 439.973 585.176 434.948 588.1C430.622 587.254 426.352 586.197 422.135 584.879C397.002 577.082 374.984 561.785 353.444 546.659C340.456 537.552 327.265 528.308 312.312 523.01C292.333 515.925 269.742 516.445 250.111 524.432C259.313 511.449 273.155 501.821 288.526 497.695C277.381 489.505 262.799 487.104 249.007 488.302C235.214 489.484 227.813 491.992 214.695 496.42C218.313 487.675 229.469 478.932 238.91 478.16C229.469 478.931 218.652 479.435 211.934 479.08C199.563 478.399 192.628 464.671 189.526 452.699C180.978 419.733 182.306 383.491 197.593 353.078C200.794 346.71 204.418 341.029 208.437 335.94C222.365 327.904 237.695 321.863 251.665 316.791C277.1 307.56 304.487 307.676 329.947 316.629C347.662 322.858 361.143 335.452 376.57 345.714C378.207 346.796 379.844 347.877 381.496 348.941C397.04 358.97 413.256 367.99 429.975 375.911C455.363 387.95 481.23 399.112 499.044 421.946C527.439 458.331 511.389 502.9 488.044 537.412Z" fill="black"/>
<path d="M501.322 535.054C501.322 535.054 513.111 543.029 525.716 549.356C541.153 548.772 536.23 568.026 536.23 568.026L523.997 577.84C523.997 577.84 499.711 562.387 486.871 557.887C474.03 553.387 501.322 535.054 501.322 535.054Z" fill="white"/>
<path opacity="0.3" d="M371.947 351.477C371.947 351.477 367.654 330.907 363.693 325.416L311.712 320.374L311.298 316.435C311.298 316.435 311.75 309.449 299.955 306.352C288.16 303.256 265.116 311.321 259.505 316.574C253.894 321.828 256.964 329.533 256.964 329.533C256.964 329.533 237.554 342.08 228.749 347.002C219.944 351.923 207.957 360.919 207.957 360.919C207.957 360.919 208.819 409.139 210.803 420.15C212.787 431.162 212.408 441.758 214.002 447.808C215.598 453.859 216.719 457.274 223.722 461.826C230.724 466.378 237.383 473.485 253.482 464.046L250.928 462.429L358.273 413.298L371.947 351.477Z" fill="black"/>
<path d="M371.947 351.477C371.947 351.477 367.654 330.907 363.693 325.416L311.712 320.374L311.298 316.435C311.298 316.435 311.75 309.449 299.955 306.352C288.16 303.256 265.116 311.321 259.505 316.574C253.894 321.828 256.964 329.533 256.964 329.533C256.964 329.533 237.554 342.08 228.749 347.002C219.944 351.923 207.957 360.919 207.957 360.919C207.957 360.919 208.819 409.139 210.803 420.15C212.787 431.162 212.408 441.758 214.002 447.808C215.598 453.859 216.719 457.274 223.722 461.826C230.724 466.378 237.383 473.485 253.482 464.046L250.928 462.429L358.273 413.298L371.947 351.477Z" fill="#92E3A9"/>
<path opacity="0.05" d="M371.947 351.477C371.947 351.477 367.654 330.907 363.693 325.416L311.712 320.374L311.298 316.435C311.298 316.435 311.75 309.449 299.955 306.352C288.16 303.256 265.116 311.321 259.505 316.574C253.894 321.828 256.964 329.533 256.964 329.533C256.964 329.533 237.554 342.08 228.749 347.002C219.944 351.923 207.957 360.919 207.957 360.919C207.957 360.919 208.819 409.139 210.803 420.15C212.787 431.162 212.408 441.758 214.002 447.808C215.598 453.859 216.719 457.274 223.722 461.826C230.724 466.378 237.383 473.485 253.482 464.046L250.928 462.429L358.273 413.298L371.947 351.477Z" fill="black"/>
<path opacity="0.1" d="M364.626 327.855L343.338 330.096C339.202 330.531 335.988 333.894 335.739 338.045L331.897 402.35C331.897 402.35 317.579 405.071 308.132 413.619C298.685 422.166 267.909 371.563 228.125 375.724C228.125 375.724 242.324 400.679 247.063 421.291C247.063 421.291 221.914 421.203 218.81 431.366C215.704 441.529 223.63 459.137 233.398 450.974C243.166 442.812 251.773 429.964 259.64 436.625C267.507 443.287 299.252 444.043 299.252 444.043L344.994 414.697L362.799 403.922L364.626 327.855Z" fill="black"/>
<path opacity="0.4" d="M293.73 303.686C293.73 303.686 306.177 305.768 308.561 309.615C310.946 313.463 311.827 323.762 311.827 323.762C311.827 323.762 309.493 333.235 300.702 343.022L289.792 326.081L292.736 346.29C292.736 346.29 275.322 345.243 267.483 340.533C259.644 335.823 259.644 335.823 259.644 335.823C259.644 335.823 255.437 325.877 255.51 322.308C255.582 318.737 267.938 310.292 267.938 310.292L293.73 303.686Z" fill="white"/>
<path d="M528.028 595.316C527.619 594.607 531.932 584.701 526.781 575.608C521.631 566.513 515.403 570.884 515.403 570.884C515.403 570.884 495.311 560.883 486.998 557.932C478.684 554.98 469.538 549.892 469.538 549.892L462.362 562.033L472.608 585.145L528.028 595.316Z" fill="#92E3A9"/>
<path d="M514.651 570.378L540.39 582.611C540.39 582.611 556.237 569.914 563.559 561.531C570.882 553.147 587.334 535.216 587.334 535.216L597.271 518.383C597.271 518.383 588.174 509.28 575.613 518.689C559.378 530.847 539.828 548.015 525.716 549.356C525.716 549.356 530.319 566.374 514.651 570.378Z" fill="#92E3A9"/>
<path d="M283.053 241.625C283.053 241.625 295.775 257.069 298.337 262.235C300.899 267.401 303.348 275.187 303.344 279.053C303.341 282.918 301.495 303.85 299.485 304.667L297.771 307.072L299.933 315.628C299.933 315.628 292.911 331.376 266.527 323.151C266.527 323.151 263.718 305.923 260.079 300.811C256.439 295.699 252.529 302.648 246.283 287.42C240.037 272.192 252.949 254.209 252.949 254.209L283.053 241.625Z" fill="white"/>
<path opacity="0.5" d="M586.308 514.641C586.308 514.641 574.11 518.105 570.846 525.89C567.582 533.674 561.282 548.171 559.335 555.063C557.386 561.955 537.203 580.227 537.203 580.227L540.39 582.612C540.39 582.612 557.024 569.74 566.653 558.16C576.282 546.579 597.203 517.792 597.203 517.792C597.203 517.792 595.334 516.278 586.308 514.641Z" fill="white"/>
<path opacity="0.5" d="M464.995 557.579L462.362 562.034L473.882 580.659L527.879 593.884L529.489 586.008C529.489 586.008 529.477 578.164 510.598 574.241C491.721 570.318 480.174 567.581 474.554 564.086C468.933 560.59 464.995 557.579 464.995 557.579Z" fill="white"/>
<path d="M277.889 429.953C277.889 429.953 261.706 429.239 255.639 443.053C249.573 456.868 250.927 462.429 250.927 462.429C250.927 462.429 262.458 470.886 276.879 468.873C291.3 466.86 310.641 447.959 316.941 441.839C323.242 435.72 338.94 418.441 351.096 420.387L351.223 409.074C351.223 409.074 349.547 404.185 339.576 406.596C329.607 409.008 326.25 415.196 322.998 415.539C319.746 415.881 316.327 413.069 310.913 424.957C310.913 424.957 288.362 431.455 277.889 429.953Z" fill="white"/>
<path d="M281.565 265.925C282.116 267.978 282.817 269.991 283.658 271.942C284.065 272.884 284.525 273.839 285.293 274.52C286.651 275.726 288.634 275.816 290.448 275.899C290.747 275.913 291.074 275.94 291.289 276.148C291.484 276.337 291.533 276.628 291.561 276.898C291.769 278.913 291.365 280.988 290.414 282.775" stroke="#263238" stroke-miterlimit="10" stroke-linecap="round" stroke-linejoin="round"/>
<path opacity="0.1" d="M474.288 543.136L464.995 557.579C464.995 557.579 477.869 567.18 490.437 569.918C503.005 572.656 525.052 578.033 529.222 583.475L527.117 576.617C527.117 576.617 491.737 559.724 483.586 555.662C475.436 551.599 474.288 543.136 474.288 543.136Z" fill="black"/>
<path opacity="0.1" d="M514.651 570.378L537.203 580.227C537.203 580.227 546.926 571.96 551.545 566.079C556.164 560.198 561.87 553.704 564.527 541.418C568.198 524.437 582.848 515.005 582.848 515.005C582.848 515.005 562.401 527.394 552.039 536.526C541.677 545.66 531.109 550.114 524.714 550.242C524.714 550.242 531.501 565.825 514.651 570.378Z" fill="black"/>
<path d="M276.214 287.229C276.214 287.229 285.268 292.908 293.702 289.534C293.702 289.534 287.21 306.632 276.214 287.229Z" fill="white" stroke="#263238" stroke-miterlimit="10" stroke-linecap="round" stroke-linejoin="round"/>
<path d="M274.465 273.077C274.898 274.857 274.518 276.478 273.62 276.696C272.722 276.913 271.643 275.647 271.211 273.867C270.779 272.086 271.158 270.466 272.056 270.247C272.955 270.029 274.034 271.297 274.465 273.077Z" fill="#263238"/>
<path d="M292.279 267.888C292.712 269.669 292.334 271.289 291.434 271.508C290.536 271.726 289.458 270.458 289.025 268.678C288.593 266.898 288.972 265.277 289.871 265.059C290.77 264.84 291.848 266.107 292.279 267.888Z" fill="#263238"/>
<path d="M272.34 265.564C272.34 265.564 267.2 263.565 264.297 269.314" stroke="#263238" stroke-miterlimit="10" stroke-linecap="round" stroke-linejoin="round"/>
<path d="M284.459 260.902C284.459 260.902 289.137 255.934 292.594 260.045" stroke="#263238" stroke-miterlimit="10" stroke-linecap="round" stroke-linejoin="round"/>
<path d="M257.52 283.893C257.52 283.893 253.897 279.593 250.627 280.089C247.357 280.584 246.5 285.355 248.167 289.71C249.833 294.064 255.422 299.818 259.092 298.827C262.763 297.836 264.153 295.274 264.153 295.274" stroke="#263238" stroke-miterlimit="10" stroke-linecap="round" stroke-linejoin="round"/>
<path d="M283.818 245.334C287.65 247.879 291.706 250.682 294.002 254.787C295.957 258.283 296.741 262.296 298.57 265.86C300.519 269.659 302.641 273.624 303.222 277.928C303.752 281.847 303.289 286.027 302.909 289.936C302.581 293.319 302.417 296.79 301.562 300.092C300.317 304.902 297.4 308.086 293.324 310.738C290.36 312.667 285.382 315.512 281.77 313.703C279.664 312.648 276.314 309.25 273.49 306.116" stroke="#263238" stroke-miterlimit="10" stroke-linecap="round" stroke-linejoin="round"/>
<path d="M259.092 298.827C259.092 298.827 266.061 311.832 265.723 321.531" stroke="#263238" stroke-miterlimit="10" stroke-linecap="round" stroke-linejoin="round"/>
<path d="M255.857 281.76C257.226 280.532 257.875 278.554 257.502 276.755C257.073 274.686 255.42 272.909 255.49 270.798C255.524 269.762 255.978 268.794 256.295 267.808C257.458 264.206 256.762 260.057 254.487 257.034C254.487 257.034 272.177 256.004 279.876 249.888C287.577 243.772 292.443 229.7 286.783 223.812C281.122 217.923 272.325 227.692 265.236 229.419C258.148 231.148 232.924 237.93 229.885 248.271C226.846 258.612 233.435 261.465 234.62 270.866C235.807 280.267 237.675 298.114 251.598 294.996C251.598 294.996 245.61 288.733 248.528 281.32C250.707 278.064 255.857 281.76 255.857 281.76Z" fill="#263238"/>
<path d="M285.863 235.169C285.863 235.169 293.619 239.242 295.923 249.758C297.451 256.741 311.431 269.146 303.222 277.926C303.222 277.926 300.239 269.829 298.57 265.858C296.901 261.888 294.536 254.574 292.183 252.178C289.829 249.783 277.88 242.008 277.88 242.008L285.863 235.169Z" fill="#263238"/>
<path d="M263.123 321.505C263.123 321.505 272.412 326.305 288.572 324.846L292.736 346.289C292.736 346.289 274.454 346.812 259.644 335.822C259.644 335.822 254.983 326.553 255.51 322.307C256.035 318.06 264.246 313.031 264.246 313.031" stroke="#263238" stroke-miterlimit="10" stroke-linecap="round" stroke-linejoin="round"/>
<path d="M298.603 307.98L299.933 315.629C294.701 322.258 288.573 324.849 288.573 324.849L300.702 343.021C300.702 343.021 311.758 332.376 311.923 322.391C311.923 322.391 310.96 312.281 308.563 309.616C306.166 306.951 298.359 306.398 298.359 306.398" stroke="#263238" stroke-miterlimit="10" stroke-linecap="round" stroke-linejoin="round"/>
<path opacity="0.8" d="M243.408 253.315C244.374 249.939 247.687 247.71 251.07 246.769C254.453 245.826 258.022 245.886 261.504 245.425C266.275 244.797 270.982 243.135 274.757 240.15C278.532 237.164 281.302 232.776 281.822 227.992" stroke="white" stroke-miterlimit="10" stroke-linecap="round" stroke-linejoin="round"/>
<path opacity="0.8" d="M235.023 253.568C236.512 246.72 243.144 241.898 250.027 240.577C253.437 239.923 256.958 239.963 260.344 239.198C263.73 238.434 267.15 236.643 268.631 233.503" stroke="white" stroke-miterlimit="10" stroke-linecap="round" stroke-linejoin="round"/>
<path d="M253.481 464.047C237.667 474.495 230.745 466.189 220.637 459.771C210.528 453.354 215.253 439.52 211.087 418.49C206.922 397.46 207.955 360.92 207.955 360.92C207.955 360.92 212.035 359.515 222.872 351.212C233.708 342.909 256.963 329.535 256.963 329.535" stroke="#263238" stroke-miterlimit="10" stroke-linecap="round" stroke-linejoin="round"/>
<path d="M266.705 430.216C266.705 430.216 263.161 422.079 255.631 422.641C248.1 423.204 236.631 427.835 229.889 444.671" stroke="#263238" stroke-miterlimit="10" stroke-linecap="round" stroke-linejoin="round"/>
<path d="M253.869 422.321C253.403 422.378 252.937 422.253 252.482 422.141C246.114 420.565 239.269 420.974 233.133 423.298" stroke="#263238" stroke-miterlimit="10" stroke-linecap="round" stroke-linejoin="round"/>
<path d="M223.265 370.941C238.489 384.584 247.245 403.836 255.584 422.501" stroke="#263238" stroke-miterlimit="10" stroke-linecap="round" stroke-linejoin="round"/>
<path d="M311.712 320.374C311.712 320.374 337.084 323.67 349.316 323.803C361.549 323.936 363.693 325.415 363.693 325.415L366.828 333.61" stroke="#263238" stroke-miterlimit="10" stroke-linecap="round" stroke-linejoin="round"/>
<path d="M428.582 322.936L344.64 335.049L346.877 422.454L361.316 420.934L432.769 396.841L434.457 324.427L428.582 322.936Z" fill="white"/>
<path d="M351.535 424.559L434.408 326.497L432.769 396.841L351.535 424.559Z" fill="#92E3A9"/>
<path opacity="0.7" d="M351.535 424.559L434.408 326.497L432.769 396.841L351.535 424.559Z" fill="white"/>
<path d="M351.29 422.228L349.856 337.847L434.457 324.427L432.769 396.841L351.29 422.228Z" stroke="#263238" stroke-miterlimit="10" stroke-linecap="round" stroke-linejoin="round"/>
<path d="M402.861 368.7C402.822 373.852 400.51 378.01 397.698 377.988C394.886 377.966 392.638 373.773 392.678 368.622C392.717 363.471 395.029 359.313 397.84 359.335C400.652 359.357 402.901 363.55 402.861 368.7Z" fill="#263238"/>
<path d="M432.769 396.841C432.769 396.841 471.603 391.634 484.632 398.393C497.662 405.152 509.049 444.732 509.623 466.334C510.197 487.937 500.667 538.638 500.667 538.638L469.159 509.672C469.159 509.672 449.99 460.718 455.473 440.177C455.473 440.177 418.304 446.213 403.114 443.139C403.114 443.139 387.654 422.942 364.299 418.174L432.769 396.841Z" fill="#263238"/>
<path d="M506.698 538.845C493.669 529.324 480.632 515.705 476.672 510.791C460.833 491.177 439.868 472.912 418.846 459.24C401.896 448.218 396.193 427.965 375.846 419.648C342.152 405.897 318.154 442.796 308.565 450.756C298.976 458.717 281.931 468.35 281.931 468.35C281.931 468.35 291.017 492.103 310.475 493.038C329.935 493.973 347.922 478.67 357.808 484.089C367.691 489.492 377.423 517.27 409.442 530.785C435.614 541.82 470.713 551.584 489.047 558.715C493.151 560.315 496.236 562.13 498.553 563.094C504.904 565.737 511.729 568.924 518.184 572.098L540.389 582.611C540.389 582.611 560.025 568.021 566.866 555.752C567.786 554.104 569.577 549.781 571.25 545.616C574.9 536.525 579.816 528.187 587.367 523.043C592.577 519.495 597.393 518.067 597.205 517.791C596.569 516.864 586.035 512.804 579.531 516.318C565.773 523.765 539.426 549.621 525.718 549.356C525.718 549.356 515.306 545.136 506.698 538.845Z" stroke="#263238" stroke-miterlimit="10"/>
<path d="M506.698 538.845C494.691 545.234 490.458 553.567 489.048 558.715C470.714 551.584 435.615 541.82 409.443 530.785C377.425 517.27 367.693 489.492 357.809 484.089C347.924 478.671 329.935 493.974 310.477 493.038C291.016 492.102 281.937 468.342 281.937 468.342C281.937 468.342 298.982 458.72 308.57 450.76C318.159 442.799 338.356 406.29 375.845 419.647C396.553 427.026 401.894 448.216 418.845 459.238C439.866 472.911 460.832 491.176 476.671 510.789C480.632 515.706 493.64 529.365 506.698 538.845Z" fill="#263238"/>
<path d="M400.957 439.502C400.957 439.502 389.24 420.898 373.354 418.722" stroke="white" stroke-miterlimit="10" stroke-linecap="round" stroke-linejoin="round"/>
<path d="M346.248 405.769C335.353 404.566 324.9 417.567 319.748 415.882C315.914 414.629 310.915 424.958 310.915 424.958C310.915 424.958 295.581 429.006 281.143 429.611C266.705 430.216 260.199 433.717 255.933 441.93L250.824 461.444C250.824 461.444 271.282 476.253 290.232 464.376C309.181 452.499 332.608 420.296 350.895 418.474" stroke="#263238" stroke-miterlimit="10" stroke-linecap="round" stroke-linejoin="round"/>
<path d="M513.786 569.962C513.786 569.962 531.426 569.559 525.122 549.107" stroke="#263238" stroke-miterlimit="10"/>
<path d="M592.749 528.946C591.701 531.717 577.138 546.983 564.589 560.358C564.611 560.168 567.621 552.494 568.952 549.214C571.893 541.969 579.4 522.164 597.205 517.791C599.929 519.064 592.749 528.946 592.749 528.946Z" fill="#263238"/>
<path d="M584.33 514.984C566.453 520.552 564.769 544.384 559.335 555.063C553.902 565.743 537.3 581.148 537.3 581.148" stroke="#263238" stroke-miterlimit="10"/>
<path d="M526.843 576.197C530.385 581.33 529.646 587.79 528.497 591.908C527.534 595.373 526.225 597.842 526.225 597.842C499.924 596.316 472.607 585.145 472.607 585.145L463.77 565.22L462.361 562.033L470.972 547.463" stroke="#263238" stroke-miterlimit="10"/>
<path d="M528.497 591.91C527.534 595.375 526.225 597.844 526.225 597.844C499.924 596.317 472.607 585.147 472.607 585.147L463.77 565.221C467.568 569.23 474.431 574.95 483.986 576.602C496.955 578.839 520.636 580.571 528.497 591.91Z" fill="#263238"/>
<path d="M346.559 419.438L344.64 335.049L428.582 322.936L434.457 324.427" stroke="#263238" stroke-miterlimit="10" stroke-linecap="round" stroke-linejoin="round"/>
<path d="M525.937 558.579C525.937 558.579 537.681 559.421 545.77 551.266C553.858 543.11 566.415 525.285 566.415 525.285" stroke="#263238" stroke-miterlimit="10"/>
<path d="M536.633 546.914C536.633 546.914 534.295 551.397 537.959 559.517" stroke="#263238" stroke-miterlimit="10" stroke-linecap="round" stroke-linejoin="round"/>
<path d="M544.385 542.075C544.385 542.075 542.816 548.575 546.753 554.565" stroke="#263238" stroke-miterlimit="10" stroke-linecap="round" stroke-linejoin="round"/>
<path d="M553.527 535.404C553.527 535.404 551.93 542.652 554.914 548.583" stroke="#263238" stroke-miterlimit="10" stroke-linecap="round" stroke-linejoin="round"/>
<path d="M473.074 545.48L464.995 557.579C464.995 557.579 475.383 566.763 488.95 569.608C502.517 572.453 526.751 577.162 529.495 584.6" stroke="#263238" stroke-miterlimit="10"/>
</svg>
